Nepomuk-BoldItalic.ufo
<glyph name="exclam" format="2">
  <advance width="322"/>
  <unicode hex="0021"/>
  <outline>
    <contour>
      <point x="35" y="61" type="curve" smooth="yes"/>
      <point x="35" y="24"/>
      <point x="65" y="-7"/>
      <point x="103" y="-7" type="curve" smooth="yes"/>
      <point x="140" y="-7"/>
      <point x="170" y="24"/>
      <point x="170" y="61" type="curve" smooth="yes"/>
      <point x="170" y="97"/>
      <point x="140" y="128"/>
      <point x="103" y="128" type="curve" smooth="yes"/>
      <point x="65" y="128"/>
      <point x="35" y="97"/>
    </contour>
    <contour>
      <point x="296" y="692" type="curve" smooth="yes"/>
      <point x="249" y="692"/>
      <point x="217" y="650"/>
      <point x="207" y="592" type="curve" smooth="yes"/>
      <point x="202" y="567"/>
      <point x="199" y="542"/>
      <point x="195" y="515" type="curve" smooth="yes"/>
      <point x="185" y="440"/>
      <point x="172" y="351"/>
      <point x="133" y="229" type="curve"/>
      <point x="183" y="213" type="line"/>
      <point x="229" y="353"/>
      <point x="269" y="423"/>
      <point x="304" y="485" type="curve" smooth="yes"/>
      <point x="317" y="508"/>
      <point x="330" y="529"/>
      <point x="341" y="552" type="curve" smooth="yes"/>
      <point x="354" y="577"/>
      <point x="362" y="605"/>
      <point x="362" y="627" type="curve" smooth="yes"/>
      <point x="362" y="662"/>
      <point x="342" y="692"/>
    </contour>
  </outline>
</glyph>
<glyph name="quotedbl" format="2">
  <advance width="410"/>
  <unicode hex="0022"/>
  <outline>
    <contour>
      <point x="197" y="678" type="line" smooth="yes"/>
      <point x="201" y="710"/>
      <point x="214" y="747"/>
      <point x="252" y="747" type="curve" smooth="yes"/>
      <point x="271" y="747"/>
      <point x="281" y="736"/>
      <point x="281" y="715" type="curve" smooth="yes"/>
      <point x="281" y="707"/>
      <point x="278" y="696"/>
      <point x="273" y="680" type="curve"/>
      <point x="209" y="524" type="line"/>
      <point x="176" y="524" type="line"/>
    </contour>
    <contour>
      <point x="352" y="678" type="line" smooth="yes"/>
      <point x="356" y="711"/>
      <point x="369" y="747"/>
      <point x="408" y="747" type="curve" smooth="yes"/>
      <point x="427" y="747"/>
      <point x="437" y="736"/>
      <point x="437" y="715" type="curve" smooth="yes"/>
      <point x="437" y="707"/>
      <point x="434" y="696"/>
      <point x="429" y="680" type="curve"/>
      <point x="364" y="524" type="line"/>
      <point x="331" y="524" type="line"/>
    </contour>
  </outline>
</glyph>
<glyph name="numbersign" format="2">
  <advance width="705"/>
  <unicode hex="0023"/>
  <outline>
    <contour>
      <point x="84" y="0" type="line"/>
      <point x="169" y="198" type="line"/>
      <point x="52" y="198" type="line"/>
      <point x="67" y="248" type="line"/>
      <point x="190" y="248" type="line"/>
      <point x="280" y="454" type="line"/>
      <point x="122" y="454" type="line"/>
      <point x="136" y="505" type="line"/>
      <point x="302" y="505" type="line"/>
      <point x="384" y="700" type="line"/>
      <point x="449" y="700" type="line"/>
      <point x="366" y="505" type="line"/>
      <point x="493" y="505" type="line"/>
      <point x="577" y="700" type="line"/>
      <point x="642" y="700" type="line"/>
      <point x="558" y="505" type="line"/>
      <point x="691" y="505" type="line"/>
      <point x="677" y="454" type="line"/>
      <point x="536" y="454" type="line"/>
      <point x="448" y="248" type="line"/>
      <point x="618" y="248" type="line"/>
      <point x="604" y="198" type="line"/>
      <point x="425" y="198" type="line"/>
      <point x="341" y="0" type="line"/>
      <point x="276" y="0" type="line"/>
      <point x="365" y="208" type="line"/>
      <point x="373" y="208" type="line"/>
      <point x="373" y="198" type="line"/>
      <point x="234" y="198" type="line"/>
      <point x="149" y="0" type="line"/>
    </contour>
    <contour>
      <point x="255" y="248" type="line"/>
      <point x="383" y="248" type="line"/>
      <point x="471" y="454" type="line"/>
      <point x="345" y="454" type="line"/>
    </contour>
  </outline>
</glyph>
<glyph name="dollar" format="2">
  <advance width="596"/>
  <unicode hex="0024"/>
  <outline>
    <contour>
      <point x="175" y="-12" type="curve"/>
      <point x="144" y="-141" type="line"/>
      <point x="205" y="-141" type="line"/>
      <point x="235" y="-19" type="line"/>
      <point x="369" y="-19"/>
      <point x="480" y="82"/>
      <point x="480" y="200" type="curve" smooth="yes"/>
      <point x="480" y="302"/>
      <point x="405" y="357"/>
      <point x="338" y="405" type="curve"/>
      <point x="395" y="643" type="line"/>
      <point x="432" y="634"/>
      <point x="449" y="611"/>
      <point x="449" y="575" type="curve" smooth="yes"/>
      <point x="449" y="538"/>
      <point x="427" y="506"/>
      <point x="401" y="498" type="curve"/>
      <point x="407" y="485"/>
      <point x="417" y="480"/>
      <point x="442" y="480" type="curve" smooth="yes"/>
      <point x="494" y="480"/>
      <point x="532" y="515"/>
      <point x="532" y="567" type="curve" smooth="yes"/>
      <point x="532" y="629"/>
      <point x="484" y="675"/>
      <point x="406" y="689" type="curve"/>
      <point x="426" y="769" type="line"/>
      <point x="365" y="769" type="line"/>
      <point x="346" y="692" type="line"/>
      <point x="223" y="689"/>
      <point x="136" y="608"/>
      <point x="136" y="507" type="curve" smooth="yes"/>
      <point x="136" y="427"/>
      <point x="193" y="373"/>
      <point x="258" y="327" type="curve"/>
      <point x="186" y="37" type="line"/>
      <point x="146" y="49"/>
      <point x="124" y="82"/>
      <point x="124" y="129" type="curve" smooth="yes"/>
      <point x="124" y="172"/>
      <point x="144" y="208"/>
      <point x="177" y="221" type="curve"/>
      <point x="166" y="235"/>
      <point x="150" y="242"/>
      <point x="129" y="242" type="curve" smooth="yes"/>
      <point x="81" y="242"/>
      <point x="37" y="191"/>
      <point x="37" y="136" type="curve" smooth="yes"/>
      <point x="37" y="67"/>
      <point x="94" y="7"/>
    </contour>
    <contour>
      <point x="390" y="157" type="curve" smooth="yes"/>
      <point x="390" y="87"/>
      <point x="329" y="33"/>
      <point x="247" y="29" type="curve"/>
      <point x="310" y="289" type="line"/>
      <point x="355" y="252"/>
      <point x="390" y="213"/>
    </contour>
    <contour>
      <point x="234" y="542" type="curve" smooth="yes"/>
      <point x="234" y="597"/>
      <point x="275" y="636"/>
      <point x="334" y="644" type="curve"/>
      <point x="286" y="445" type="line"/>
      <point x="255" y="472"/>
      <point x="234" y="501"/>
    </contour>
  </outline>
</glyph>
<glyph name="percent" format="2">
  <advance width="881"/>
  <unicode hex="0025"/>
  <outline>
    <contour>
      <point x="641" y="35" type="curve" smooth="yes"/>
      <point x="618" y="35"/>
      <point x="594" y="61"/>
      <point x="594" y="112" type="curve" smooth="yes"/>
      <point x="594" y="222"/>
      <point x="650" y="323"/>
      <point x="723" y="323" type="curve" smooth="yes"/>
      <point x="748" y="323"/>
      <point x="770" y="297"/>
      <point x="770" y="245" type="curve" smooth="yes"/>
      <point x="770" y="134"/>
      <point x="714" y="35"/>
    </contour>
    <contour>
      <point x="265" y="393" type="curve" smooth="yes"/>
      <point x="242" y="393"/>
      <point x="219" y="420"/>
      <point x="219" y="471" type="curve" smooth="yes"/>
      <point x="219" y="581"/>
      <point x="275" y="682"/>
      <point x="348" y="682" type="curve" smooth="yes"/>
      <point x="389" y="682"/>
      <point x="395" y="627"/>
      <point x="395" y="598" type="curve" smooth="yes"/>
      <point x="395" y="523"/>
      <point x="357" y="393"/>
    </contour>
    <contour>
      <point x="162" y="5" type="line"/>
      <point x="198" y="-31" type="line"/>
      <point x="799" y="711" type="line"/>
      <point x="762" y="746" type="line"/>
      <point x="723" y="697" type="line"/>
      <point x="673" y="642"/>
      <point x="591" y="593"/>
      <point x="515" y="593" type="curve" smooth="yes"/>
      <point x="502" y="593"/>
      <point x="486" y="597"/>
      <point x="467" y="602" type="curve" smooth="yes"/>
      <point x="453" y="606"/>
      <point x="443" y="613"/>
      <point x="440" y="623" type="curve"/>
      <point x="428" y="679"/>
      <point x="387" y="716"/>
      <point x="334" y="716" type="curve" smooth="yes"/>
      <point x="214" y="716"/>
      <point x="126" y="581"/>
      <point x="126" y="471" type="curve" smooth="yes"/>
      <point x="126" y="396"/>
      <point x="171" y="343"/>
      <point x="235" y="343" type="curve" smooth="yes"/>
      <point x="354" y="343"/>
      <point x="434" y="462"/>
      <point x="442" y="573" type="curve"/>
      <point x="464" y="563"/>
      <point x="489" y="559"/>
      <point x="515" y="559" type="curve" smooth="yes"/>
      <point x="551" y="559"/>
      <point x="596" y="571"/>
      <point x="635" y="590" type="curve"/>
    </contour>
    <contour>
      <point x="610" y="-16" type="curve" smooth="yes"/>
      <point x="731" y="-16"/>
      <point x="818" y="117"/>
      <point x="818" y="229" type="curve" smooth="yes"/>
      <point x="818" y="306"/>
      <point x="774" y="357"/>
      <point x="710" y="357" type="curve" smooth="yes"/>
      <point x="589" y="357"/>
      <point x="502" y="222"/>
      <point x="502" y="112" type="curve" smooth="yes"/>
      <point x="502" y="36"/>
      <point x="546" y="-16"/>
    </contour>
  </outline>
</glyph>
<glyph name="ampersand" format="2">
  <advance width="757"/>
  <unicode hex="0026"/>
  <outline>
    <contour>
      <point x="233" y="22" type="curve" smooth="yes"/>
      <point x="192" y="22"/>
      <point x="170" y="59"/>
      <point x="170" y="130" type="curve" smooth="yes"/>
      <point x="170" y="242"/>
      <point x="222" y="359"/>
      <point x="334" y="396" type="curve"/>
      <point x="341" y="399"/>
      <point x="350" y="402"/>
      <point x="357" y="405" type="curve"/>
      <point x="357" y="137" type="line" smooth="yes"/>
      <point x="357" y="122"/>
      <point x="357" y="111"/>
      <point x="360" y="101" type="curve"/>
      <point x="315" y="52"/>
      <point x="281" y="22"/>
    </contour>
    <contour>
      <point x="484" y="488" type="curve"/>
      <point x="448" y="474" type="line"/>
      <point x="452" y="619"/>
      <point x="516" y="678"/>
      <point x="563" y="678" type="curve" smooth="yes"/>
      <point x="590" y="678"/>
      <point x="600" y="647"/>
      <point x="600" y="622" type="curve" smooth="yes"/>
      <point x="600" y="549"/>
      <point x="550" y="508"/>
    </contour>
    <contour>
      <point x="211" y="-18" type="curve" smooth="yes"/>
      <point x="277" y="-18"/>
      <point x="323" y="13"/>
      <point x="372" y="61" type="curve"/>
      <point x="386" y="13"/>
      <point x="417" y="-18"/>
      <point x="484" y="-18" type="curve" smooth="yes"/>
      <point x="585" y="-18"/>
      <point x="664" y="120"/>
      <point x="705" y="200" type="curve"/>
      <point x="671" y="219" type="line"/>
      <point x="643" y="164"/>
      <point x="549" y="22"/>
      <point x="495" y="22" type="curve" smooth="yes"/>
      <point x="455" y="22"/>
      <point x="449" y="70"/>
      <point x="449" y="146" type="curve"/>
      <point x="645" y="393" type="line"/>
      <point x="671" y="423"/>
      <point x="682" y="436"/>
      <point x="694" y="436" type="curve" smooth="yes"/>
      <point x="701" y="436"/>
      <point x="705" y="430"/>
      <point x="705" y="425" type="curve" smooth="yes"/>
      <point x="705" y="419"/>
      <point x="702" y="414"/>
      <point x="696" y="409" type="curve" smooth="yes"/>
      <point x="685" y="398"/>
      <point x="680" y="386"/>
      <point x="680" y="375" type="curve" smooth="yes"/>
      <point x="680" y="348"/>
      <point x="703" y="340"/>
      <point x="722" y="340" type="curve" smooth="yes"/>
      <point x="763" y="340"/>
      <point x="778" y="373"/>
      <point x="778" y="398" type="curve" smooth="yes"/>
      <point x="778" y="441"/>
      <point x="751" y="472"/>
      <point x="705" y="472" type="curve" smooth="yes"/>
      <point x="661" y="472"/>
      <point x="632" y="444"/>
      <point x="607" y="413" type="curve" smooth="yes"/>
      <point x="555" y="345"/>
      <point x="501" y="272"/>
      <point x="448" y="202" type="curve"/>
      <point x="448" y="440" type="line"/>
      <point x="503" y="459" type="line"/>
      <point x="578" y="487"/>
      <point x="656" y="531"/>
      <point x="656" y="623" type="curve" smooth="yes"/>
      <point x="656" y="680"/>
      <point x="623" y="718"/>
      <point x="565" y="718" type="curve" smooth="yes"/>
      <point x="436" y="718"/>
      <point x="372" y="555"/>
      <point x="359" y="443" type="curve"/>
      <point x="306" y="425" type="line" smooth="yes"/>
      <point x="184" y="382"/>
      <point x="52" y="273"/>
      <point x="52" y="135" type="curve" smooth="yes"/>
      <point x="52" y="37"/>
      <point x="118" y="-18"/>
    </contour>
  </outline>
</glyph>
<glyph name="quotesingle" format="2">
  <advance width="255"/>
  <unicode hex="0027"/>
  <outline>
    <contour>
      <point x="222" y="678" type="curve" smooth="yes"/>
      <point x="201" y="524" type="line"/>
      <point x="234" y="524" type="line"/>
      <point x="298" y="680" type="line"/>
      <point x="303" y="696"/>
      <point x="306" y="707"/>
      <point x="306" y="715" type="curve" smooth="yes"/>
      <point x="306" y="736"/>
      <point x="296" y="747"/>
      <point x="277" y="747" type="curve" smooth="yes"/>
      <point x="239" y="747"/>
      <point x="226" y="710"/>
    </contour>
  </outline>
</glyph>
<glyph name="parenleft" format="2">
  <advance width="355"/>
  <unicode hex="0028"/>
  <outline>
    <contour>
      <point x="151" y="117" type="curve" smooth="yes"/>
      <point x="151" y="368"/>
      <point x="268" y="557"/>
      <point x="415" y="650" type="curve"/>
      <point x="415" y="685" type="line"/>
      <point x="209" y="590"/>
      <point x="60" y="417"/>
      <point x="60" y="180" type="curve" smooth="yes"/>
      <point x="60" y="61"/>
      <point x="107" y="-49"/>
      <point x="167" y="-140" type="curve"/>
      <point x="215" y="-140" type="line"/>
      <point x="179" y="-68"/>
      <point x="151" y="18"/>
    </contour>
  </outline>
</glyph>
<glyph name="parenright" format="2">
  <advance width="355"/>
  <unicode hex="0029"/>
  <outline>
    <contour>
      <point x="204" y="421" type="curve" smooth="yes"/>
      <point x="204" y="170"/>
      <point x="87" y="-19"/>
      <point x="-60" y="-112" type="curve"/>
      <point x="-60" y="-147" type="line"/>
      <point x="146" y="-52"/>
      <point x="295" y="121"/>
      <point x="295" y="358" type="curve" smooth="yes"/>
      <point x="295" y="477"/>
      <point x="248" y="587"/>
      <point x="188" y="678" type="curve"/>
      <point x="140" y="678" type="line"/>
      <point x="176" y="606"/>
      <point x="204" y="520"/>
    </contour>
  </outline>
</glyph>
<glyph name="asterisk" format="2">
  <advance width="598"/>
  <unicode hex="002A"/>
  <outline>
    <contour>
      <point x="355" y="293" type="curve" smooth="yes"/>
      <point x="327" y="293"/>
      <point x="311" y="315"/>
      <point x="311" y="341" type="curve" smooth="yes"/>
      <point x="311" y="351"/>
      <point x="315" y="368"/>
      <point x="324" y="386" type="curve"/>
      <point x="333" y="410"/>
      <point x="338" y="436"/>
      <point x="338" y="462" type="curve" smooth="yes"/>
      <point x="338" y="469"/>
      <point x="337" y="472"/>
      <point x="335" y="472" type="curve"/>
      <point x="333" y="472"/>
      <point x="328" y="470"/>
      <point x="323" y="467" type="curve" smooth="yes"/>
      <point x="301" y="451"/>
      <point x="281" y="435"/>
      <point x="268" y="419" type="curve"/>
      <point x="248" y="391"/>
      <point x="228" y="377"/>
      <point x="208" y="377" type="curve" smooth="yes"/>
      <point x="196" y="377"/>
      <point x="184" y="382"/>
      <point x="176" y="391" type="curve" smooth="yes"/>
      <point x="170" y="398"/>
      <point x="166" y="409"/>
      <point x="166" y="420" type="curve" smooth="yes"/>
      <point x="166" y="448"/>
      <point x="189.021" y="465.831"/>
      <point x="237" y="472" type="curve" smooth="yes"/>
      <point x="259.022" y="474.831"/>
      <point x="284" y="484"/>
      <point x="309" y="498" type="curve"/>
      <point x="314" y="502" type="line" smooth="yes"/>
      <point x="317" y="504"/>
      <point x="318" y="504"/>
      <point x="318" y="505" type="curve"/>
      <point x="318" y="506"/>
      <point x="317" y="506"/>
      <point x="314" y="508" type="curve" smooth="yes"/>
      <point x="309" y="511" type="line"/>
      <point x="284" y="525"/>
      <point x="259.022" y="534.169"/>
      <point x="237" y="537" type="curve" smooth="yes"/>
      <point x="189.021" y="543.169"/>
      <point x="166" y="561"/>
      <point x="166" y="589" type="curve" smooth="yes"/>
      <point x="166" y="600"/>
      <point x="170" y="610"/>
      <point x="176" y="617" type="curve" smooth="yes"/>
      <point x="184" y="627"/>
      <point x="196" y="632"/>
      <point x="208" y="632" type="curve" smooth="yes"/>
      <point x="228" y="632"/>
      <point x="248" y="618"/>
      <point x="268" y="590" type="curve"/>
      <point x="281" y="575"/>
      <point x="301" y="558"/>
      <point x="323" y="542" type="curve" smooth="yes"/>
      <point x="328" y="539"/>
      <point x="333" y="537"/>
      <point x="335" y="537" type="curve"/>
      <point x="337" y="537"/>
      <point x="338" y="540"/>
      <point x="338" y="547" type="curve" smooth="yes"/>
      <point x="338" y="574"/>
      <point x="333" y="599"/>
      <point x="324" y="623" type="curve"/>
      <point x="315" y="642"/>
      <point x="311" y="658"/>
      <point x="311" y="668" type="curve" smooth="yes"/>
      <point x="311" y="698"/>
      <point x="329" y="716"/>
      <point x="355" y="716" type="curve" smooth="yes"/>
      <point x="384" y="716"/>
      <point x="398" y="696"/>
      <point x="398" y="668" type="curve" smooth="yes"/>
      <point x="398" y="658"/>
      <point x="394" y="642"/>
      <point x="386" y="623" type="curve" smooth="yes"/>
      <point x="377" y="599"/>
      <point x="373" y="574"/>
      <point x="373" y="547" type="curve" smooth="yes"/>
      <point x="373" y="540"/>
      <point x="374" y="537"/>
      <point x="376" y="537" type="curve"/>
      <point x="388" y="537"/>
      <point x="433" y="579"/>
      <point x="442" y="590" type="curve" smooth="yes"/>
      <point x="462" y="618"/>
      <point x="483" y="632"/>
      <point x="503" y="632" type="curve" smooth="yes"/>
      <point x="514" y="632"/>
      <point x="525" y="627"/>
      <point x="533" y="617" type="curve" smooth="yes"/>
      <point x="540" y="610"/>
      <point x="545" y="600"/>
      <point x="545" y="589" type="curve" smooth="yes"/>
      <point x="545" y="561"/>
      <point x="521" y="543"/>
      <point x="473" y="537" type="curve" smooth="yes"/>
      <point x="450" y="534"/>
      <point x="426" y="525"/>
      <point x="400" y="511" type="curve"/>
      <point x="395" y="508" type="line" smooth="yes"/>
      <point x="393" y="507"/>
      <point x="392" y="506"/>
      <point x="392" y="505" type="curve"/>
      <point x="392" y="504"/>
      <point x="393" y="503"/>
      <point x="395" y="502" type="curve" smooth="yes"/>
      <point x="400" y="498" type="line"/>
      <point x="426" y="484"/>
      <point x="450" y="475"/>
      <point x="473" y="472" type="curve" smooth="yes"/>
      <point x="521" y="466"/>
      <point x="545" y="448"/>
      <point x="545" y="420" type="curve" smooth="yes"/>
      <point x="545" y="409"/>
      <point x="540" y="398"/>
      <point x="533" y="391" type="curve" smooth="yes"/>
      <point x="525" y="382"/>
      <point x="514" y="377"/>
      <point x="503" y="377" type="curve" smooth="yes"/>
      <point x="483" y="377"/>
      <point x="462" y="391"/>
      <point x="442" y="419" type="curve" smooth="yes"/>
      <point x="433" y="430"/>
      <point x="388" y="472"/>
      <point x="376" y="472" type="curve"/>
      <point x="374" y="472"/>
      <point x="373" y="469"/>
      <point x="373" y="462" type="curve" smooth="yes"/>
      <point x="373" y="436"/>
      <point x="377" y="410"/>
      <point x="386" y="386" type="curve" smooth="yes"/>
      <point x="394" y="368"/>
      <point x="398" y="351"/>
      <point x="398" y="341" type="curve" smooth="yes"/>
      <point x="398" y="311"/>
      <point x="382" y="293"/>
    </contour>
  </outline>
</glyph>
<glyph name="plus" format="2">
  <advance width="594"/>
  <unicode hex="002B"/>
  <outline>
    <contour>
      <point x="313" y="275" type="line"/>
      <point x="313" y="498" type="line"/>
      <point x="263" y="498" type="line"/>
      <point x="263" y="275" type="line"/>
      <point x="40" y="275" type="line"/>
      <point x="40" y="225" type="line"/>
      <point x="263" y="225" type="line"/>
      <point x="263" y="2" type="line"/>
      <point x="313" y="2" type="line"/>
      <point x="313" y="225" type="line"/>
      <point x="536" y="225" type="line"/>
      <point x="536" y="275" type="line"/>
    </contour>
  </outline>
</glyph>
<glyph name="comma" format="2">
  <advance width="252"/>
  <unicode hex="002C"/>
  <outline>
    <contour>
      <point x="59" y="115" type="curve" smooth="yes"/>
      <point x="27" y="124"/>
      <point x="-9" y="102"/>
      <point x="-18" y="70" type="curve" smooth="yes"/>
      <point x="-27" y="35"/>
      <point x="-6" y="1"/>
      <point x="37" y="-10" type="curve" smooth="yes"/>
      <point x="44" y="-12"/>
      <point x="46" y="-19"/>
      <point x="43" y="-30" type="curve" smooth="yes"/>
      <point x="35" y="-61"/>
      <point x="-4" y="-82"/>
      <point x="-51" y="-79" type="curve"/>
      <point x="-54" y="-109" type="line"/>
      <point x="25" y="-121"/>
      <point x="96" y="-68"/>
      <point x="116" y="8" type="curve" smooth="yes"/>
      <point x="130" y="58"/>
      <point x="106" y="103"/>
    </contour>
  </outline>
</glyph>
<glyph name="hyphen" format="2">
  <advance width="370"/>
  <unicode hex="002D"/>
  <outline>
    <contour>
      <point x="66" y="294" type="line"/>
      <point x="38" y="209" type="line"/>
      <point x="288" y="209" type="line"/>
      <point x="316" y="294" type="line"/>
    </contour>
  </outline>
</glyph>
<glyph name="period" format="2">
  <advance width="262"/>
  <unicode hex="002E"/>
  <outline>
    <contour>
      <point x="20" y="59" type="curve" smooth="yes"/>
      <point x="20" y="20"/>
      <point x="51" y="-12"/>
      <point x="90" y="-12" type="curve" smooth="yes"/>
      <point x="129" y="-12"/>
      <point x="160" y="20"/>
      <point x="160" y="59" type="curve" smooth="yes"/>
      <point x="160" y="98"/>
      <point x="129" y="130"/>
      <point x="90" y="130" type="curve" smooth="yes"/>
      <point x="51" y="130"/>
      <point x="20" y="98"/>
    </contour>
  </outline>
</glyph>
<glyph name="slash" format="2">
  <advance width="328"/>
  <unicode hex="002F"/>
  <outline>
    <contour>
      <point x="272" y="692" type="line"/>
      <point x="-2" y="0" type="line"/>
      <point x="65" y="0" type="line"/>
      <point x="339" y="692" type="line"/>
    </contour>
  </outline>
</glyph>
<glyph name="zero" format="2">
  <advance width="590"/>
  <unicode hex="0030"/>
  <outline>
    <contour>
      <point x="406" y="659" type="curve" smooth="yes"/>
      <point x="450" y="659"/>
      <point x="465" y="611"/>
      <point x="465" y="551" type="curve" smooth="yes"/>
      <point x="465" y="491"/>
      <point x="448" y="420"/>
      <point x="433" y="375" type="curve" smooth="yes"/>
      <point x="400" y="270" type="line" smooth="yes"/>
      <point x="349" y="105"/>
      <point x="279" y="21"/>
      <point x="224" y="21" type="curve" smooth="yes"/>
      <point x="177" y="21"/>
      <point x="161" y="70"/>
      <point x="161" y="130" type="curve" smooth="yes"/>
      <point x="161" y="189"/>
      <point x="178" y="258"/>
      <point x="193" y="303" type="curve" smooth="yes"/>
      <point x="228" y="408" type="line" smooth="yes"/>
      <point x="281" y="573"/>
      <point x="351" y="659"/>
    </contour>
    <contour>
      <point x="50" y="217" type="curve" smooth="yes"/>
      <point x="50" y="88"/>
      <point x="108" y="-12"/>
      <point x="227" y="-12" type="curve" smooth="yes"/>
      <point x="386" y="-12"/>
      <point x="580" y="218"/>
      <point x="580" y="461" type="curve" smooth="yes"/>
      <point x="580" y="587"/>
      <point x="522" y="692"/>
      <point x="405" y="692" type="curve" smooth="yes"/>
      <point x="244" y="692"/>
      <point x="50" y="458"/>
    </contour>
  </outline>
</glyph>
<glyph name="one" format="2">
  <advance width="445"/>
  <unicode hex="0031"/>
  <outline>
    <contour>
      <point x="351" y="680" type="line"/>
      <point x="296" y="630"/>
      <point x="249" y="585"/>
      <point x="164" y="585" type="curve" smooth="yes"/>
      <point x="157" y="585"/>
      <point x="135" y="586"/>
      <point x="128" y="587" type="curve"/>
      <point x="121" y="556" type="line"/>
      <point x="137" y="553"/>
      <point x="147" y="553"/>
      <point x="158" y="553" type="curve"/>
      <point x="187" y="552"/>
      <point x="232" y="550"/>
      <point x="232" y="521" type="curve" smooth="yes"/>
      <point x="232" y="518"/>
      <point x="232" y="515"/>
      <point x="232" y="514" type="curve"/>
      <point x="119" y="121" type="line" smooth="yes"/>
      <point x="95" y="37"/>
      <point x="92" y="35"/>
      <point x="71" y="35" type="curve" smooth="yes"/>
      <point x="5" y="35" type="line"/>
      <point x="5" y="0" type="line"/>
      <point x="332" y="0" type="line"/>
      <point x="332" y="35" type="line"/>
      <point x="266" y="35" type="line" smooth="yes"/>
      <point x="263" y="35"/>
      <point x="260" y="35"/>
      <point x="257" y="35" type="curve" smooth="yes"/>
      <point x="244" y="35"/>
      <point x="235" y="36"/>
      <point x="235" y="61" type="curve" smooth="yes"/>
      <point x="235" y="70"/>
      <point x="236" y="82"/>
      <point x="240" y="95" type="curve" smooth="yes"/>
      <point x="404" y="680" type="line"/>
    </contour>
  </outline>
</glyph>
<glyph name="two" format="2">
  <advance width="556"/>
  <unicode hex="0032"/>
  <outline>
    <contour>
      <point x="250" y="584" type="curve" smooth="yes"/>
      <point x="243" y="587"/>
      <point x="238" y="596"/>
      <point x="238" y="605" type="curve" smooth="yes"/>
      <point x="238" y="641"/>
      <point x="312" y="655"/>
      <point x="339" y="655" type="curve" smooth="yes"/>
      <point x="411" y="655"/>
      <point x="441" y="598"/>
      <point x="441" y="533" type="curve" smooth="yes"/>
      <point x="441" y="423"/>
      <point x="347" y="368"/>
      <point x="268" y="310" type="curve" smooth="yes"/>
      <point x="157" y="229"/>
      <point x="20" y="136"/>
      <point x="-29" y="2" type="curve"/>
      <point x="22" y="-15" type="line"/>
      <point x="37" y="18"/>
      <point x="65" y="64"/>
      <point x="107" y="64" type="curve" smooth="yes"/>
      <point x="153" y="64"/>
      <point x="194" y="-12"/>
      <point x="290" y="-12" type="curve" smooth="yes"/>
      <point x="395" y="-12"/>
      <point x="463" y="83"/>
      <point x="471" y="180" type="curve"/>
      <point x="420" y="190" type="line"/>
      <point x="403" y="137"/>
      <point x="380" y="82"/>
      <point x="316" y="82" type="curve" smooth="yes"/>
      <point x="245" y="82"/>
      <point x="203" y="153"/>
      <point x="125" y="137" type="curve"/>
      <point x="185" y="203"/>
      <point x="262" y="247"/>
      <point x="340" y="288" type="curve" smooth="yes"/>
      <point x="441" y="341"/>
      <point x="562" y="399"/>
      <point x="562" y="530" type="curve" smooth="yes"/>
      <point x="562" y="640"/>
      <point x="455" y="692"/>
      <point x="358" y="692" type="curve" smooth="yes"/>
      <point x="271" y="692"/>
      <point x="137" y="636"/>
      <point x="137" y="533" type="curve" smooth="yes"/>
      <point x="137" y="483"/>
      <point x="171" y="442"/>
      <point x="223" y="442" type="curve" smooth="yes"/>
      <point x="265" y="442"/>
      <point x="304" y="470"/>
      <point x="304" y="515" type="curve" smooth="yes"/>
      <point x="304" y="547"/>
      <point x="278.847" y="571.637"/>
    </contour>
  </outline>
</glyph>
<glyph name="three" format="2">
  <advance width="568"/>
  <unicode hex="0033"/>
  <outline>
    <contour>
      <point x="352" y="345" type="curve"/>
      <point x="352" y="354" type="line"/>
      <point x="468" y="362"/>
      <point x="581" y="433"/>
      <point x="581" y="538" type="curve" smooth="yes"/>
      <point x="581" y="628"/>
      <point x="486" y="692"/>
      <point x="382" y="692" type="curve" smooth="yes"/>
      <point x="283" y="692"/>
      <point x="177" y="641"/>
      <point x="177" y="570" type="curve" smooth="yes"/>
      <point x="177" y="533"/>
      <point x="202" y="499"/>
      <point x="251" y="499" type="curve" smooth="yes"/>
      <point x="299" y="499"/>
      <point x="332" y="528"/>
      <point x="332" y="563" type="curve" smooth="yes"/>
      <point x="332" y="580"/>
      <point x="322" y="597"/>
      <point x="307" y="610" type="curve" smooth="yes"/>
      <point x="302" y="615"/>
      <point x="299" y="621"/>
      <point x="299" y="629" type="curve" smooth="yes"/>
      <point x="299" y="655"/>
      <point x="346" y="658"/>
      <point x="364" y="658" type="curve" smooth="yes"/>
      <point x="415" y="658"/>
      <point x="458" y="622"/>
      <point x="458" y="558" type="curve" smooth="yes"/>
      <point x="458" y="425"/>
      <point x="382" y="380"/>
      <point x="270" y="380" type="curve" smooth="yes"/>
      <point x="255" y="380"/>
      <point x="234" y="381"/>
      <point x="210" y="383" type="curve"/>
      <point x="203" y="354" type="line"/>
      <point x="291" y="343"/>
      <point x="353" y="286"/>
      <point x="353" y="206" type="curve" smooth="yes"/>
      <point x="353" y="100"/>
      <point x="287" y="26"/>
      <point x="208" y="26" type="curve" smooth="yes"/>
      <point x="186" y="26"/>
      <point x="120" y="36"/>
      <point x="120" y="67" type="curve" smooth="yes"/>
      <point x="120" y="78"/>
      <point x="128" y="86"/>
      <point x="138" y="90" type="curve"/>
      <point x="137" y="90" type="line"/>
      <point x="173" y="103"/>
      <point x="193" y="131"/>
      <point x="193" y="162" type="curve" smooth="yes"/>
      <point x="193" y="204"/>
      <point x="151" y="236"/>
      <point x="105" y="236" type="curve" smooth="yes"/>
      <point x="61" y="236"/>
      <point x="15" y="208"/>
      <point x="15" y="146" type="curve" smooth="yes"/>
      <point x="15" y="58"/>
      <point x="104" y="-12"/>
      <point x="234" y="-12" type="curve" smooth="yes"/>
      <point x="402" y="-12"/>
      <point x="483" y="91"/>
      <point x="483" y="181" type="curve" smooth="yes"/>
      <point x="483" y="247"/>
      <point x="427" y="321"/>
    </contour>
  </outline>
</glyph>
<glyph name="four" format="2">
  <advance width="577"/>
  <unicode hex="0034"/>
  <outline>
    <contour>
      <point x="367" y="85" type="curve" smooth="yes"/>
      <point x="377" y="121"/>
      <point x="387" y="157"/>
      <point x="397" y="193" type="curve"/>
      <point x="535" y="193" type="line"/>
      <point x="547" y="230" type="line"/>
      <point x="409" y="230" type="line"/>
      <point x="474" y="459" type="line"/>
      <point x="475" y="462"/>
      <point x="467" y="464"/>
      <point x="460" y="464" type="curve" smooth="yes"/>
      <point x="454" y="464"/>
      <point x="448" y="462"/>
      <point x="445" y="460" type="curve" smooth="yes"/>
      <point x="320" y="350" type="line"/>
      <point x="285" y="230" type="line"/>
      <point x="104" y="230" type="line"/>
      <point x="150" y="287"/>
      <point x="196" y="334"/>
      <point x="242" y="382" type="curve" smooth="yes"/>
      <point x="323" y="466"/>
      <point x="409" y="556"/>
      <point x="494" y="680" type="curve"/>
      <point x="328" y="680" type="line"/>
      <point x="258" y="525"/>
      <point x="157" y="375"/>
      <point x="43" y="233" type="curve"/>
      <point x="30" y="193" type="line"/>
      <point x="274" y="193" type="line"/>
      <point x="243" y="85" type="line" smooth="yes"/>
      <point x="233" y="50"/>
      <point x="217" y="35"/>
      <point x="189" y="35" type="curve" smooth="yes"/>
      <point x="124" y="35" type="line"/>
      <point x="114" y="0" type="line"/>
      <point x="457" y="0" type="line"/>
      <point x="467" y="35" type="line"/>
      <point x="392" y="35" type="line" smooth="yes"/>
      <point x="373" y="35"/>
      <point x="364" y="44"/>
      <point x="364" y="63" type="curve" smooth="yes"/>
      <point x="364" y="70"/>
      <point x="365" y="77"/>
    </contour>
  </outline>
</glyph>
<glyph name="five" format="2">
  <advance width="568"/>
  <unicode hex="0035"/>
  <outline>
    <contour>
      <point x="132" y="58" type="curve" smooth="yes"/>
      <point x="132" y="68"/>
      <point x="138" y="78"/>
      <point x="150" y="86" type="curve" smooth="yes"/>
      <point x="176" y="102"/>
      <point x="189" y="127"/>
      <point x="189" y="149" type="curve" smooth="yes"/>
      <point x="189" y="190"/>
      <point x="155" y="220"/>
      <point x="108" y="220" type="curve" smooth="yes"/>
      <point x="62" y="220"/>
      <point x="20" y="187"/>
      <point x="20" y="137" type="curve" smooth="yes"/>
      <point x="20" y="56"/>
      <point x="97" y="-12"/>
      <point x="217" y="-12" type="curve" smooth="yes"/>
      <point x="377" y="-12"/>
      <point x="501" y="97"/>
      <point x="501" y="237" type="curve" smooth="yes"/>
      <point x="501" y="345"/>
      <point x="428" y="410"/>
      <point x="321" y="410" type="curve" smooth="yes"/>
      <point x="294" y="410"/>
      <point x="241" y="405"/>
      <point x="204" y="391" type="curve"/>
      <point x="266" y="579" type="line"/>
      <point x="297" y="575"/>
      <point x="328" y="573"/>
      <point x="357" y="573" type="curve" smooth="yes"/>
      <point x="460" y="573"/>
      <point x="546" y="598"/>
      <point x="567" y="662" type="curve"/>
      <point x="568" y="667"/>
      <point x="568" y="668"/>
      <point x="568" y="669" type="curve"/>
      <point x="568" y="674"/>
      <point x="564" y="676"/>
      <point x="549" y="676" type="curve" smooth="yes"/>
      <point x="545" y="676" type="line"/>
      <point x="518" y="673"/>
      <point x="483" y="672"/>
      <point x="448" y="672" type="curve" smooth="yes"/>
      <point x="376" y="672"/>
      <point x="293" y="678"/>
      <point x="243" y="687" type="curve"/>
      <point x="139" y="362" type="line"/>
      <point x="165" y="337" type="line"/>
      <point x="203" y="356"/>
      <point x="253" y="373"/>
      <point x="291" y="373" type="curve" smooth="yes"/>
      <point x="356" y="373"/>
      <point x="377" y="319"/>
      <point x="377" y="248" type="curve" smooth="yes"/>
      <point x="377" y="134"/>
      <point x="305" y="24"/>
      <point x="208" y="24" type="curve" smooth="yes"/>
      <point x="180" y="24"/>
      <point x="132" y="32"/>
    </contour>
  </outline>
</glyph>
<glyph name="seven" format="2">
  <advance width="520"/>
  <unicode hex="0037"/>
  <outline>
    <contour>
      <point x="473" y="543" type="line"/>
      <point x="408" y="419"/>
      <point x="333" y="340"/>
      <point x="258" y="264" type="curve" smooth="yes"/>
      <point x="188" y="191"/>
      <point x="119" y="120"/>
      <point x="65" y="26" type="curve" smooth="yes"/>
      <point x="59" y="15"/>
      <point x="56" y="9"/>
      <point x="56" y="7" type="curve"/>
      <point x="56" y="1"/>
      <point x="65" y="0"/>
      <point x="85" y="0" type="curve" smooth="yes"/>
      <point x="233" y="0" type="line"/>
      <point x="288" y="152"/>
      <point x="355" y="253"/>
      <point x="420" y="351" type="curve" smooth="yes"/>
      <point x="488" y="454"/>
      <point x="554" y="554"/>
      <point x="600" y="692" type="curve"/>
      <point x="541" y="692" type="line"/>
      <point x="527" y="664"/>
      <point x="504" y="637"/>
      <point x="461" y="637" type="curve" smooth="yes"/>
      <point x="427" y="637"/>
      <point x="407" y="646"/>
      <point x="387" y="656" type="curve" smooth="yes"/>
      <point x="369" y="664"/>
      <point x="351" y="672"/>
      <point x="317" y="672" type="curve" smooth="yes"/>
      <point x="286" y="672"/>
      <point x="265" y="663"/>
      <point x="248" y="655" type="curve" smooth="yes"/>
      <point x="238" y="651"/>
      <point x="229" y="647"/>
      <point x="226" y="647" type="curve"/>
      <point x="225" y="647"/>
      <point x="224" y="653"/>
      <point x="224" y="661" type="curve" smooth="yes"/>
      <point x="224" y="673"/>
      <point x="228" y="684"/>
      <point x="231" y="692" type="curve"/>
      <point x="172" y="692" type="line"/>
      <point x="94" y="452" type="line"/>
      <point x="153" y="452" type="line"/>
      <point x="185" y="546"/>
      <point x="219" y="575"/>
      <point x="272" y="575" type="curve" smooth="yes"/>
      <point x="293" y="575"/>
      <point x="315" y="566"/>
      <point x="337" y="557" type="curve" smooth="yes"/>
      <point x="362" y="547"/>
      <point x="387" y="536"/>
      <point x="423" y="536" type="curve" smooth="yes"/>
      <point x="450" y="536"/>
      <point x="472" y="542"/>
      <point x="494" y="555" type="curve"/>
    </contour>
  </outline>
</glyph>
<glyph name="eight" format="2">
  <advance width="615"/>
  <unicode hex="0038"/>
  <outline>
    <contour>
      <point x="20" y="163" type="curve" smooth="yes"/>
      <point x="20" y="45"/>
      <point x="156" y="-12"/>
      <point x="256" y="-12" type="curve" smooth="yes"/>
      <point x="363" y="-12"/>
      <point x="534" y="57"/>
      <point x="534" y="185" type="curve" smooth="yes"/>
      <point x="534" y="260"/>
      <point x="488" y="310"/>
      <point x="433" y="355" type="curve"/>
      <point x="521" y="377"/>
      <point x="625" y="439"/>
      <point x="625" y="541" type="curve" smooth="yes"/>
      <point x="625" y="642"/>
      <point x="510" y="692"/>
      <point x="424" y="692" type="curve" smooth="yes"/>
      <point x="317" y="692"/>
      <point x="182" y="632"/>
      <point x="182" y="508" type="curve" smooth="yes"/>
      <point x="182" y="455"/>
      <point x="220" y="403"/>
      <point x="254" y="365" type="curve"/>
      <point x="160" y="343"/>
      <point x="20" y="277"/>
    </contour>
    <contour>
      <point x="399" y="381" type="curve"/>
      <point x="344" y="411"/>
      <point x="299" y="480"/>
      <point x="299" y="543" type="curve" smooth="yes"/>
      <point x="299" y="613"/>
      <point x="350" y="657"/>
      <point x="418" y="657" type="curve" smooth="yes"/>
      <point x="487" y="657"/>
      <point x="524" y="592"/>
      <point x="524" y="530" type="curve" smooth="yes"/>
      <point x="524" y="451"/>
      <point x="478" y="395"/>
    </contour>
    <contour>
      <point x="279" y="336" type="curve"/>
      <point x="336" y="287"/>
      <point x="407" y="241"/>
      <point x="407" y="156" type="curve" smooth="yes"/>
      <point x="407" y="77"/>
      <point x="329" y="25"/>
      <point x="256" y="25" type="curve" smooth="yes"/>
      <point x="174" y="25"/>
      <point x="126" y="79"/>
      <point x="126" y="159" type="curve" smooth="yes"/>
      <point x="126" y="247"/>
      <point x="198" y="315"/>
    </contour>
  </outline>
</glyph>
<glyph name="nine" format="2">
  <advance width="587"/>
  <unicode hex="0039"/>
  <outline>
    <contour>
      <point x="180" y="109" type="curve" smooth="yes"/>
      <point x="180" y="146"/>
      <point x="152" y="173"/>
      <point x="107" y="173" type="curve" smooth="yes"/>
      <point x="63" y="173"/>
      <point x="21" y="141"/>
      <point x="21" y="91" type="curve" smooth="yes"/>
      <point x="21" y="29"/>
      <point x="92" y="-12"/>
      <point x="177" y="-12" type="curve" smooth="yes"/>
      <point x="375" y="-12"/>
      <point x="571" y="282"/>
      <point x="571" y="488" type="curve" smooth="yes"/>
      <point x="571" y="605"/>
      <point x="512" y="692"/>
      <point x="374" y="692" type="curve" smooth="yes"/>
      <point x="240" y="692"/>
      <point x="118" y="574"/>
      <point x="118" y="425" type="curve" smooth="yes"/>
      <point x="118" y="333"/>
      <point x="177" y="267"/>
      <point x="280" y="267" type="curve" smooth="yes"/>
      <point x="329" y="267"/>
      <point x="366" y="277"/>
      <point x="403" y="297" type="curve"/>
      <point x="362" y="171"/>
      <point x="278" y="23"/>
      <point x="174" y="23" type="curve" smooth="yes"/>
      <point x="161" y="23"/>
      <point x="154" y="32"/>
      <point x="154" y="42" type="curve" smooth="yes"/>
      <point x="154" y="48"/>
      <point x="155" y="53"/>
      <point x="158" y="56" type="curve" smooth="yes"/>
      <point x="176" y="76"/>
      <point x="180" y="93"/>
    </contour>
    <contour>
      <point x="236" y="411" type="curve" smooth="yes"/>
      <point x="236" y="528"/>
      <point x="297" y="653"/>
      <point x="387" y="653" type="curve" smooth="yes"/>
      <point x="443" y="653"/>
      <point x="463" y="593"/>
      <point x="463" y="532" type="curve" smooth="yes"/>
      <point x="463" y="506"/>
      <point x="459" y="480"/>
      <point x="453" y="460" type="curve" smooth="yes"/>
      <point x="434" y="395" type="line" smooth="yes"/>
      <point x="418" y="340"/>
      <point x="354" y="312"/>
      <point x="310" y="312" type="curve" smooth="yes"/>
      <point x="260" y="312"/>
      <point x="236" y="358"/>
    </contour>
  </outline>
</glyph>
<glyph name="colon" format="2">
  <advance width="282"/>
  <unicode hex="003A"/>
  <outline>
    <contour>
      <point x="80" y="390" type="curve" smooth="yes"/>
      <point x="80" y="351"/>
      <point x="116" y="319"/>
      <point x="161" y="319" type="curve" smooth="yes"/>
      <point x="206" y="319"/>
      <point x="242" y="351"/>
      <point x="242" y="390" type="curve" smooth="yes"/>
      <point x="242" y="429"/>
      <point x="206" y="461"/>
      <point x="161" y="461" type="curve" smooth="yes"/>
      <point x="116" y="461"/>
      <point x="80" y="429"/>
    </contour>
    <contour>
      <point x="0" y="59" type="curve" smooth="yes"/>
      <point x="0" y="20"/>
      <point x="36" y="-12"/>
      <point x="81" y="-12" type="curve" smooth="yes"/>
      <point x="126" y="-12"/>
      <point x="162" y="20"/>
      <point x="162" y="59" type="curve" smooth="yes"/>
      <point x="162" y="98"/>
      <point x="126" y="130"/>
      <point x="81" y="130" type="curve" smooth="yes"/>
      <point x="36" y="130"/>
      <point x="0" y="98"/>
    </contour>
  </outline>
</glyph>
<glyph name="semicolon" format="2">
  <advance width="330"/>
  <unicode hex="003B"/>
  <outline>
    <component base="period" xScale="0.9659" xyScale="-0.2588" yxScale="0.2588" yScale="0.9659" xOffset="52" yOffset="335"/>
    <contour>
      <point x="114" y="132" type="curve" smooth="yes"/>
      <point x="82" y="141"/>
      <point x="45" y="118"/>
      <point x="37" y="87" type="curve" smooth="yes"/>
      <point x="28" y="52"/>
      <point x="49" y="18"/>
      <point x="92" y="7" type="curve" smooth="yes"/>
      <point x="99" y="5"/>
      <point x="101" y="-2"/>
      <point x="98" y="-14" type="curve" smooth="yes"/>
      <point x="90" y="-45"/>
      <point x="51" y="-65"/>
      <point x="4" y="-62" type="curve"/>
      <point x="1" y="-92" type="line"/>
      <point x="80" y="-104"/>
      <point x="150" y="-52"/>
      <point x="171" y="25" type="curve" smooth="yes"/>
      <point x="184" y="75"/>
      <point x="161" y="120"/>
    </contour>
  </outline>
</glyph>
<glyph name="less" format="2">
  <advance width="859"/>
  <unicode hex="003C"/>
  <outline>
    <contour>
      <point x="653" y="-50" type="line"/>
      <point x="677" y="-7" type="line"/>
      <point x="160" y="279" type="line"/>
      <point x="677" y="564" type="line"/>
      <point x="653" y="607" type="line"/>
      <point x="86" y="294" type="line"/>
      <point x="86" y="263" type="line"/>
    </contour>
  </outline>
</glyph>
<glyph name="equal" format="2">
  <advance width="576"/>
  <unicode hex="003D"/>
  <outline>
    <contour>
      <point x="63" y="190" type="line"/>
      <point x="63" y="140" type="line"/>
      <point x="513" y="140" type="line"/>
      <point x="513" y="190" type="line"/>
    </contour>
    <contour>
      <point x="63" y="360" type="line"/>
      <point x="63" y="310" type="line"/>
      <point x="513" y="310" type="line"/>
      <point x="513" y="360" type="line"/>
    </contour>
  </outline>
</glyph>
<glyph name="greater" format="2">
  <advance width="775"/>
  <unicode hex="003E"/>
  <outline>
    <contour>
      <point x="147" y="-50" type="line"/>
      <point x="123" y="-8" type="line"/>
      <point x="641" y="279" type="line"/>
      <point x="123" y="565" type="line"/>
      <point x="147" y="607" type="line"/>
      <point x="715" y="294" type="line"/>
      <point x="715" y="263" type="line"/>
    </contour>
  </outline>
</glyph>
<glyph name="question" format="2">
  <advance width="436"/>
  <unicode hex="003F"/>
  <outline>
    <contour>
      <point x="109" y="61" type="curve" smooth="yes"/>
      <point x="109" y="24"/>
      <point x="139" y="-7"/>
      <point x="177" y="-7" type="curve" smooth="yes"/>
      <point x="214" y="-7"/>
      <point x="244" y="24"/>
      <point x="244" y="61" type="curve" smooth="yes"/>
      <point x="244" y="97"/>
      <point x="214" y="128"/>
      <point x="177" y="128" type="curve" smooth="yes"/>
      <point x="139" y="128"/>
      <point x="109" y="97"/>
    </contour>
    <contour>
      <point x="251" y="218" type="curve" smooth="yes"/>
      <point x="223" y="218"/>
      <point x="210" y="239"/>
      <point x="210" y="268" type="curve" smooth="yes"/>
      <point x="210" y="324"/>
      <point x="316" y="388"/>
      <point x="358" y="430" type="curve" smooth="yes"/>
      <point x="422" y="487"/>
      <point x="466" y="527"/>
      <point x="466" y="590" type="curve" smooth="yes"/>
      <point x="466" y="656"/>
      <point x="402" y="692"/>
      <point x="335" y="692" type="curve" smooth="yes"/>
      <point x="252" y="692"/>
      <point x="189" y="645"/>
      <point x="177" y="574" type="curve"/>
      <point x="221" y="561" type="line"/>
      <point x="233" y="630"/>
      <point x="285" y="655"/>
      <point x="319" y="655" type="curve" smooth="yes"/>
      <point x="350" y="655"/>
      <point x="374" y="631"/>
      <point x="374" y="605" type="curve" smooth="yes"/>
      <point x="374" y="559"/>
      <point x="326" y="517"/>
      <point x="257" y="463" type="curve" smooth="yes"/>
      <point x="183" y="405"/>
      <point x="138" y="354"/>
      <point x="138" y="291" type="curve" smooth="yes"/>
      <point x="138" y="233"/>
      <point x="183" y="190"/>
      <point x="242" y="190" type="curve" smooth="yes"/>
      <point x="302" y="190"/>
      <point x="352" y="223"/>
      <point x="374" y="270" type="curve"/>
      <point x="336" y="288" type="line"/>
      <point x="317" y="251"/>
      <point x="282" y="218"/>
    </contour>
  </outline>
</glyph>
<glyph name="at" format="2">
  <advance width="850"/>
  <unicode hex="0040"/>
  <outline>
    <contour>
      <point x="408" y="-148" type="curve" smooth="yes"/>
      <point x="493" y="-148"/>
      <point x="556" y="-119"/>
      <point x="597" y="-90" type="curve"/>
      <point x="582" y="-68" type="line"/>
      <point x="527" y="-104"/>
      <point x="472" y="-122"/>
      <point x="417" y="-122" type="curve" smooth="yes"/>
      <point x="228" y="-122"/>
      <point x="114" y="-5"/>
      <point x="114" y="182" type="curve" smooth="yes"/>
      <point x="114" y="311"/>
      <point x="170" y="421"/>
      <point x="261" y="481" type="curve" smooth="yes"/>
      <point x="306" y="511"/>
      <point x="355" y="525"/>
      <point x="409" y="525" type="curve" smooth="yes"/>
      <point x="583" y="525"/>
      <point x="696" y="419"/>
      <point x="696" y="240" type="curve" smooth="yes"/>
      <point x="696" y="170"/>
      <point x="681" y="97"/>
      <point x="635" y="49" type="curve" smooth="yes"/>
      <point x="612" y="26"/>
      <point x="581" y="14"/>
      <point x="542" y="14" type="curve" smooth="yes"/>
      <point x="525" y="14"/>
      <point x="509" y="35"/>
      <point x="509" y="69" type="curve" smooth="yes"/>
      <point x="509" y="80"/>
      <point x="511" y="94"/>
      <point x="515" y="109" type="curve" smooth="yes"/>
      <point x="594" y="399" type="line"/>
      <point x="526" y="399" type="line"/>
      <point x="516" y="359" type="line"/>
      <point x="511" y="359" type="line"/>
      <point x="509" y="369"/>
      <point x="501" y="381"/>
      <point x="488" y="393" type="curve" smooth="yes"/>
      <point x="476" y="405"/>
      <point x="461" y="410"/>
      <point x="445" y="410" type="curve" smooth="yes"/>
      <point x="392" y="410"/>
      <point x="332" y="382"/>
      <point x="280" y="319" type="curve" smooth="yes"/>
      <point x="239" y="271"/>
      <point x="217" y="186"/>
      <point x="217" y="107" type="curve" smooth="yes"/>
      <point x="217" y="69"/>
      <point x="228" y="41"/>
      <point x="249" y="21" type="curve" smooth="yes"/>
      <point x="270" y="1"/>
      <point x="294" y="-9"/>
      <point x="322" y="-9" type="curve" smooth="yes"/>
      <point x="347" y="-9"/>
      <point x="369" y="-1"/>
      <point x="389" y="15" type="curve" smooth="yes"/>
      <point x="408" y="30"/>
      <point x="424" y="46"/>
      <point x="435" y="62" type="curve"/>
      <point x="439" y="61" type="line"/>
      <point x="444" y="17"/>
      <point x="480" y="-9"/>
      <point x="528" y="-9" type="curve" smooth="yes"/>
      <point x="620" y="-9"/>
      <point x="686" y="47"/>
      <point x="718" y="118" type="curve" smooth="yes"/>
      <point x="734" y="154"/>
      <point x="742" y="187"/>
      <point x="742" y="221" type="curve" smooth="yes"/>
      <point x="742" y="345"/>
      <point x="690" y="450"/>
      <point x="593" y="508" type="curve" smooth="yes"/>
      <point x="544" y="537"/>
      <point x="486" y="552"/>
      <point x="417" y="552" type="curve" smooth="yes"/>
      <point x="354" y="552"/>
      <point x="296" y="536"/>
      <point x="243" y="504" type="curve" smooth="yes"/>
      <point x="189" y="472"/>
      <point x="147" y="430"/>
      <point x="116" y="377" type="curve" smooth="yes"/>
      <point x="85" y="323"/>
      <point x="69" y="264"/>
      <point x="69" y="201" type="curve" smooth="yes"/>
      <point x="69" y="-6"/>
      <point x="197" y="-148"/>
    </contour>
    <contour>
      <point x="326" y="14" type="curve" smooth="yes"/>
      <point x="303" y="14"/>
      <point x="281" y="39"/>
      <point x="281" y="77" type="curve" smooth="yes"/>
      <point x="281" y="111"/>
      <point x="285" y="146"/>
      <point x="292" y="184" type="curve" smooth="yes"/>
      <point x="299" y="221"/>
      <point x="308" y="251"/>
      <point x="320" y="275" type="curve"/>
      <point x="357" y="356"/>
      <point x="394" y="388"/>
      <point x="445" y="388" type="curve" smooth="yes"/>
      <point x="475" y="388"/>
      <point x="494" y="344"/>
      <point x="494" y="296" type="curve" smooth="yes"/>
      <point x="494" y="284"/>
      <point x="492" y="273"/>
      <point x="489" y="261" type="curve" smooth="yes"/>
      <point x="468" y="182" type="line" smooth="yes"/>
      <point x="456" y="135"/>
      <point x="437" y="96"/>
      <point x="412" y="63" type="curve" smooth="yes"/>
      <point x="387" y="30"/>
      <point x="358" y="14"/>
    </contour>
  </outline>
</glyph>
<glyph name="A" format="2">
  <advance width="685"/>
  <unicode hex="0041"/>
  <anchor x="448" y="694" name="t.asciicircum_1"/>
  <outline>
    <contour>
      <point x="216" y="258" type="line"/>
      <point x="375" y="527" type="line"/>
      <point x="408" y="258" type="line"/>
    </contour>
    <contour>
      <point x="190" y="213" type="line"/>
      <point x="413" y="213" type="line"/>
      <point x="425" y="94" type="line"/>
      <point x="425" y="55"/>
      <point x="407" y="39"/>
      <point x="375" y="39" type="curve" smooth="yes"/>
      <point x="333" y="39" type="line"/>
      <point x="323" y="0" type="line"/>
      <point x="645" y="0" type="line"/>
      <point x="654" y="39" type="line"/>
      <point x="604" y="39" type="line" smooth="yes"/>
      <point x="581" y="39"/>
      <point x="564" y="53"/>
      <point x="557" y="110" type="curve" smooth="yes"/>
      <point x="485" y="692" type="line"/>
      <point x="411" y="692" type="line"/>
      <point x="76" y="122" type="line" smooth="yes"/>
      <point x="32" y="45"/>
      <point x="-1" y="39"/>
      <point x="-30" y="39" type="curve" smooth="yes"/>
      <point x="-69" y="39" type="line"/>
      <point x="-79" y="0" type="line"/>
      <point x="203" y="0" type="line"/>
      <point x="213" y="39" type="line"/>
      <point x="170" y="39" type="line" smooth="yes"/>
      <point x="141" y="39"/>
      <point x="105" y="43"/>
      <point x="108" y="66" type="curve" smooth="yes"/>
      <point x="110" y="79"/>
      <point x="122" y="96"/>
      <point x="134" y="117" type="curve" smooth="yes"/>
    </contour>
  </outline>
</glyph>
<glyph name="B" format="2">
  <advance width="671"/>
  <unicode hex="0042"/>
  <outline>
    <contour>
      <point x="299" y="388" type="line"/>
      <point x="359" y="599" type="line" smooth="yes"/>
      <point x="369" y="634"/>
      <point x="400" y="635"/>
      <point x="430" y="635" type="curve" smooth="yes"/>
      <point x="474" y="635"/>
      <point x="492" y="599"/>
      <point x="492" y="560" type="curve" smooth="yes"/>
      <point x="492" y="544"/>
      <point x="489" y="528"/>
      <point x="484" y="512" type="curve" smooth="yes"/>
      <point x="461" y="433"/>
      <point x="423" y="388"/>
      <point x="337" y="388" type="curve" smooth="yes"/>
    </contour>
    <contour>
      <point x="476" y="368" type="curve"/>
      <point x="556" y="390"/>
      <point x="632" y="451"/>
      <point x="632" y="540" type="curve" smooth="yes"/>
      <point x="632" y="647"/>
      <point x="517" y="680"/>
      <point x="429" y="680" type="curve" smooth="yes"/>
      <point x="154" y="680" type="line"/>
      <point x="141" y="636" type="line"/>
      <point x="166" y="636"/>
      <point x="232" y="649"/>
      <point x="232" y="612" type="curve" smooth="yes"/>
      <point x="232" y="589"/>
      <point x="98" y="144"/>
      <point x="83" y="90" type="curve" smooth="yes"/>
      <point x="67" y="35"/>
      <point x="39" y="44"/>
      <point x="-9" y="44" type="curve"/>
      <point x="-22" y="0" type="line"/>
      <point x="267" y="0" type="line" smooth="yes"/>
      <point x="405" y="0"/>
      <point x="568" y="31"/>
      <point x="599" y="191" type="curve" smooth="yes"/>
      <point x="601" y="201"/>
      <point x="602" y="211"/>
      <point x="602" y="221" type="curve" smooth="yes"/>
      <point x="602" y="289"/>
      <point x="544" y="358"/>
    </contour>
    <contour>
      <point x="255" y="45" type="curve" smooth="yes"/>
      <point x="239" y="45"/>
      <point x="208" y="52"/>
      <point x="208" y="73" type="curve" smooth="yes"/>
      <point x="208" y="81"/>
      <point x="277" y="317"/>
      <point x="285" y="343" type="curve"/>
      <point x="343" y="343" type="line" smooth="yes"/>
      <point x="416" y="343"/>
      <point x="458" y="315"/>
      <point x="458" y="238" type="curve" smooth="yes"/>
      <point x="458" y="107"/>
      <point x="381" y="45"/>
    </contour>
  </outline>
</glyph>
<glyph name="C" format="2">
  <advance width="621"/>
  <unicode hex="0043"/>
  <anchor x="436" y="714" name="t.asciicircum_1"/>
  <outline>
    <contour>
      <point x="284" y="-12" type="curve" smooth="yes"/>
      <point x="403" y="-12"/>
      <point x="494" y="67"/>
      <point x="556" y="192" type="curve"/>
      <point x="504" y="203" type="line"/>
      <point x="443" y="99"/>
      <point x="383" y="29"/>
      <point x="281" y="29" type="curve" smooth="yes"/>
      <point x="209" y="29"/>
      <point x="187" y="91"/>
      <point x="187" y="166" type="curve" smooth="yes"/>
      <point x="187" y="212"/>
      <point x="196" y="263"/>
      <point x="208" y="306" type="curve" smooth="yes"/>
      <point x="217" y="338"/>
      <point x="226" y="370"/>
      <point x="235" y="402" type="curve" smooth="yes"/>
      <point x="261" y="494"/>
      <point x="326" y="658"/>
      <point x="421" y="658" type="curve" smooth="yes"/>
      <point x="479" y="658"/>
      <point x="537" y="603"/>
      <point x="537" y="486" type="curve" smooth="yes"/>
      <point x="537" y="470"/>
      <point x="536" y="453"/>
      <point x="534" y="436" type="curve"/>
      <point x="597" y="436" type="line"/>
      <point x="671" y="692" type="line"/>
      <point x="615" y="692" type="line"/>
      <point x="604" y="678" type="line"/>
      <point x="600" y="674"/>
      <point x="597" y="669"/>
      <point x="594" y="665" type="curve" smooth="yes"/>
      <point x="581" y="647"/>
      <point x="570" y="633"/>
      <point x="563" y="633" type="curve" smooth="yes"/>
      <point x="558" y="633"/>
      <point x="550" y="638"/>
      <point x="536" y="650" type="curve" smooth="yes"/>
      <point x="514" y="669"/>
      <point x="472" y="692"/>
      <point x="415" y="692" type="curve" smooth="yes"/>
      <point x="261" y="692"/>
      <point x="116" y="536"/>
      <point x="70" y="371" type="curve" smooth="yes"/>
      <point x="57" y="323"/>
      <point x="50" y="278"/>
      <point x="50" y="237" type="curve" smooth="yes"/>
      <point x="50" y="100"/>
      <point x="137" y="-12"/>
    </contour>
  </outline>
</glyph>
<glyph name="D" format="2">
  <advance width="699"/>
  <unicode hex="0044"/>
  <anchor x="436" y="714" name="t.asciicircum_1"/>
  <outline>
    <contour>
      <point x="154" y="680" type="line"/>
      <point x="141" y="636" type="line"/>
      <point x="207" y="636" type="line" smooth="yes"/>
      <point x="224" y="636"/>
      <point x="232" y="629"/>
      <point x="232" y="612" type="curve" smooth="yes"/>
      <point x="232" y="609"/>
      <point x="232" y="605"/>
      <point x="231" y="601" type="curve" smooth="yes"/>
      <point x="83" y="90" type="line" smooth="yes"/>
      <point x="74" y="58"/>
      <point x="59" y="44"/>
      <point x="35" y="44" type="curve" smooth="yes"/>
      <point x="-9" y="44" type="line"/>
      <point x="-22" y="0" type="line"/>
      <point x="261" y="0" type="line" smooth="yes"/>
      <point x="499" y="0"/>
      <point x="689" y="185"/>
      <point x="689" y="421" type="curve" smooth="yes"/>
      <point x="689" y="567"/>
      <point x="601" y="680"/>
      <point x="423" y="680" type="curve" smooth="yes"/>
    </contour>
    <contour>
      <point x="262" y="45" type="curve" smooth="yes"/>
      <point x="255" y="45" type="line" smooth="yes"/>
      <point x="241" y="45"/>
      <point x="213" y="51"/>
      <point x="213" y="72" type="curve" smooth="yes"/>
      <point x="213" y="74"/>
      <point x="213" y="77"/>
      <point x="214" y="78" type="curve"/>
      <point x="363" y="599" type="line" smooth="yes"/>
      <point x="371" y="628"/>
      <point x="411" y="635"/>
      <point x="427" y="635" type="curve" smooth="yes"/>
      <point x="434" y="635" type="line" smooth="yes"/>
      <point x="499" y="635"/>
      <point x="555" y="599"/>
      <point x="555" y="490" type="curve" smooth="yes"/>
      <point x="555" y="449"/>
      <point x="547" y="401"/>
      <point x="529" y="341" type="curve" smooth="yes"/>
      <point x="468" y="126"/>
      <point x="390" y="45"/>
    </contour>
  </outline>
</glyph>
<glyph name="E" format="2">
  <advance width="687"/>
  <unicode hex="0045"/>
  <anchor x="436" y="714" name="t.asciicircum_1"/>
  <outline>
    <contour>
      <point x="154" y="680" type="line"/>
      <point x="141" y="636" type="line"/>
      <point x="168" y="636"/>
      <point x="231" y="650"/>
      <point x="231" y="612" type="curve" smooth="yes"/>
      <point x="231" y="582"/>
      <point x="100" y="149"/>
      <point x="83" y="90" type="curve" smooth="yes"/>
      <point x="67" y="35"/>
      <point x="40" y="44"/>
      <point x="-9" y="44" type="curve"/>
      <point x="-22" y="0" type="line"/>
      <point x="534" y="0" type="line"/>
      <point x="621" y="286" type="line"/>
      <point x="563" y="286" type="line"/>
      <point x="513" y="179"/>
      <point x="440" y="45"/>
      <point x="305" y="45" type="curve" smooth="yes"/>
      <point x="233" y="45" type="line" smooth="yes"/>
      <point x="218" y="45"/>
      <point x="208" y="59"/>
      <point x="208" y="73" type="curve" smooth="yes"/>
      <point x="208" y="86"/>
      <point x="274" y="304"/>
      <point x="282" y="332" type="curve"/>
      <point x="317" y="332" type="line" smooth="yes"/>
      <point x="366" y="332"/>
      <point x="374" y="282"/>
      <point x="374" y="243" type="curve" smooth="yes"/>
      <point x="374" y="219"/>
      <point x="371" y="196"/>
      <point x="366" y="173" type="curve"/>
      <point x="428" y="173" type="line"/>
      <point x="526" y="514" type="line"/>
      <point x="463" y="514" type="line"/>
      <point x="444" y="464"/>
      <point x="405" y="376"/>
      <point x="340" y="376" type="curve" smooth="yes"/>
      <point x="295" y="376" type="line"/>
      <point x="358" y="599" type="line" smooth="yes"/>
      <point x="371" y="644"/>
      <point x="449" y="635"/>
      <point x="480" y="635" type="curve" smooth="yes"/>
      <point x="590" y="635"/>
      <point x="598" y="524"/>
      <point x="591" y="439" type="curve"/>
      <point x="648" y="439" type="line"/>
      <point x="698" y="680" type="line"/>
    </contour>
  </outline>
</glyph>
<glyph name="F" format="2">
  <advance width="640"/>
  <unicode hex="0046"/>
  <outline>
    <contour>
      <point x="-10" y="0" type="line"/>
      <point x="296" y="0" type="line"/>
      <point x="309" y="38" type="line"/>
      <point x="233" y="38" type="line" smooth="yes"/>
      <point x="217" y="38"/>
      <point x="210" y="51"/>
      <point x="210" y="67" type="curve" smooth="yes"/>
      <point x="210" y="93"/>
      <point x="272" y="295"/>
      <point x="284" y="336" type="curve"/>
      <point x="319" y="336" type="line" smooth="yes"/>
      <point x="368" y="336"/>
      <point x="376" y="282"/>
      <point x="376" y="243" type="curve" smooth="yes"/>
      <point x="376" y="219"/>
      <point x="373" y="196"/>
      <point x="368" y="173" type="curve"/>
      <point x="410" y="173" type="line"/>
      <point x="508" y="514" type="line"/>
      <point x="465" y="514" type="line"/>
      <point x="446" y="464"/>
      <point x="407" y="372"/>
      <point x="342" y="372" type="curve" smooth="yes"/>
      <point x="297" y="372" type="line"/>
      <point x="365" y="616" type="line" smooth="yes"/>
      <point x="373" y="644"/>
      <point x="451" y="641"/>
      <point x="482" y="641" type="curve" smooth="yes"/>
      <point x="592" y="641"/>
      <point x="600" y="524"/>
      <point x="593" y="439" type="curve"/>
      <point x="630" y="439" type="line"/>
      <point x="680" y="680" type="line"/>
      <point x="166" y="680" type="line"/>
      <point x="153" y="642" type="line"/>
      <point x="182" y="642"/>
      <point x="233" y="650"/>
      <point x="233" y="612" type="curve" smooth="yes"/>
      <point x="233" y="582"/>
      <point x="102" y="149"/>
      <point x="85" y="90" type="curve" smooth="yes"/>
      <point x="69" y="35"/>
      <point x="53" y="38"/>
      <point x="3" y="38" type="curve"/>
    </contour>
  </outline>
</glyph>
<glyph name="G" format="2">
  <advance width="655"/>
  <unicode hex="0047"/>
  <anchor x="436" y="714" name="t.asciicircum_1"/>
  <outline>
    <contour>
      <point x="539" y="430" type="curve"/>
      <point x="611" y="430" type="line"/>
      <point x="687" y="692" type="line"/>
      <point x="623" y="692" type="line"/>
      <point x="613" y="680"/>
      <point x="582" y="637"/>
      <point x="568" y="637" type="curve" smooth="yes"/>
      <point x="560" y="637"/>
      <point x="499" y="692"/>
      <point x="414" y="692" type="curve" smooth="yes"/>
      <point x="202" y="692"/>
      <point x="49" y="431"/>
      <point x="49" y="239" type="curve" smooth="yes"/>
      <point x="49" y="118"/>
      <point x="122" y="-12"/>
      <point x="256" y="-12" type="curve" smooth="yes"/>
      <point x="330" y="-12"/>
      <point x="369" y="23"/>
      <point x="429" y="57" type="curve"/>
      <point x="436" y="40"/>
      <point x="440" y="8"/>
      <point x="441" y="-12" type="curve"/>
      <point x="498" y="-12" type="line"/>
      <point x="578" y="273" type="line" smooth="yes"/>
      <point x="593" y="326"/>
      <point x="625" y="318"/>
      <point x="671" y="318" type="curve"/>
      <point x="684" y="363" type="line"/>
      <point x="378" y="363" type="line"/>
      <point x="366" y="318" type="line"/>
      <point x="390" y="318"/>
      <point x="455" y="331"/>
      <point x="455" y="295" type="curve" smooth="yes"/>
      <point x="455" y="262"/>
      <point x="437" y="222"/>
      <point x="428" y="191" type="curve" smooth="yes"/>
      <point x="408" y="122"/>
      <point x="349" y="36"/>
      <point x="268" y="36" type="curve" smooth="yes"/>
      <point x="199" y="36"/>
      <point x="187" y="109"/>
      <point x="187" y="163" type="curve" smooth="yes"/>
      <point x="187" y="268"/>
      <point x="278" y="648"/>
      <point x="420" y="648" type="curve" smooth="yes"/>
      <point x="511" y="648"/>
      <point x="543" y="563"/>
      <point x="543" y="485" type="curve" smooth="yes"/>
      <point x="543" y="467"/>
      <point x="542" y="448"/>
    </contour>
  </outline>
</glyph>
<glyph name="H" format="2">
  <advance width="753"/>
  <unicode hex="0048"/>
  <anchor x="492" y="714" name="t.asciicircum_1"/>
  <outline>
    <contour>
      <point x="800" y="642" type="curve"/>
      <point x="813" y="680" type="line"/>
      <point x="536" y="680" type="line"/>
      <point x="523" y="642" type="line"/>
      <point x="554" y="642"/>
      <point x="588" y="650"/>
      <point x="588" y="612" type="curve" smooth="yes"/>
      <point x="588" y="576"/>
      <point x="533" y="410"/>
      <point x="520" y="366" type="curve"/>
      <point x="289" y="366" type="line"/>
      <point x="353" y="590" type="line" smooth="yes"/>
      <point x="369" y="646"/>
      <point x="376" y="642"/>
      <point x="429" y="642" type="curve"/>
      <point x="442" y="680" type="line"/>
      <point x="166" y="680" type="line"/>
      <point x="153" y="642" type="line"/>
      <point x="182" y="642"/>
      <point x="228" y="650"/>
      <point x="228" y="612" type="curve" smooth="yes"/>
      <point x="228" y="605"/>
      <point x="227" y="598"/>
      <point x="225" y="592" type="curve" smooth="yes"/>
      <point x="80" y="90" type="line" smooth="yes"/>
      <point x="64" y="34"/>
      <point x="45" y="38"/>
      <point x="-7" y="38" type="curve"/>
      <point x="-20" y="0" type="line"/>
      <point x="257" y="0" type="line"/>
      <point x="270" y="38" type="line"/>
      <point x="242" y="38"/>
      <point x="206" y="30"/>
      <point x="206" y="67" type="curve" smooth="yes"/>
      <point x="206" y="74"/>
      <point x="207" y="81"/>
      <point x="209" y="88" type="curve" smooth="yes"/>
      <point x="276" y="321" type="line"/>
      <point x="506" y="321" type="line"/>
      <point x="440" y="90" type="line" smooth="yes"/>
      <point x="424" y="34"/>
      <point x="418" y="38"/>
      <point x="364" y="38" type="curve"/>
      <point x="351" y="0" type="line"/>
      <point x="627" y="0" type="line"/>
      <point x="640" y="38" type="line"/>
      <point x="609" y="38"/>
      <point x="567" y="30"/>
      <point x="567" y="67" type="curve" smooth="yes"/>
      <point x="567" y="74"/>
      <point x="567" y="81"/>
      <point x="569" y="88" type="curve" smooth="yes"/>
      <point x="713" y="590" type="line" smooth="yes"/>
      <point x="729" y="646"/>
      <point x="748" y="642"/>
    </contour>
  </outline>
</glyph>
<glyph name="I" format="2">
  <advance width="400"/>
  <unicode hex="0049"/>
  <anchor x="326" y="714" name="t.asciicircum_1"/>
  <outline>
    <contour>
      <point x="462" y="636" type="curve"/>
      <point x="475" y="680" type="line"/>
      <point x="164" y="680" type="line"/>
      <point x="151" y="636" type="line"/>
      <point x="180" y="636"/>
      <point x="236" y="650"/>
      <point x="236" y="612" type="curve" smooth="yes"/>
      <point x="236" y="605"/>
      <point x="235" y="598"/>
      <point x="233" y="592" type="curve" smooth="yes"/>
      <point x="88" y="90" type="line" smooth="yes"/>
      <point x="72" y="34"/>
      <point x="43" y="44"/>
      <point x="-9" y="44" type="curve"/>
      <point x="-22" y="0" type="line"/>
      <point x="290" y="0" type="line"/>
      <point x="303" y="44" type="line"/>
      <point x="273" y="44"/>
      <point x="219" y="30"/>
      <point x="219" y="67" type="curve" smooth="yes"/>
      <point x="219" y="74"/>
      <point x="220" y="81"/>
      <point x="222" y="88" type="curve" smooth="yes"/>
      <point x="366" y="590" type="line" smooth="yes"/>
      <point x="382" y="646"/>
      <point x="408" y="636"/>
    </contour>
  </outline>
</glyph>
<glyph name="J" format="2">
  <advance width="502"/>
  <unicode hex="004A"/>
  <outline>
    <contour>
      <point x="59" y="2" type="curve" smooth="yes"/>
      <point x="59" y="13"/>
      <point x="61" y="27"/>
      <point x="86" y="27" type="curve" smooth="yes"/>
      <point x="109" y="27"/>
      <point x="138" y="54"/>
      <point x="138" y="92" type="curve" smooth="yes"/>
      <point x="138" y="120"/>
      <point x="110" y="154"/>
      <point x="66" y="154" type="curve" smooth="yes"/>
      <point x="10" y="154"/>
      <point x="-20" y="110"/>
      <point x="-20" y="59" type="curve" smooth="yes"/>
      <point x="-20" y="-11"/>
      <point x="32" y="-67"/>
      <point x="121" y="-67" type="curve" smooth="yes"/>
      <point x="282" y="-67"/>
      <point x="349" y="118"/>
      <point x="396" y="282" type="curve" smooth="yes"/>
      <point x="485" y="590" type="line" smooth="yes"/>
      <point x="494" y="622"/>
      <point x="509" y="636"/>
      <point x="534" y="636" type="curve" smooth="yes"/>
      <point x="582" y="636" type="line"/>
      <point x="595" y="680" type="line"/>
      <point x="283" y="680" type="line"/>
      <point x="270" y="636" type="line"/>
      <point x="331" y="636" type="line" smooth="yes"/>
      <point x="348" y="636"/>
      <point x="356" y="629"/>
      <point x="356" y="612" type="curve" smooth="yes"/>
      <point x="356" y="609"/>
      <point x="355" y="605"/>
      <point x="354" y="601" type="curve" smooth="yes"/>
      <point x="297" y="403"/>
      <point x="211" y="-25"/>
      <point x="105" y="-25" type="curve" smooth="yes"/>
      <point x="87" y="-25"/>
      <point x="59" y="-16"/>
    </contour>
  </outline>
</glyph>
<glyph name="K" format="2">
  <advance width="742"/>
  <unicode hex="004B"/>
  <outline>
    <contour>
      <point x="265" y="245" type="line"/>
      <point x="350" y="316" type="line"/>
      <point x="363" y="284"/>
      <point x="446" y="92"/>
      <point x="446" y="72" type="curve" smooth="yes"/>
      <point x="446" y="37"/>
      <point x="408" y="46"/>
      <point x="384" y="46" type="curve"/>
      <point x="372" y="0" type="line"/>
      <point x="666" y="0" type="line"/>
      <point x="679" y="46" type="line"/>
      <point x="638" y="46" type="line" smooth="yes"/>
      <point x="591" y="46"/>
      <point x="584" y="71"/>
      <point x="569" y="109" type="curve" smooth="yes"/>
      <point x="529" y="207"/>
      <point x="489" y="297"/>
      <point x="448" y="395" type="curve"/>
      <point x="682" y="590" type="line" smooth="yes"/>
      <point x="726" y="626"/>
      <point x="753" y="634"/>
      <point x="808" y="634" type="curve"/>
      <point x="822" y="680" type="line"/>
      <point x="530" y="680" type="line"/>
      <point x="516" y="634" type="line"/>
      <point x="530" y="634"/>
      <point x="595" y="642"/>
      <point x="595" y="616" type="curve" smooth="yes"/>
      <point x="595" y="595"/>
      <point x="568" y="571"/>
      <point x="553" y="559" type="curve" smooth="yes"/>
      <point x="465" y="487"/>
      <point x="377" y="414"/>
      <point x="289" y="341" type="curve"/>
      <point x="361" y="590" type="line" smooth="yes"/>
      <point x="377" y="647"/>
      <point x="405" y="636"/>
      <point x="457" y="636" type="curve"/>
      <point x="470" y="680" type="line"/>
      <point x="164" y="680" type="line"/>
      <point x="151" y="636" type="line"/>
      <point x="175" y="636"/>
      <point x="236" y="650"/>
      <point x="236" y="612" type="curve" smooth="yes"/>
      <point x="236" y="582"/>
      <point x="105" y="149"/>
      <point x="88" y="90" type="curve" smooth="yes"/>
      <point x="72" y="34"/>
      <point x="42" y="44"/>
      <point x="-9" y="44" type="curve"/>
      <point x="-22" y="0" type="line"/>
      <point x="285" y="0" type="line"/>
      <point x="298" y="44" type="line"/>
      <point x="275" y="44"/>
      <point x="214" y="30"/>
      <point x="214" y="67" type="curve"/>
    </contour>
  </outline>
</glyph>
<glyph name="L" format="2">
  <advance width="600"/>
  <unicode hex="004C"/>
  <anchor x="328" y="714" name="t.asciicircum_1"/>
  <outline>
    <contour>
      <point x="-20" y="0" type="line"/>
      <point x="483" y="0" type="line"/>
      <point x="582" y="286" type="line"/>
      <point x="544" y="286" type="line"/>
      <point x="539" y="277"/>
      <point x="534" y="268"/>
      <point x="529" y="259" type="curve" smooth="yes"/>
      <point x="468" y="149"/>
      <point x="412" y="39"/>
      <point x="271" y="39" type="curve" smooth="yes"/>
      <point x="243" y="39" type="line" smooth="yes"/>
      <point x="208" y="39"/>
      <point x="205" y="60"/>
      <point x="214" y="87" type="curve" smooth="yes"/>
      <point x="358" y="590" type="line" smooth="yes"/>
      <point x="367" y="622"/>
      <point x="382" y="642"/>
      <point x="407" y="642" type="curve" smooth="yes"/>
      <point x="450" y="642" type="line"/>
      <point x="463" y="680" type="line"/>
      <point x="166" y="680" type="line"/>
      <point x="153" y="642" type="line"/>
      <point x="209" y="642" type="line" smooth="yes"/>
      <point x="226" y="642"/>
      <point x="233" y="629"/>
      <point x="233" y="612" type="curve" smooth="yes"/>
      <point x="233" y="606"/>
      <point x="232" y="599"/>
      <point x="230" y="592" type="curve" smooth="yes"/>
      <point x="85" y="90" type="line" smooth="yes"/>
      <point x="76" y="58"/>
      <point x="61" y="38"/>
      <point x="37" y="38" type="curve" smooth="yes"/>
      <point x="-7" y="38" type="line"/>
    </contour>
  </outline>
</glyph>
<glyph name="M" format="2">
  <advance width="842"/>
  <unicode hex="004D"/>
  <outline>
    <contour>
      <point x="305" y="558" type="curve"/>
      <point x="304" y="1" type="line"/>
      <point x="353" y="1" type="line"/>
      <point x="448" y="167"/>
      <point x="539" y="335"/>
      <point x="644" y="494" type="curve"/>
      <point x="528" y="90" type="line" smooth="yes"/>
      <point x="513" y="37"/>
      <point x="490" y="44"/>
      <point x="442" y="44" type="curve"/>
      <point x="429" y="0" type="line"/>
      <point x="725" y="0" type="line"/>
      <point x="738" y="44" type="line"/>
      <point x="713" y="44"/>
      <point x="653" y="31"/>
      <point x="653" y="68" type="curve" smooth="yes"/>
      <point x="653" y="98"/>
      <point x="783" y="531"/>
      <point x="800" y="590" type="curve" smooth="yes"/>
      <point x="816" y="647"/>
      <point x="848" y="636"/>
      <point x="898" y="636" type="curve"/>
      <point x="910" y="680" type="line"/>
      <point x="686" y="680" type="line"/>
      <point x="603" y="548"/>
      <point x="520" y="416"/>
      <point x="436" y="285" type="curve"/>
      <point x="428" y="680" type="line"/>
      <point x="168" y="680" type="line"/>
      <point x="155" y="636" type="line"/>
      <point x="190" y="636"/>
      <point x="240" y="645"/>
      <point x="240" y="596" type="curve" smooth="yes"/>
      <point x="240" y="582"/>
      <point x="237" y="569"/>
      <point x="233" y="556" type="curve" smooth="yes"/>
      <point x="98" y="90" type="line" smooth="yes"/>
      <point x="81" y="31"/>
      <point x="43" y="44"/>
      <point x="-9" y="44" type="curve"/>
      <point x="-22" y="0" type="line"/>
      <point x="228" y="0" type="line"/>
      <point x="241" y="44" type="line"/>
      <point x="217" y="44"/>
      <point x="167" y="32"/>
      <point x="167" y="68" type="curve" smooth="yes"/>
      <point x="167" y="98"/>
      <point x="288" y="501"/>
    </contour>
  </outline>
</glyph>
<glyph name="N" format="2">
  <advance width="725"/>
  <unicode hex="004E"/>
  <outline>
    <contour>
      <point x="807" y="642" type="curve"/>
      <point x="819" y="680" type="line"/>
      <point x="580" y="680" type="line"/>
      <point x="568" y="642" type="line"/>
      <point x="629" y="642" type="line" smooth="yes"/>
      <point x="644" y="642"/>
      <point x="676" y="637"/>
      <point x="676" y="622" type="curve" smooth="yes"/>
      <point x="676" y="615"/>
      <point x="670" y="598"/>
      <point x="668" y="592" type="curve" smooth="yes"/>
      <point x="563" y="226" type="line"/>
      <point x="549" y="226" type="line"/>
      <point x="368" y="680" type="line"/>
      <point x="168" y="680" type="line"/>
      <point x="156" y="645" type="line"/>
      <point x="203" y="645"/>
      <point x="226" y="639"/>
      <point x="226" y="578" type="curve" smooth="yes"/>
      <point x="226" y="567"/>
      <point x="224" y="556"/>
      <point x="221" y="546" type="curve" smooth="yes"/>
      <point x="90" y="90" type="line" smooth="yes"/>
      <point x="73" y="31"/>
      <point x="58" y="38"/>
      <point x="3" y="38" type="curve"/>
      <point x="-10" y="0" type="line"/>
      <point x="219" y="0" type="line"/>
      <point x="232" y="38" type="line"/>
      <point x="181" y="38" type="line" smooth="yes"/>
      <point x="165" y="38"/>
      <point x="138" y="43"/>
      <point x="138" y="59" type="curve" smooth="yes"/>
      <point x="138" y="66"/>
      <point x="141" y="82"/>
      <point x="143" y="88" type="curve"/>
      <point x="270" y="535" type="line"/>
      <point x="278" y="535" type="line"/>
      <point x="345" y="346"/>
      <point x="424" y="172"/>
      <point x="494" y="-8" type="curve"/>
      <point x="547" y="-8" type="line"/>
      <point x="720" y="590" type="line" smooth="yes"/>
      <point x="737" y="650"/>
      <point x="751" y="642"/>
    </contour>
  </outline>
</glyph>
<glyph name="O" format="2">
  <advance width="665"/>
  <unicode hex="004F"/>
  <anchor x="446" y="704" name="t.asciicircum_1"/>
  <outline>
    <contour>
      <point x="509" y="520" type="curve" smooth="yes"/>
      <point x="509" y="415"/>
      <point x="414" y="26"/>
      <point x="275" y="26" type="curve" smooth="yes"/>
      <point x="206" y="26"/>
      <point x="197" y="109"/>
      <point x="197" y="163" type="curve" smooth="yes"/>
      <point x="197" y="268"/>
      <point x="291" y="658"/>
      <point x="433" y="658" type="curve" smooth="yes"/>
      <point x="500" y="658"/>
      <point x="509" y="572"/>
    </contour>
    <contour>
      <point x="424" y="692" type="curve" smooth="yes"/>
      <point x="212" y="692"/>
      <point x="59" y="429"/>
      <point x="59" y="239" type="curve" smooth="yes"/>
      <point x="59" y="103"/>
      <point x="138" y="-12"/>
      <point x="283" y="-12" type="curve" smooth="yes"/>
      <point x="495" y="-12"/>
      <point x="647" y="251"/>
      <point x="647" y="441" type="curve" smooth="yes"/>
      <point x="647" y="577"/>
      <point x="570" y="692"/>
    </contour>
  </outline>
</glyph>
<glyph name="P" format="2">
  <advance width="630"/>
  <unicode hex="0050"/>
  <outline>
    <contour>
      <point x="279" y="323" type="curve"/>
      <point x="348" y="323" type="line" smooth="yes"/>
      <point x="479" y="323"/>
      <point x="650" y="371"/>
      <point x="650" y="531" type="curve" smooth="yes"/>
      <point x="650" y="645"/>
      <point x="545" y="680"/>
      <point x="448" y="680" type="curve" smooth="yes"/>
      <point x="154" y="680" type="line"/>
      <point x="141" y="636" type="line"/>
      <point x="166" y="636"/>
      <point x="232" y="650"/>
      <point x="232" y="612" type="curve" smooth="yes"/>
      <point x="232" y="598"/>
      <point x="96" y="136"/>
      <point x="83" y="90" type="curve" smooth="yes"/>
      <point x="67" y="35"/>
      <point x="40" y="44"/>
      <point x="-9" y="44" type="curve"/>
      <point x="-22" y="0" type="line"/>
      <point x="305" y="0" type="line"/>
      <point x="317" y="44" type="line"/>
      <point x="232" y="44" type="line" smooth="yes"/>
      <point x="215" y="44"/>
      <point x="207" y="51"/>
      <point x="207" y="68" type="curve" smooth="yes"/>
      <point x="207" y="98"/>
      <point x="266" y="280"/>
    </contour>
    <contour>
      <point x="292" y="369" type="line"/>
      <point x="358" y="599" type="line" smooth="yes"/>
      <point x="366" y="628"/>
      <point x="403" y="635"/>
      <point x="429" y="635" type="curve" smooth="yes"/>
      <point x="481" y="635"/>
      <point x="508" y="611"/>
      <point x="508" y="558" type="curve" smooth="yes"/>
      <point x="508" y="465"/>
      <point x="452" y="369"/>
      <point x="350" y="369" type="curve" smooth="yes"/>
    </contour>
  </outline>
</glyph>
<glyph name="Q" format="2">
  <advance width="646"/>
  <unicode hex="0051"/>
  <outline>
    <contour>
      <point x="445" y="690" type="curve"/>
      <point x="443" y="690" type="line"/>
      <point x="434" y="691"/>
      <point x="425" y="692"/>
      <point x="415" y="692" type="curve" smooth="yes"/>
      <point x="261" y="692"/>
      <point x="117" y="536"/>
      <point x="70" y="371" type="curve" smooth="yes"/>
      <point x="57" y="323"/>
      <point x="50" y="278"/>
      <point x="50" y="237" type="curve" smooth="yes"/>
      <point x="50" y="101"/>
      <point x="128" y="-12"/>
      <point x="272" y="-12" type="curve" smooth="yes"/>
      <point x="277" y="-12"/>
      <point x="282" y="-12"/>
      <point x="287" y="-12" type="curve"/>
      <point x="283" y="-29"/>
      <point x="281" y="-45"/>
      <point x="281" y="-60" type="curve" smooth="yes"/>
      <point x="281" y="-124"/>
      <point x="317" y="-172"/>
      <point x="396" y="-172" type="curve" smooth="yes"/>
      <point x="475" y="-172"/>
      <point x="525" y="-110"/>
      <point x="545" y="-45" type="curve"/>
      <point x="496" y="-31" type="line"/>
      <point x="479" y="-84"/>
      <point x="446" y="-126"/>
      <point x="418" y="-126" type="curve" smooth="yes"/>
      <point x="398" y="-126"/>
      <point x="390" y="-102"/>
      <point x="390" y="-64" type="curve" smooth="yes"/>
      <point x="390" y="-40"/>
      <point x="394" y="-11"/>
      <point x="401" y="20" type="curve"/>
      <point x="546" y="97"/>
      <point x="636" y="279"/>
      <point x="636" y="442" type="curve" smooth="yes"/>
      <point x="636" y="572"/>
      <point x="570" y="672"/>
    </contour>
    <contour>
      <point x="177" y="135" type="curve"/>
      <point x="175" y="157"/>
      <point x="175" y="148"/>
      <point x="175" y="177" type="curve" smooth="yes"/>
      <point x="175" y="227"/>
      <point x="183" y="277"/>
      <point x="192" y="309" type="curve" smooth="yes"/>
      <point x="201" y="341"/>
      <point x="210" y="373"/>
      <point x="219" y="405" type="curve" smooth="yes"/>
      <point x="245" y="497"/>
      <point x="325" y="658"/>
      <point x="421" y="658" type="curve" smooth="yes"/>
      <point x="491" y="658"/>
      <point x="512" y="585"/>
      <point x="512" y="507" type="curve" smooth="yes"/>
      <point x="512" y="455"/>
      <point x="502" y="401"/>
      <point x="492" y="366" type="curve" smooth="yes"/>
      <point x="467" y="277"/>
      <point x="451" y="195"/>
      <point x="406" y="113" type="curve"/>
      <point x="406" y="113" type="line"/>
      <point x="406" y="188"/>
      <point x="354" y="229"/>
      <point x="293" y="229" type="curve"/>
      <point x="224" y="229"/>
      <point x="175" y="165"/>
    </contour>
    <contour>
      <point x="273" y="27" type="curve" smooth="yes"/>
      <point x="237" y="27"/>
      <point x="220" y="61"/>
      <point x="220" y="108" type="curve" smooth="yes"/>
      <point x="220" y="152"/>
      <point x="248" y="201"/>
      <point x="281" y="201" type="curve" smooth="yes"/>
      <point x="314" y="201"/>
      <point x="327" y="173"/>
      <point x="327" y="140" type="curve" smooth="yes"/>
      <point x="327" y="130"/>
      <point x="330" y="61"/>
      <point x="300" y="35" type="curve"/>
      <point x="297" y="30"/>
      <point x="275" y="27"/>
    </contour>
  </outline>
</glyph>
<glyph name="R" format="2">
  <advance width="696"/>
  <unicode hex="0052"/>
  <anchor x="428" y="704" name="t.asciicircum_1"/>
  <outline>
    <contour>
      <point x="277" y="348" type="line"/>
      <point x="341" y="348" type="line" smooth="yes"/>
      <point x="396" y="348"/>
      <point x="422" y="292"/>
      <point x="422" y="246" type="curve" smooth="yes"/>
      <point x="422" y="192"/>
      <point x="388" y="140"/>
      <point x="388" y="86" type="curve" smooth="yes"/>
      <point x="388" y="26"/>
      <point x="432" y="-12"/>
      <point x="491" y="-12" type="curve" smooth="yes"/>
      <point x="592" y="-12"/>
      <point x="628" y="85"/>
      <point x="647" y="171" type="curve"/>
      <point x="608" y="182" type="line"/>
      <point x="601" y="157"/>
      <point x="568" y="60"/>
      <point x="534" y="60" type="curve" smooth="yes"/>
      <point x="510" y="60"/>
      <point x="504" y="96"/>
      <point x="504" y="104" type="curve" smooth="yes"/>
      <point x="504" y="157"/>
      <point x="535" y="167"/>
      <point x="535" y="222" type="curve" smooth="yes"/>
      <point x="535" y="270"/>
      <point x="524" y="318"/>
      <point x="439" y="356" type="curve"/>
      <point x="526" y="372"/>
      <point x="647" y="438"/>
      <point x="647" y="538" type="curve" smooth="yes"/>
      <point x="647" y="652"/>
      <point x="533" y="680"/>
      <point x="440" y="680" type="curve" smooth="yes"/>
      <point x="166" y="680" type="line"/>
      <point x="153" y="642" type="line"/>
      <point x="180" y="642"/>
      <point x="223" y="650"/>
      <point x="223" y="612" type="curve" smooth="yes"/>
      <point x="223" y="582"/>
      <point x="92" y="149"/>
      <point x="75" y="90" type="curve" smooth="yes"/>
      <point x="59" y="35"/>
      <point x="42" y="38"/>
      <point x="-7" y="38" type="curve"/>
      <point x="-20" y="0" type="line"/>
      <point x="277" y="0" type="line"/>
      <point x="289" y="38" type="line"/>
      <point x="224" y="38" type="line" smooth="yes"/>
      <point x="207" y="38"/>
      <point x="195.819" y="51.0485"/>
      <point x="201" y="70" type="curve" smooth="yes"/>
    </contour>
    <contour>
      <point x="348" y="383" type="curve" smooth="yes"/>
      <point x="290" y="383" type="line"/>
      <point x="350" y="599" type="line" smooth="yes"/>
      <point x="360" y="635"/>
      <point x="366" y="640"/>
      <point x="436" y="640" type="curve" smooth="yes"/>
      <point x="483" y="640"/>
      <point x="511" y="610"/>
      <point x="511" y="562" type="curve" smooth="yes"/>
      <point x="511" y="464"/>
      <point x="447" y="383"/>
    </contour>
  </outline>
</glyph>
<glyph name="S" format="2">
  <advance width="641"/>
  <unicode hex="0053"/>
  <anchor x="426" y="724" name="t.asciicircum_1"/>
  <outline>
    <contour>
      <point x="63" y="0" type="line"/>
      <point x="72" y="14"/>
      <point x="105" y="60"/>
      <point x="118" y="62" type="curve"/>
      <point x="125" y="58"/>
      <point x="132" y="53"/>
      <point x="138" y="48" type="curve" smooth="yes"/>
      <point x="186" y="9"/>
      <point x="249" y="-12"/>
      <point x="311" y="-12" type="curve" smooth="yes"/>
      <point x="443" y="-12"/>
      <point x="584" y="66"/>
      <point x="584" y="213" type="curve" smooth="yes"/>
      <point x="584" y="414"/>
      <point x="272" y="415"/>
      <point x="272" y="545" type="curve" smooth="yes"/>
      <point x="272" y="619"/>
      <point x="343" y="646"/>
      <point x="406" y="646" type="curve" smooth="yes"/>
      <point x="502" y="646"/>
      <point x="544" y="556"/>
      <point x="544" y="472" type="curve" smooth="yes"/>
      <point x="544" y="461"/>
      <point x="543" y="451"/>
      <point x="543" y="440" type="curve"/>
      <point x="614" y="440" type="line"/>
      <point x="683" y="680" type="line"/>
      <point x="618" y="680" type="line"/>
      <point x="609" y="667"/>
      <point x="581" y="628"/>
      <point x="569" y="625" type="curve"/>
      <point x="512" y="665"/>
      <point x="470" y="692"/>
      <point x="397" y="692" type="curve" smooth="yes"/>
      <point x="287" y="692"/>
      <point x="144" y="638"/>
      <point x="144" y="508" type="curve" smooth="yes"/>
      <point x="144" y="303"/>
      <point x="463" y="326"/>
      <point x="463" y="165" type="curve" smooth="yes"/>
      <point x="463" y="70"/>
      <point x="384" y="37"/>
      <point x="301" y="37" type="curve" smooth="yes"/>
      <point x="192" y="37"/>
      <point x="147" y="131"/>
      <point x="147" y="228" type="curve" smooth="yes"/>
      <point x="147" y="250"/>
      <point x="149" y="272"/>
      <point x="153" y="293" type="curve"/>
      <point x="81" y="293" type="line"/>
      <point x="-2" y="0" type="line"/>
    </contour>
  </outline>
</glyph>
<glyph name="T" format="2">
  <advance width="626"/>
  <unicode hex="0054"/>
  <outline>
    <contour>
      <point x="519" y="640" type="curve" smooth="yes"/>
      <point x="600" y="640"/>
      <point x="592" y="469"/>
      <point x="589" y="424" type="curve"/>
      <point x="639" y="424" type="line"/>
      <point x="706" y="680" type="line"/>
      <point x="141" y="680" type="line"/>
      <point x="68" y="423" type="line"/>
      <point x="118" y="423" type="line"/>
      <point x="147" y="479"/>
      <point x="216" y="640"/>
      <point x="309" y="640" type="curve" smooth="yes"/>
      <point x="323" y="640"/>
      <point x="337" y="633"/>
      <point x="337" y="616" type="curve" smooth="yes"/>
      <point x="337" y="590"/>
      <point x="207" y="153"/>
      <point x="189" y="90" type="curve" smooth="yes"/>
      <point x="172" y="32"/>
      <point x="151" y="38"/>
      <point x="98" y="38" type="curve"/>
      <point x="84" y="0" type="line"/>
      <point x="386" y="0" type="line"/>
      <point x="399" y="38" type="line"/>
      <point x="374" y="38"/>
      <point x="319" y="30"/>
      <point x="319" y="68" type="curve" smooth="yes"/>
      <point x="319" y="98"/>
      <point x="452" y="539"/>
      <point x="469" y="599" type="curve" smooth="yes"/>
      <point x="477" y="625"/>
      <point x="493" y="640"/>
    </contour>
  </outline>
</glyph>
<glyph name="U" format="2">
  <advance width="719"/>
  <unicode hex="0055"/>
  <anchor x="478" y="714" name="t.asciicircum_1"/>
  <outline>
    <contour>
      <point x="776" y="642" type="curve"/>
      <point x="789" y="680" type="line"/>
      <point x="550" y="680" type="line"/>
      <point x="537" y="642" type="line"/>
      <point x="593" y="642" type="line" smooth="yes"/>
      <point x="610" y="642"/>
      <point x="639" y="629"/>
      <point x="639" y="612" type="curve" smooth="yes"/>
      <point x="639" y="582"/>
      <point x="559" y="323"/>
      <point x="545" y="276" type="curve" smooth="yes"/>
      <point x="518" y="181"/>
      <point x="458" y="40"/>
      <point x="319" y="40" type="curve" smooth="yes"/>
      <point x="258" y="40"/>
      <point x="241" y="79"/>
      <point x="241" y="134" type="curve" smooth="yes"/>
      <point x="241" y="186"/>
      <point x="255" y="238"/>
      <point x="269" y="288" type="curve" smooth="yes"/>
      <point x="356" y="590" type="line" smooth="yes"/>
      <point x="372" y="645"/>
      <point x="378" y="642"/>
      <point x="427" y="642" type="curve"/>
      <point x="440" y="680" type="line"/>
      <point x="156" y="680" type="line"/>
      <point x="143" y="642" type="line"/>
      <point x="168" y="642"/>
      <point x="223" y="650"/>
      <point x="223" y="612" type="curve" smooth="yes"/>
      <point x="223" y="591"/>
      <point x="188" y="485"/>
      <point x="180" y="456" type="curve" smooth="yes"/>
      <point x="156" y="369"/>
      <point x="110" y="251"/>
      <point x="110" y="163" type="curve" smooth="yes"/>
      <point x="110" y="45"/>
      <point x="188" y="-12"/>
      <point x="300" y="-12" type="curve" smooth="yes"/>
      <point x="467" y="-12"/>
      <point x="546" y="113"/>
      <point x="588" y="257" type="curve" smooth="yes"/>
      <point x="685" y="590" type="line" smooth="yes"/>
      <point x="702" y="648"/>
      <point x="725" y="642"/>
    </contour>
  </outline>
</glyph>
<glyph name="V" format="2">
  <advance width="742"/>
  <unicode hex="0056"/>
  <outline>
    <contour>
      <point x="402" y="172" type="line"/>
      <point x="354" y="569" type="line" smooth="yes"/>
      <point x="353" y="575"/>
      <point x="352" y="582"/>
      <point x="352" y="588" type="curve" smooth="yes"/>
      <point x="352" y="647"/>
      <point x="400" y="636"/>
      <point x="444" y="636" type="curve"/>
      <point x="457" y="680" type="line"/>
      <point x="146" y="680" type="line"/>
      <point x="133" y="636" type="line"/>
      <point x="194" y="636"/>
      <point x="215" y="641"/>
      <point x="224" y="570" type="curve" smooth="yes"/>
      <point x="296" y="-12" type="line"/>
      <point x="370" y="-12" type="line"/>
      <point x="705" y="558" type="line" smooth="yes"/>
      <point x="750" y="635"/>
      <point x="754" y="636"/>
      <point x="837" y="636" type="curve"/>
      <point x="849" y="680" type="line"/>
      <point x="577" y="680" type="line"/>
      <point x="565" y="636" type="line"/>
      <point x="582" y="636"/>
      <point x="652" y="646"/>
      <point x="652" y="614" type="curve" smooth="yes"/>
      <point x="652" y="597"/>
      <point x="641" y="577"/>
      <point x="633" y="563" type="curve" smooth="yes"/>
    </contour>
  </outline>
</glyph>
<glyph name="W" format="2">
  <advance width="922"/>
  <unicode hex="0057"/>
  <outline>
    <contour>
      <point x="102" y="645" type="line"/>
      <point x="132" y="645" type="line" smooth="yes"/>
      <point x="162" y="645"/>
      <point x="190" y="641"/>
      <point x="196" y="576" type="curve" smooth="yes"/>
      <point x="246" y="-12" type="line"/>
      <point x="290" y="-12" type="line"/>
      <point x="533" y="399" type="line"/>
      <point x="562" y="-12" type="line"/>
      <point x="593" y="-12" type="line"/>
      <point x="608" y="-15" type="line"/>
      <point x="925" y="570" type="line" smooth="yes"/>
      <point x="962" y="638"/>
      <point x="990" y="645"/>
      <point x="1014" y="645" type="curve" smooth="yes"/>
      <point x="1044" y="645" type="line"/>
      <point x="1054" y="680" type="line"/>
      <point x="781" y="680" type="line"/>
      <point x="771" y="645" type="line"/>
      <point x="822" y="645" type="line" smooth="yes"/>
      <point x="857" y="645"/>
      <point x="873" y="632"/>
      <point x="873" y="610" type="curve" smooth="yes"/>
      <point x="873" y="598"/>
      <point x="869" y="585"/>
      <point x="862" y="572" type="curve" smooth="yes"/>
      <point x="796" y="450"/>
      <point x="730" y="329"/>
      <point x="664" y="208" type="curve"/>
      <point x="637" y="588" type="line"/>
      <point x="637" y="589" type="line"/>
      <point x="637" y="594"/>
      <point x="636" y="600"/>
      <point x="636" y="605" type="curve"/>
      <point x="637" y="626"/>
      <point x="642" y="645"/>
      <point x="669" y="645" type="curve" smooth="yes"/>
      <point x="712" y="645" type="line"/>
      <point x="722" y="680" type="line"/>
      <point x="459" y="680" type="line"/>
      <point x="449" y="645" type="line"/>
      <point x="484" y="645" type="line" smooth="yes"/>
      <point x="498" y="645"/>
      <point x="517" y="637"/>
      <point x="518" y="616" type="curve" smooth="yes"/>
      <point x="520" y="577"/>
      <point x="523" y="538"/>
      <point x="526" y="499" type="curve"/>
      <point x="527" y="499" type="line"/>
      <point x="347" y="192" type="line"/>
      <point x="312" y="588" type="line"/>
      <point x="312" y="595"/>
      <point x="311" y="601"/>
      <point x="311" y="607" type="curve" smooth="yes"/>
      <point x="311" y="630"/>
      <point x="317" y="645"/>
      <point x="343" y="645" type="curve" smooth="yes"/>
      <point x="390" y="645" type="line"/>
      <point x="400" y="680" type="line"/>
      <point x="112" y="680" type="line"/>
    </contour>
  </outline>
</glyph>
<glyph name="X" format="2">
  <advance width="688"/>
  <unicode hex="0058"/>
  <outline>
    <contour>
      <point x="237" y="38" type="line"/>
      <point x="146" y="38"/>
      <point x="120" y="48"/>
      <point x="185" y="119" type="curve"/>
      <point x="337" y="284" type="line"/>
      <point x="421" y="78" type="line" smooth="yes"/>
      <point x="436" y="41"/>
      <point x="406" y="38"/>
      <point x="377" y="38" type="curve"/>
      <point x="364" y="0" type="line"/>
      <point x="634" y="0" type="line"/>
      <point x="647" y="38" type="line"/>
      <point x="611" y="38" type="line" smooth="yes"/>
      <point x="582" y="38"/>
      <point x="570" y="69"/>
      <point x="561" y="92" type="curve"/>
      <point x="442" y="385" type="line"/>
      <point x="634" y="590" type="line" smooth="yes"/>
      <point x="685" y="644"/>
      <point x="675" y="642"/>
      <point x="746" y="642" type="curve"/>
      <point x="759" y="680" type="line"/>
      <point x="519" y="680" type="line"/>
      <point x="506" y="642" type="line"/>
      <point x="566" y="642"/>
      <point x="615" y="638"/>
      <point x="593" y="615" type="curve" smooth="yes"/>
      <point x="423" y="433" type="line"/>
      <point x="411" y="462"/>
      <point x="358" y="583"/>
      <point x="355" y="608" type="curve" smooth="yes"/>
      <point x="352" y="633"/>
      <point x="354" y="642"/>
      <point x="398" y="642" type="curve"/>
      <point x="411" y="680" type="line"/>
      <point x="147" y="680" type="line"/>
      <point x="135" y="642" type="line"/>
      <point x="172" y="642" type="line" smooth="yes"/>
      <point x="198" y="642"/>
      <point x="205" y="609"/>
      <point x="213" y="589" type="curve"/>
      <point x="318" y="332" type="line"/>
      <point x="97" y="94" type="line" smooth="yes"/>
      <point x="61" y="55"/>
      <point x="50" y="38"/>
      <point x="-7" y="38" type="curve"/>
      <point x="-20" y="0" type="line"/>
      <point x="225" y="0" type="line"/>
    </contour>
  </outline>
</glyph>
<glyph name="Y" format="2">
  <advance width="657"/>
  <unicode hex="0059"/>
  <outline>
    <contour>
      <point x="141" y="38" type="curve"/>
      <point x="128" y="0" type="line"/>
      <point x="416" y="0" type="line"/>
      <point x="428" y="38" type="line"/>
      <point x="402" y="38"/>
      <point x="354" y="40"/>
      <point x="354" y="68" type="curve" smooth="yes"/>
      <point x="354" y="101"/>
      <point x="409" y="266"/>
      <point x="421" y="308" type="curve"/>
      <point x="628" y="583" type="line" smooth="yes"/>
      <point x="672" y="641"/>
      <point x="678" y="642"/>
      <point x="749" y="642" type="curve"/>
      <point x="762" y="680" type="line"/>
      <point x="519" y="680" type="line"/>
      <point x="507" y="642" type="line"/>
      <point x="592" y="642"/>
      <point x="603" y="626"/>
      <point x="590" y="608" type="curve" smooth="yes"/>
      <point x="401" y="357" type="line"/>
      <point x="391" y="387"/>
      <point x="318" y="590"/>
      <point x="318" y="608" type="curve" smooth="yes"/>
      <point x="318" y="648"/>
      <point x="352" y="642"/>
      <point x="380" y="642" type="curve"/>
      <point x="393" y="680" type="line"/>
      <point x="113" y="680" type="line"/>
      <point x="101" y="642" type="line"/>
      <point x="148" y="642" type="line" smooth="yes"/>
      <point x="178" y="642"/>
      <point x="181" y="619"/>
      <point x="189" y="594" type="curve" smooth="yes"/>
      <point x="221" y="497"/>
      <point x="256" y="400"/>
      <point x="290" y="304" type="curve"/>
      <point x="228" y="90" type="line" smooth="yes"/>
      <point x="212" y="34"/>
      <point x="192" y="38"/>
    </contour>
  </outline>
</glyph>
<glyph name="Z" format="2">
  <advance width="606"/>
  <unicode hex="005A"/>
  <anchor x="426" y="714" name="t.asciicircum_1"/>
  <outline>
    <contour>
      <point x="505" y="0" type="line"/>
      <point x="574" y="269" type="line"/>
      <point x="515" y="269" type="line"/>
      <point x="462" y="169"/>
      <point x="400" y="45"/>
      <point x="270" y="45" type="curve" smooth="yes"/>
      <point x="175" y="45" type="line" smooth="yes"/>
      <point x="170" y="45"/>
      <point x="168" y="49"/>
      <point x="168" y="53" type="curve" smooth="yes"/>
      <point x="168" y="57"/>
      <point x="170" y="68"/>
      <point x="173" y="71" type="curve" smooth="yes"/>
      <point x="646" y="656" type="line"/>
      <point x="646" y="680" type="line"/>
      <point x="167" y="680" type="line"/>
      <point x="101" y="426" type="line"/>
      <point x="159" y="426" type="line"/>
      <point x="211" y="519"/>
      <point x="263" y="635"/>
      <point x="386" y="635" type="curve" smooth="yes"/>
      <point x="453" y="635" type="line" smooth="yes"/>
      <point x="459" y="635"/>
      <point x="465" y="633"/>
      <point x="465" y="626" type="curve" smooth="yes"/>
      <point x="465" y="620"/>
      <point x="461" y="613"/>
      <point x="458" y="609" type="curve" smooth="yes"/>
      <point x="-17" y="24" type="line"/>
      <point x="-17" y="0" type="line"/>
    </contour>
  </outline>
</glyph>
<glyph name="bracketleft" format="2">
  <advance width="292"/>
  <unicode hex="005B"/>
  <outline>
    <contour>
      <point x="418" y="760" type="line"/>
      <point x="190" y="760" type="line"/>
      <point x="-63" y="-179" type="line"/>
      <point x="185" y="-179" type="line"/>
      <point x="195" y="-137" type="line"/>
      <point x="41" y="-137" type="line"/>
      <point x="274" y="718" type="line"/>
      <point x="264" y="718" type="line"/>
      <point x="408" y="718" type="line"/>
    </contour>
  </outline>
</glyph>
<glyph name="backslash" format="2">
  <advance width="376"/>
  <unicode hex="005C"/>
  <outline>
    <contour>
      <point x="125" y="754" type="line"/>
      <point x="219" y="-123" type="line"/>
      <point x="286" y="-123" type="line"/>
      <point x="192" y="754" type="line"/>
    </contour>
  </outline>
</glyph>
<glyph name="bracketright" format="2">
  <advance width="292"/>
  <unicode hex="005D"/>
  <outline>
    <contour>
      <point x="44" y="-137" type="line"/>
      <point x="54" y="-137" type="line"/>
      <point x="-90" y="-137" type="line"/>
      <point x="-100" y="-179" type="line"/>
      <point x="128" y="-179" type="line"/>
      <point x="381.498" y="760" type="line"/>
      <point x="133.498" y="760" type="line"/>
      <point x="123.498" y="718" type="line"/>
      <point x="277.498" y="718" type="line"/>
    </contour>
  </outline>
</glyph>
<glyph name="asciicircum" format="2">
  <advance width="268"/>
  <unicode hex="005E"/>
  <outline>
    <contour>
      <point x="202" y="702" type="line"/>
      <point x="174" y="660"/>
      <point x="112" y="585"/>
      <point x="79" y="556" type="curve"/>
      <point x="89" y="529" type="line"/>
      <point x="129" y="553"/>
      <point x="188" y="594"/>
      <point x="233" y="628" type="curve"/>
      <point x="265" y="590"/>
      <point x="301" y="555"/>
      <point x="330" y="526" type="curve"/>
      <point x="364" y="538" type="line"/>
      <point x="339" y="576"/>
      <point x="299" y="656"/>
      <point x="282" y="702" type="curve"/>
    </contour>
  </outline>
</glyph>
<glyph name="underscore" format="2">
  <advance width="500"/>
  <unicode hex="005F"/>
  <outline>
    <contour>
      <point x="-125" y="-110" type="line"/>
      <point x="-125" y="-160" type="line"/>
      <point x="375" y="-160" type="line"/>
      <point x="375" y="-110" type="line"/>
    </contour>
  </outline>
</glyph>
<glyph name="grave" format="2">
  <advance width="220"/>
  <unicode hex="0060"/>
  <outline>
    <contour>
      <point x="238" y="693" type="line"/>
      <point x="110" y="707" type="line"/>
      <point x="103" y="688" type="line"/>
      <point x="147" y="654"/>
      <point x="273" y="565"/>
      <point x="331" y="533" type="curve"/>
      <point x="341" y="560" type="line"/>
      <point x="310" y="590"/>
      <point x="262" y="652"/>
      <point x="238" y="694" type="curve"/>
    </contour>
  </outline>
</glyph>
<glyph name="a" format="2">
  <advance width="547"/>
  <unicode hex="0061"/>
  <anchor x="315" y="497" name="t.asciicircum_1"/>
  <outline>
    <contour>
      <point x="466" y="153" type="line"/>
      <point x="447" y="95"/>
      <point x="414" y="36"/>
      <point x="393" y="36" type="curve" smooth="yes"/>
      <point x="385" y="36"/>
      <point x="381" y="43"/>
      <point x="381" y="56" type="curve" smooth="yes"/>
      <point x="381" y="73"/>
      <point x="390" y="98"/>
      <point x="401" y="132" type="curve" smooth="yes"/>
      <point x="504" y="450" type="line"/>
      <point x="394" y="450" type="line"/>
      <point x="380" y="405" type="line"/>
      <point x="368" y="441"/>
      <point x="341" y="462"/>
      <point x="292" y="462" type="curve" smooth="yes"/>
      <point x="197" y="462"/>
      <point x="89" y="369"/>
      <point x="52" y="252" type="curve" smooth="yes"/>
      <point x="42" y="220"/>
      <point x="37" y="183"/>
      <point x="37" y="148" type="curve" smooth="yes"/>
      <point x="37" y="66"/>
      <point x="67" y="-12"/>
      <point x="149" y="-12" type="curve" smooth="yes"/>
      <point x="198" y="-12"/>
      <point x="247" y="19"/>
      <point x="284" y="65" type="curve"/>
      <point x="287" y="18"/>
      <point x="309" y="-8"/>
      <point x="361" y="-8" type="curve" smooth="yes"/>
      <point x="434" y="-8"/>
      <point x="486" y="61"/>
      <point x="511" y="140" type="curve"/>
    </contour>
    <contour>
      <point x="304" y="424" type="curve" smooth="yes"/>
      <point x="333" y="424"/>
      <point x="343" y="391"/>
      <point x="343" y="348" type="curve" smooth="yes"/>
      <point x="343" y="309"/>
      <point x="335" y="271"/>
      <point x="323" y="234" type="curve"/>
      <point x="318" y="216" type="line"/>
      <point x="298" y="156"/>
      <point x="238" y="33"/>
      <point x="164" y="33" type="curve" smooth="yes"/>
      <point x="146" y="33"/>
      <point x="139" y="55"/>
      <point x="139" y="88" type="curve" smooth="yes"/>
      <point x="139" y="169"/>
      <point x="215" y="424"/>
    </contour>
  </outline>
</glyph>
<glyph name="b" format="2">
  <advance width="509"/>
  <unicode hex="0062"/>
  <outline>
    <contour>
      <point x="100" y="631" type="line"/>
      <point x="112" y="631"/>
      <point x="125" y="633"/>
      <point x="137" y="633" type="curve" smooth="yes"/>
      <point x="156" y="633"/>
      <point x="184" y="630"/>
      <point x="184" y="605" type="curve" smooth="yes"/>
      <point x="184" y="595"/>
      <point x="181" y="585"/>
      <point x="178" y="576" type="curve" smooth="yes"/>
      <point x="64" y="225" type="line" smooth="yes"/>
      <point x="53" y="191"/>
      <point x="45" y="154"/>
      <point x="45" y="118" type="curve" smooth="yes"/>
      <point x="45" y="34"/>
      <point x="92" y="-12"/>
      <point x="176" y="-12" type="curve" smooth="yes"/>
      <point x="328" y="-12"/>
      <point x="464" y="191"/>
      <point x="464" y="331" type="curve" smooth="yes"/>
      <point x="464" y="401"/>
      <point x="428" y="462"/>
      <point x="352" y="462" type="curve" smooth="yes"/>
      <point x="305" y="462"/>
      <point x="263" y="432"/>
      <point x="231" y="400" type="curve"/>
      <point x="320" y="675" type="line"/>
      <point x="109" y="661" type="line"/>
    </contour>
    <contour>
      <point x="335" y="434" type="curve" smooth="yes"/>
      <point x="361" y="434"/>
      <point x="360.972" y="391.002"/>
      <point x="360" y="374" type="curve" smooth="yes"/>
      <point x="354.972" y="286.002"/>
      <point x="270" y="15"/>
      <point x="163" y="15" type="curve" smooth="yes"/>
      <point x="137" y="15"/>
      <point x="134" y="48"/>
      <point x="134" y="67" type="curve" smooth="yes"/>
      <point x="134" y="151"/>
      <point x="237" y="434"/>
    </contour>
  </outline>
</glyph>
<glyph name="c" format="2">
  <advance width="464"/>
  <unicode hex="0063"/>
  <anchor x="295" y="488" name="t.asciicircum_1"/>
  <outline>
    <contour>
      <point x="302" y="433" type="curve" smooth="yes"/>
      <point x="319" y="433"/>
      <point x="334" y="422"/>
      <point x="334" y="404" type="curve" smooth="yes"/>
      <point x="334" y="378"/>
      <point x="290" y="368"/>
      <point x="290" y="320" type="curve" smooth="yes"/>
      <point x="290" y="288"/>
      <point x="319" y="268"/>
      <point x="349" y="268" type="curve" smooth="yes"/>
      <point x="392" y="268"/>
      <point x="424" y="308"/>
      <point x="424" y="349" type="curve" smooth="yes"/>
      <point x="424" y="415"/>
      <point x="360" y="462"/>
      <point x="298" y="462" type="curve" smooth="yes"/>
      <point x="154" y="462"/>
      <point x="39" y="296"/>
      <point x="39" y="162" type="curve" smooth="yes"/>
      <point x="39" y="67"/>
      <point x="93" y="-12"/>
      <point x="194" y="-12" type="curve" smooth="yes"/>
      <point x="283" y="-12"/>
      <point x="339" y="49"/>
      <point x="379" y="127" type="curve"/>
      <point x="344" y="141" type="line"/>
      <point x="330" y="104"/>
      <point x="273" y="16"/>
      <point x="202" y="16" type="curve" smooth="yes"/>
      <point x="158" y="16"/>
      <point x="152" y="68"/>
      <point x="152" y="104" type="curve" smooth="yes"/>
      <point x="152" y="172"/>
      <point x="218" y="433"/>
    </contour>
  </outline>
</glyph>
<glyph name="d" format="2">
  <advance width="561"/>
  <unicode hex="0064"/>
  <outline>
    <contour>
      <point x="501" y="179" type="line"/>
      <point x="488" y="139"/>
      <point x="439" y="36"/>
      <point x="391" y="36" type="curve" smooth="yes"/>
      <point x="377" y="36"/>
      <point x="375" y="52"/>
      <point x="375" y="62" type="curve" smooth="yes"/>
      <point x="375" y="90"/>
      <point x="387" y="116"/>
      <point x="395" y="142" type="curve" smooth="yes"/>
      <point x="568" y="675" type="line"/>
      <point x="357" y="661" type="line"/>
      <point x="348" y="631" type="line"/>
      <point x="358" y="631"/>
      <point x="369" y="632"/>
      <point x="379" y="632" type="curve" smooth="yes"/>
      <point x="408" y="632"/>
      <point x="429" y="625"/>
      <point x="429" y="592" type="curve" smooth="yes"/>
      <point x="429" y="574"/>
      <point x="381" y="434"/>
      <point x="371" y="405" type="curve"/>
      <point x="357" y="446"/>
      <point x="324" y="462"/>
      <point x="283" y="462" type="curve" smooth="yes"/>
      <point x="172" y="462"/>
      <point x="74" y="350"/>
      <point x="43" y="252" type="curve" smooth="yes"/>
      <point x="32" y="218"/>
      <point x="28" y="182"/>
      <point x="28" y="147" type="curve" smooth="yes"/>
      <point x="28" y="75"/>
      <point x="53" y="-12"/>
      <point x="140" y="-12" type="curve" smooth="yes"/>
      <point x="194" y="-12"/>
      <point x="243" y="26"/>
      <point x="276" y="66" type="curve"/>
      <point x="283" y="16"/>
      <point x="325" y="-8"/>
      <point x="372" y="-8" type="curve" smooth="yes"/>
      <point x="465" y="-8"/>
      <point x="521" y="86"/>
      <point x="545" y="166" type="curve"/>
    </contour>
    <contour>
      <point x="295" y="429" type="curve" smooth="yes"/>
      <point x="331" y="429"/>
      <point x="334" y="373"/>
      <point x="334" y="347" type="curve" smooth="yes"/>
      <point x="334" y="260"/>
      <point x="262" y="28"/>
      <point x="155" y="28" type="curve" smooth="yes"/>
      <point x="121" y="28"/>
      <point x="126" y="72"/>
      <point x="126" y="88" type="curve" smooth="yes"/>
      <point x="126" y="163"/>
      <point x="203" y="429"/>
    </contour>
  </outline>
</glyph>
<glyph name="e" format="2">
  <advance width="451"/>
  <unicode hex="0065"/>
  <anchor x="287" y="488" name="t.asciicircum_1"/>
  <outline>
    <contour>
      <point x="277" y="462" type="curve" smooth="yes"/>
      <point x="128" y="462"/>
      <point x="14" y="298"/>
      <point x="14" y="160" type="curve" smooth="yes"/>
      <point x="14" y="65"/>
      <point x="70" y="-12"/>
      <point x="170" y="-12" type="curve" smooth="yes"/>
      <point x="261" y="-12"/>
      <point x="335" y="58"/>
      <point x="371" y="138" type="curve"/>
      <point x="332" y="151" type="line"/>
      <point x="303" y="101"/>
      <point x="251" y="27"/>
      <point x="186" y="27" type="curve" smooth="yes"/>
      <point x="137" y="27"/>
      <point x="126" y="84"/>
      <point x="126" y="123" type="curve" smooth="yes"/>
      <point x="126" y="150"/>
      <point x="132" y="177"/>
      <point x="140" y="203" type="curve"/>
      <point x="157" y="200"/>
      <point x="173" y="199"/>
      <point x="190" y="199" type="curve" smooth="yes"/>
      <point x="277" y="199"/>
      <point x="418" y="242"/>
      <point x="418" y="351" type="curve" smooth="yes"/>
      <point x="418" y="425"/>
      <point x="342" y="462"/>
    </contour>
    <contour>
      <point x="147" y="228" type="curve"/>
      <point x="164" y="278"/>
      <point x="211" y="440"/>
      <point x="279" y="440" type="curve" smooth="yes"/>
      <point x="303" y="440"/>
      <point x="310" y="399"/>
      <point x="310" y="381" type="curve" smooth="yes"/>
      <point x="310" y="305"/>
      <point x="247" y="226"/>
      <point x="168" y="226" type="curve" smooth="yes"/>
      <point x="160" y="226"/>
      <point x="155" y="226"/>
    </contour>
  </outline>
</glyph>
<glyph name="f" format="2">
  <advance width="406"/>
  <unicode hex="0066"/>
  <outline>
    <contour>
      <point x="57" y="415" type="line"/>
      <point x="177" y="415" type="line"/>
      <point x="138" y="304"/>
      <point x="111" y="187"/>
      <point x="78" y="74" type="curve" smooth="yes"/>
      <point x="59" y="8"/>
      <point x="3" y="-219"/>
      <point x="-83" y="-219" type="curve" smooth="yes"/>
      <point x="-93" y="-219"/>
      <point x="-103" y="-211"/>
      <point x="-103" y="-200" type="curve" smooth="yes"/>
      <point x="-103" y="-182"/>
      <point x="-67" y="-190"/>
      <point x="-67" y="-135" type="curve" smooth="yes"/>
      <point x="-67" y="-99"/>
      <point x="-102" y="-77"/>
      <point x="-135" y="-77" type="curve" smooth="yes"/>
      <point x="-179" y="-77"/>
      <point x="-207" y="-105"/>
      <point x="-207" y="-149" type="curve" smooth="yes"/>
      <point x="-207" y="-215"/>
      <point x="-133" y="-245"/>
      <point x="-77" y="-245" type="curve" smooth="yes"/>
      <point x="115" y="-245"/>
      <point x="199" y="55"/>
      <point x="240" y="202" type="curve" smooth="yes"/>
      <point x="260" y="273"/>
      <point x="279" y="344"/>
      <point x="299" y="415" type="curve"/>
      <point x="419" y="415" type="line"/>
      <point x="430" y="450" type="line"/>
      <point x="309" y="450" type="line"/>
      <point x="326" y="511"/>
      <point x="372" y="683"/>
      <point x="452" y="683" type="curve" smooth="yes"/>
      <point x="461" y="683"/>
      <point x="475" y="674"/>
      <point x="475" y="663" type="curve" smooth="yes"/>
      <point x="475" y="642"/>
      <point x="444" y="637"/>
      <point x="444" y="602" type="curve" smooth="yes"/>
      <point x="444" y="568"/>
      <point x="475" y="549"/>
      <point x="506" y="549" type="curve" smooth="yes"/>
      <point x="543" y="549"/>
      <point x="573" y="576"/>
      <point x="573" y="614" type="curve" smooth="yes"/>
      <point x="573" y="679"/>
      <point x="502" y="710"/>
      <point x="446" y="710" type="curve" smooth="yes"/>
      <point x="305" y="710"/>
      <point x="230" y="565"/>
      <point x="189" y="450" type="curve"/>
      <point x="68" y="450" type="line"/>
    </contour>
  </outline>
</glyph>
<glyph name="g" format="2">
  <advance width="615"/>
  <unicode hex="0067"/>
  <anchor x="355" y="498" name="t.asciicircum_1"/>
  <outline>
    <contour>
      <point x="323" y="462" type="curve" smooth="yes"/>
      <point x="216" y="462"/>
      <point x="121" y="380"/>
      <point x="121" y="270" type="curve" smooth="yes"/>
      <point x="121" y="238"/>
      <point x="134" y="208"/>
      <point x="155" y="185" type="curve"/>
      <point x="98" y="169"/>
      <point x="-5" y="132"/>
      <point x="-5" y="60" type="curve" smooth="yes"/>
      <point x="-5" y="16"/>
      <point x="30" y="-10"/>
      <point x="68" y="-24" type="curve"/>
      <point x="27" y="-36"/>
      <point x="-59" y="-69"/>
      <point x="-59" y="-122" type="curve" smooth="yes"/>
      <point x="-59" y="-217"/>
      <point x="114" y="-225"/>
      <point x="179" y="-225" type="curve" smooth="yes"/>
      <point x="272" y="-225"/>
      <point x="431" y="-189"/>
      <point x="431" y="-69" type="curve" smooth="yes"/>
      <point x="431" y="28"/>
      <point x="298" y="45"/>
      <point x="226" y="45" type="curve" smooth="yes"/>
      <point x="194" y="45"/>
      <point x="86" y="35"/>
      <point x="86" y="87" type="curve" smooth="yes"/>
      <point x="86" y="137"/>
      <point x="151" y="153"/>
      <point x="189" y="162" type="curve"/>
      <point x="216" y="147"/>
      <point x="245" y="141"/>
      <point x="276" y="141" type="curve" smooth="yes"/>
      <point x="383" y="141"/>
      <point x="479" y="221"/>
      <point x="479" y="332" type="curve" smooth="yes"/>
      <point x="479" y="341"/>
      <point x="477" y="354"/>
      <point x="475" y="363" type="curve"/>
      <point x="484" y="381"/>
      <point x="508" y="425"/>
      <point x="533" y="425" type="curve" smooth="yes"/>
      <point x="544" y="425"/>
      <point x="546" y="414"/>
      <point x="546" y="411" type="curve" smooth="yes"/>
      <point x="546" y="400"/>
      <point x="536" y="391"/>
      <point x="536" y="380" type="curve" smooth="yes"/>
      <point x="536" y="352"/>
      <point x="564" y="337"/>
      <point x="589" y="337" type="curve" smooth="yes"/>
      <point x="622" y="337"/>
      <point x="643" y="363"/>
      <point x="643" y="395" type="curve" smooth="yes"/>
      <point x="643" y="447"/>
      <point x="598" y="474"/>
      <point x="555" y="474" type="curve" smooth="yes"/>
      <point x="512" y="474"/>
      <point x="475" y="441"/>
      <point x="452" y="408" type="curve"/>
      <point x="421" y="448"/>
      <point x="371" y="462"/>
    </contour>
    <contour>
      <point x="376" y="373" type="curve" smooth="yes"/>
      <point x="376" y="328"/>
      <point x="333" y="164"/>
      <point x="267" y="164" type="curve" smooth="yes"/>
      <point x="189" y="164"/>
      <point x="240" y="305"/>
      <point x="251" y="339" type="curve" smooth="yes"/>
      <point x="262" y="373"/>
      <point x="292" y="438"/>
      <point x="334" y="438" type="curve" smooth="yes"/>
      <point x="367" y="438"/>
      <point x="376" y="400"/>
    </contour>
    <contour>
      <point x="164" y="-38" type="curve" smooth="yes"/>
      <point x="243" y="-38" type="line" smooth="yes"/>
      <point x="284" y="-38"/>
      <point x="339" y="-48"/>
      <point x="339" y="-100" type="curve" smooth="yes"/>
      <point x="339" y="-181"/>
      <point x="240" y="-199"/>
      <point x="179" y="-199" type="curve" smooth="yes"/>
      <point x="133" y="-199"/>
      <point x="25" y="-185"/>
      <point x="25" y="-120" type="curve" smooth="yes"/>
      <point x="25" y="-57"/>
      <point x="115" y="-38"/>
    </contour>
  </outline>
</glyph>
<glyph name="h" format="2">
  <advance width="522"/>
  <unicode hex="0068"/>
  <outline>
    <contour>
      <point x="-8" y="0" type="curve"/>
      <point x="102" y="0" type="line"/>
      <point x="125" y="71"/>
      <point x="148" y="142"/>
      <point x="171" y="213" type="curve" smooth="yes"/>
      <point x="185" y="256"/>
      <point x="286" y="428"/>
      <point x="338" y="428" type="curve" smooth="yes"/>
      <point x="362" y="428"/>
      <point x="361" y="385"/>
      <point x="361" y="379" type="curve" smooth="yes"/>
      <point x="361" y="281"/>
      <point x="253" y="151"/>
      <point x="253" y="66" type="curve" smooth="yes"/>
      <point x="253" y="15"/>
      <point x="287" y="-12"/>
      <point x="336" y="-12" type="curve" smooth="yes"/>
      <point x="418" y="-12"/>
      <point x="458" y="69"/>
      <point x="482" y="139" type="curve"/>
      <point x="446" y="152" type="line"/>
      <point x="439" y="130"/>
      <point x="396" y="32"/>
      <point x="368" y="32" type="curve" smooth="yes"/>
      <point x="356" y="32"/>
      <point x="348" y="43"/>
      <point x="348" y="53" type="curve" smooth="yes"/>
      <point x="348" y="118"/>
      <point x="448" y="272"/>
      <point x="448" y="363" type="curve" smooth="yes"/>
      <point x="448" y="418"/>
      <point x="419" y="462"/>
      <point x="360" y="462" type="curve" smooth="yes"/>
      <point x="310" y="462"/>
      <point x="251" y="408"/>
      <point x="221" y="372" type="curve"/>
      <point x="321" y="675" type="line"/>
      <point x="121" y="661" type="line"/>
      <point x="111" y="632" type="line"/>
      <point x="136" y="632"/>
      <point x="183" y="638"/>
      <point x="183" y="600" type="curve" smooth="yes"/>
      <point x="183" y="568"/>
      <point x="13" y="66"/>
    </contour>
  </outline>
</glyph>
<glyph name="i" format="2">
  <advance width="362"/>
  <unicode hex="0069"/>
  <outline>
    <contour>
      <point x="226" y="616" type="curve" smooth="yes"/>
      <point x="226" y="580"/>
      <point x="261" y="558"/>
      <point x="294" y="558" type="curve" smooth="yes"/>
      <point x="327" y="558"/>
      <point x="362" y="580"/>
      <point x="362" y="616" type="curve" smooth="yes"/>
      <point x="362" y="652"/>
      <point x="327" y="674"/>
      <point x="294" y="674" type="curve" smooth="yes"/>
      <point x="261" y="674"/>
      <point x="226" y="652"/>
    </contour>
    <contour>
      <point x="78" y="66" type="curve" smooth="yes"/>
      <point x="78" y="15"/>
      <point x="110" y="-12"/>
      <point x="160" y="-12" type="curve" smooth="yes"/>
      <point x="242" y="-12"/>
      <point x="290" y="65"/>
      <point x="311" y="135" type="curve"/>
      <point x="265" y="150" type="line"/>
      <point x="258" y="128"/>
      <point x="221" y="32"/>
      <point x="192" y="32" type="curve" smooth="yes"/>
      <point x="180" y="32"/>
      <point x="178" y="43"/>
      <point x="178" y="53" type="curve" smooth="yes"/>
      <point x="178" y="78"/>
      <point x="194" y="115"/>
      <point x="203" y="138" type="curve" smooth="yes"/>
      <point x="269" y="312" type="line" smooth="yes"/>
      <point x="278" y="335"/>
      <point x="284" y="360"/>
      <point x="284" y="384" type="curve" smooth="yes"/>
      <point x="284" y="435"/>
      <point x="252" y="462"/>
      <point x="202" y="462" type="curve" smooth="yes"/>
      <point x="120" y="462"/>
      <point x="72" y="385"/>
      <point x="51" y="315" type="curve"/>
      <point x="97" y="300" type="line"/>
      <point x="104" y="322"/>
      <point x="141" y="418"/>
      <point x="170" y="418" type="curve" smooth="yes"/>
      <point x="182" y="418"/>
      <point x="184" y="407"/>
      <point x="184" y="397" type="curve" smooth="yes"/>
      <point x="184" y="372"/>
      <point x="168" y="335"/>
      <point x="159" y="312" type="curve" smooth="yes"/>
      <point x="93" y="138" type="line" smooth="yes"/>
      <point x="84" y="115"/>
      <point x="78" y="90"/>
    </contour>
  </outline>
</glyph>
<glyph name="j" format="2">
  <advance width="389"/>
  <unicode hex="006A"/>
  <outline>
    <contour>
      <point x="261" y="616" type="curve" smooth="yes"/>
      <point x="261" y="580"/>
      <point x="296" y="558"/>
      <point x="329" y="558" type="curve" smooth="yes"/>
      <point x="362" y="558"/>
      <point x="397" y="580"/>
      <point x="397" y="616" type="curve" smooth="yes"/>
      <point x="397" y="652"/>
      <point x="362" y="674"/>
      <point x="329" y="674" type="curve" smooth="yes"/>
      <point x="296" y="674"/>
      <point x="261" y="652"/>
    </contour>
    <contour>
      <point x="314" y="377" type="curve" smooth="yes"/>
      <point x="314" y="431"/>
      <point x="282" y="458"/>
      <point x="229" y="458" type="curve" smooth="yes"/>
      <point x="133" y="458"/>
      <point x="59" y="330"/>
      <point x="35" y="251" type="curve"/>
      <point x="85" y="238" type="line"/>
      <point x="95" y="268"/>
      <point x="159" y="414"/>
      <point x="199" y="414" type="curve" smooth="yes"/>
      <point x="211" y="414"/>
      <point x="212" y="401"/>
      <point x="212" y="392" type="curve" smooth="yes"/>
      <point x="212" y="369"/>
      <point x="198" y="330"/>
      <point x="191" y="308" type="curve" smooth="yes"/>
      <point x="130" y="121" type="line" smooth="yes"/>
      <point x="114" y="72"/>
      <point x="36" y="-197"/>
      <point x="-28" y="-197" type="curve" smooth="yes"/>
      <point x="-33" y="-197"/>
      <point x="-34" y="-184"/>
      <point x="-34" y="-182" type="curve" smooth="yes"/>
      <point x="-34" y="-165"/>
      <point x="-20" y="-149"/>
      <point x="-20" y="-131" type="curve" smooth="yes"/>
      <point x="-20" y="-93"/>
      <point x="-50" y="-75"/>
      <point x="-85" y="-75" type="curve" smooth="yes"/>
      <point x="-121" y="-75"/>
      <point x="-150" y="-101"/>
      <point x="-150" y="-138" type="curve" smooth="yes"/>
      <point x="-150" y="-197"/>
      <point x="-82" y="-225"/>
      <point x="-32" y="-225" type="curve" smooth="yes"/>
      <point x="128" y="-225"/>
      <point x="228" y="87"/>
      <point x="268" y="208" type="curve" smooth="yes"/>
      <point x="285" y="259"/>
      <point x="314" y="321"/>
    </contour>
  </outline>
</glyph>
<glyph name="k" format="2">
  <advance width="538"/>
  <unicode hex="006B"/>
  <outline>
    <contour>
      <point x="110" y="0" type="line"/>
      <point x="194" y="258" type="line"/>
      <point x="279" y="239"/>
      <point x="173" y="-12"/>
      <point x="320" y="-12" type="curve" smooth="yes"/>
      <point x="403" y="-12"/>
      <point x="454" y="63"/>
      <point x="476" y="136" type="curve"/>
      <point x="438" y="149" type="line"/>
      <point x="430" y="124"/>
      <point x="393" y="34"/>
      <point x="359" y="34" type="curve" smooth="yes"/>
      <point x="318" y="34"/>
      <point x="331" y="118"/>
      <point x="331" y="141" type="curve" smooth="yes"/>
      <point x="331" y="191"/>
      <point x="313" y="244"/>
      <point x="240" y="274" type="curve"/>
      <point x="304" y="310"/>
      <point x="350" y="397"/>
      <point x="386" y="420" type="curve" smooth="yes"/>
      <point x="389" y="422"/>
      <point x="393" y="427"/>
      <point x="404" y="427" type="curve" smooth="yes"/>
      <point x="413" y="427"/>
      <point x="388" y="402"/>
      <point x="388" y="381" type="curve" smooth="yes"/>
      <point x="388" y="346"/>
      <point x="417" y="324"/>
      <point x="450" y="324" type="curve" smooth="yes"/>
      <point x="486" y="324"/>
      <point x="509" y="348"/>
      <point x="509" y="386" type="curve" smooth="yes"/>
      <point x="509" y="437"/>
      <point x="461" y="462"/>
      <point x="423" y="462" type="curve" smooth="yes"/>
      <point x="313" y="462"/>
      <point x="297" y="302"/>
      <point x="203" y="286" type="curve"/>
      <point x="329" y="675" type="line"/>
      <point x="118" y="661" type="line"/>
      <point x="109" y="633" type="line"/>
      <point x="134" y="633"/>
      <point x="191" y="638"/>
      <point x="191" y="600" type="curve" smooth="yes"/>
      <point x="191" y="568"/>
      <point x="21" y="66"/>
      <point x="0" y="0" type="curve"/>
    </contour>
  </outline>
</glyph>
<glyph name="l" format="2">
  <advance width="358"/>
  <unicode hex="006C"/>
  <anchor x="326" y="714" name="t.asciicircum_1"/>
  <outline>
    <contour>
      <point x="40" y="84" type="curve" smooth="yes"/>
      <point x="40" y="24"/>
      <point x="79" y="-8"/>
      <point x="137" y="-8" type="curve" smooth="yes"/>
      <point x="230" y="-8"/>
      <point x="288" y="87"/>
      <point x="312" y="166" type="curve"/>
      <point x="268" y="179" type="line"/>
      <point x="256" y="143"/>
      <point x="205" y="36"/>
      <point x="156" y="36" type="curve" smooth="yes"/>
      <point x="139" y="36"/>
      <point x="138" y="52"/>
      <point x="138" y="62" type="curve" smooth="yes"/>
      <point x="137" y="84"/>
      <point x="153" y="121"/>
      <point x="160" y="142" type="curve" smooth="yes"/>
      <point x="333" y="675" type="line"/>
      <point x="132" y="661" type="line"/>
      <point x="123" y="631" type="line"/>
      <point x="157" y="631"/>
      <point x="193" y="641"/>
      <point x="193" y="592" type="curve" smooth="yes"/>
      <point x="193" y="587"/>
      <point x="192" y="581"/>
      <point x="191" y="576" type="curve" smooth="yes"/>
      <point x="165" y="487"/>
      <point x="40" y="144"/>
    </contour>
  </outline>
</glyph>
<glyph name="m" format="2">
  <advance width="824"/>
  <unicode hex="006D"/>
  <outline>
    <contour>
      <point x="58" y="0" type="line"/>
      <point x="168" y="0" type="line"/>
      <point x="228" y="186" type="line" smooth="yes"/>
      <point x="254" y="265"/>
      <point x="310" y="354"/>
      <point x="375" y="407" type="curve" smooth="yes"/>
      <point x="382" y="412"/>
      <point x="398" y="425"/>
      <point x="407" y="425" type="curve" smooth="yes"/>
      <point x="415" y="425"/>
      <point x="414" y="400"/>
      <point x="414" y="396" type="curve" smooth="yes"/>
      <point x="414" y="358"/>
      <point x="396" y="301"/>
      <point x="384" y="265" type="curve" smooth="yes"/>
      <point x="298" y="0" type="line"/>
      <point x="408" y="0" type="line"/>
      <point x="472" y="196" type="line" smooth="yes"/>
      <point x="481" y="224"/>
      <point x="493" y="250"/>
      <point x="507" y="276" type="curve" smooth="yes"/>
      <point x="522" y="304"/>
      <point x="601" y="424"/>
      <point x="637" y="424" type="curve" smooth="yes"/>
      <point x="647" y="424"/>
      <point x="647" y="402"/>
      <point x="647" y="396" type="curve" smooth="yes"/>
      <point x="647" y="303"/>
      <point x="548" y="151"/>
      <point x="548" y="66" type="curve" smooth="yes"/>
      <point x="548" y="15"/>
      <point x="582" y="-12"/>
      <point x="631" y="-12" type="curve" smooth="yes"/>
      <point x="713" y="-12"/>
      <point x="762" y="69"/>
      <point x="783" y="139" type="curve"/>
      <point x="736" y="152" type="line"/>
      <point x="729" y="130"/>
      <point x="691" y="32"/>
      <point x="663" y="32" type="curve" smooth="yes"/>
      <point x="651" y="32"/>
      <point x="649" y="43"/>
      <point x="649" y="53" type="curve" smooth="yes"/>
      <point x="649" y="78"/>
      <point x="665" y="115"/>
      <point x="674" y="138" type="curve" smooth="yes"/>
      <point x="698" y="202"/>
      <point x="744" y="301"/>
      <point x="744" y="367" type="curve" smooth="yes"/>
      <point x="744" y="421"/>
      <point x="716" y="462"/>
      <point x="659" y="462" type="curve" smooth="yes"/>
      <point x="601" y="462"/>
      <point x="541" y="398"/>
      <point x="509" y="355" type="curve"/>
      <point x="509" y="359"/>
      <point x="510" y="363"/>
      <point x="510" y="367" type="curve" smooth="yes"/>
      <point x="510" y="418"/>
      <point x="481" y="462"/>
      <point x="426" y="462" type="curve" smooth="yes"/>
      <point x="373" y="462"/>
      <point x="311" y="400"/>
      <point x="279" y="362" type="curve"/>
      <point x="280" y="370"/>
      <point x="281" y="377"/>
      <point x="281" y="385" type="curve" smooth="yes"/>
      <point x="281" y="434"/>
      <point x="250" y="462"/>
      <point x="202" y="462" type="curve" smooth="yes"/>
      <point x="119" y="462"/>
      <point x="72" y="382"/>
      <point x="51" y="312" type="curve"/>
      <point x="97" y="297" type="line"/>
      <point x="104" y="319"/>
      <point x="141" y="418"/>
      <point x="170" y="418" type="curve" smooth="yes"/>
      <point x="180" y="418"/>
      <point x="182" y="406"/>
      <point x="182" y="398" type="curve" smooth="yes"/>
      <point x="182" y="375"/>
      <point x="166" y="335"/>
      <point x="159" y="312" type="curve" smooth="yes"/>
    </contour>
  </outline>
</glyph>
<glyph name="n" format="2">
  <advance width="594"/>
  <unicode hex="006E"/>
  <anchor x="335" y="488" name="t.asciicircum_1"/>
  <outline>
    <contour>
      <point x="58" y="0" type="line"/>
      <point x="168" y="0" type="line"/>
      <point x="236" y="209" type="line" smooth="yes"/>
      <point x="270" y="315"/>
      <point x="374" y="424"/>
      <point x="403" y="424" type="curve" smooth="yes"/>
      <point x="411" y="424"/>
      <point x="414" y="413"/>
      <point x="414" y="392" type="curve" smooth="yes"/>
      <point x="414" y="364"/>
      <point x="403" y="322"/>
      <point x="383" y="269" type="curve" smooth="yes"/>
      <point x="367" y="225"/>
      <point x="351" y="182"/>
      <point x="334" y="138" type="curve" smooth="yes"/>
      <point x="324" y="111"/>
      <point x="318" y="86"/>
      <point x="318" y="66" type="curve" smooth="yes"/>
      <point x="318" y="20"/>
      <point x="346" y="-12"/>
      <point x="401" y="-12" type="curve" smooth="yes"/>
      <point x="476" y="-12"/>
      <point x="528" y="57"/>
      <point x="553" y="139" type="curve"/>
      <point x="506" y="152" type="line"/>
      <point x="487" y="94"/>
      <point x="454" y="32"/>
      <point x="433" y="32" type="curve" smooth="yes"/>
      <point x="423" y="32"/>
      <point x="419" y="39"/>
      <point x="419" y="53" type="curve" smooth="yes"/>
      <point x="419" y="72"/>
      <point x="429" y="100"/>
      <point x="444" y="138" type="curve"/>
      <point x="460" y="182"/>
      <point x="476" y="225"/>
      <point x="493" y="269" type="curve" smooth="yes"/>
      <point x="506" y="305"/>
      <point x="513" y="337"/>
      <point x="513" y="363" type="curve" smooth="yes"/>
      <point x="513" y="423"/>
      <point x="480" y="462"/>
      <point x="425" y="462" type="curve" smooth="yes"/>
      <point x="384" y="462"/>
      <point x="324" y="421"/>
      <point x="279" y="364" type="curve"/>
      <point x="280" y="372"/>
      <point x="281" y="379"/>
      <point x="281" y="386" type="curve" smooth="yes"/>
      <point x="281" y="428"/>
      <point x="257" y="462"/>
      <point x="202" y="462" type="curve" smooth="yes"/>
      <point x="127" y="462"/>
      <point x="76" y="394"/>
      <point x="51" y="312" type="curve"/>
      <point x="97" y="297" type="line"/>
      <point x="116" y="356"/>
      <point x="149" y="418"/>
      <point x="170" y="418" type="curve" smooth="yes"/>
      <point x="178" y="418"/>
      <point x="182" y="411"/>
      <point x="182" y="398" type="curve" smooth="yes"/>
      <point x="182" y="382"/>
      <point x="175" y="361"/>
      <point x="166" y="333" type="curve" smooth="yes"/>
      <point x="164" y="327"/>
      <point x="161" y="319"/>
      <point x="159" y="312" type="curve" smooth="yes"/>
    </contour>
  </outline>
</glyph>
<glyph name="o" format="2">
  <advance width="489"/>
  <unicode hex="006F"/>
  <anchor x="280" y="488" name="t.asciicircum_1"/>
  <outline>
    <contour>
      <point x="337" y="367" type="curve" smooth="yes"/>
      <point x="337" y="316"/>
      <point x="316" y="260"/>
      <point x="300" y="212" type="curve" smooth="yes"/>
      <point x="283" y="161"/>
      <point x="245" y="18"/>
      <point x="177" y="18" type="curve" smooth="yes"/>
      <point x="139" y="18"/>
      <point x="128" y="52"/>
      <point x="128" y="84" type="curve" smooth="yes"/>
      <point x="128" y="133"/>
      <point x="149" y="191"/>
      <point x="164" y="237" type="curve" smooth="yes"/>
      <point x="181" y="287"/>
      <point x="221" y="435"/>
      <point x="288" y="435" type="curve" smooth="yes"/>
      <point x="326" y="435"/>
      <point x="337" y="399"/>
    </contour>
    <contour>
      <point x="284" y="462" type="curve" smooth="yes"/>
      <point x="140" y="462"/>
      <point x="25" y="296"/>
      <point x="25" y="162" type="curve" smooth="yes"/>
      <point x="25" y="67"/>
      <point x="79" y="-12"/>
      <point x="180" y="-12" type="curve" smooth="yes"/>
      <point x="325" y="-12"/>
      <point x="439" y="153"/>
      <point x="439" y="288" type="curve" smooth="yes"/>
      <point x="439" y="383"/>
      <point x="385" y="462"/>
    </contour>
  </outline>
</glyph>
<glyph name="p" format="2">
  <advance width="583"/>
  <unicode hex="0070"/>
  <outline>
    <contour>
      <point x="201" y="80" type="line"/>
      <point x="191" y="80" type="line"/>
      <point x="199" y="80" type="line"/>
      <point x="189" y="80" type="line"/>
      <point x="203" y="24"/>
      <point x="239" y="-12"/>
      <point x="294" y="-12" type="curve" smooth="yes"/>
      <point x="429" y="-12"/>
      <point x="543" y="173"/>
      <point x="543" y="332" type="curve" smooth="yes"/>
      <point x="543" y="402"/>
      <point x="503" y="462"/>
      <point x="425" y="462" type="curve" smooth="yes"/>
      <point x="377" y="462"/>
      <point x="321" y="429"/>
      <point x="279" y="371" type="curve"/>
      <point x="287" y="371" type="line"/>
      <point x="286" y="371" type="line"/>
      <point x="287" y="374"/>
      <point x="287" y="378"/>
      <point x="287" y="381" type="curve" smooth="yes"/>
      <point x="287" y="428"/>
      <point x="263" y="462"/>
      <point x="206" y="462" type="curve" smooth="yes"/>
      <point x="128" y="462"/>
      <point x="52" y="376"/>
      <point x="13" y="250" type="curve"/>
      <point x="64" y="241" type="line"/>
      <point x="100" y="346"/>
      <point x="151" y="418"/>
      <point x="177" y="418" type="curve" smooth="yes"/>
      <point x="185" y="418"/>
      <point x="188" y="410"/>
      <point x="188" y="395" type="curve" smooth="yes"/>
      <point x="188" y="376"/>
      <point x="180" y="348"/>
      <point x="168" y="312" type="curve" smooth="yes"/>
      <point x="20" y="-144" type="line" smooth="yes"/>
      <point x="9" y="-179"/>
      <point x="-11" y="-198"/>
      <point x="-42" y="-198" type="curve" smooth="yes"/>
      <point x="-90" y="-198" type="line"/>
      <point x="-100" y="-230" type="line"/>
      <point x="206" y="-230" type="line"/>
      <point x="216" y="-198" type="line"/>
      <point x="164" y="-198" type="line" smooth="yes"/>
      <point x="140" y="-198"/>
      <point x="126" y="-192"/>
      <point x="126" y="-170" type="curve" smooth="yes"/>
      <point x="126" y="-161"/>
      <point x="128" y="-151"/>
      <point x="132" y="-139" type="curve" smooth="yes"/>
    </contour>
    <contour>
      <point x="397" y="421" type="curve" smooth="yes"/>
      <point x="419" y="421"/>
      <point x="428" y="397"/>
      <point x="428" y="357" type="curve" smooth="yes"/>
      <point x="428" y="278"/>
      <point x="356" y="31"/>
      <point x="274" y="31" type="curve" smooth="yes"/>
      <point x="247" y="31"/>
      <point x="229" y="76"/>
      <point x="229" y="130" type="curve" smooth="yes"/>
      <point x="229" y="156"/>
      <point x="237" y="186"/>
      <point x="247" y="214" type="curve" smooth="yes"/>
      <point x="259" y="250" type="line" smooth="yes"/>
      <point x="292" y="352"/>
      <point x="362" y="421"/>
    </contour>
  </outline>
</glyph>
<glyph name="q" format="2">
  <advance width="504"/>
  <unicode hex="0071"/>
  <outline>
    <contour>
      <point x="76" y="-230" type="line"/>
      <point x="372" y="-230" type="line"/>
      <point x="382" y="-198" type="line"/>
      <point x="370" y="-198"/>
      <point x="359" y="-199"/>
      <point x="347" y="-199" type="curve" smooth="yes"/>
      <point x="326" y="-199"/>
      <point x="302" y="-196"/>
      <point x="302" y="-170" type="curve" smooth="yes"/>
      <point x="302" y="-159"/>
      <point x="305" y="-149"/>
      <point x="308" y="-139" type="curve" smooth="yes"/>
      <point x="500" y="454" type="line"/>
      <point x="458" y="464" type="line"/>
      <point x="386" y="386" type="line"/>
      <point x="374" y="434"/>
      <point x="335" y="462"/>
      <point x="287" y="462" type="curve" smooth="yes"/>
      <point x="176" y="462"/>
      <point x="79" y="350"/>
      <point x="47" y="252" type="curve" smooth="yes"/>
      <point x="36" y="218"/>
      <point x="32" y="183"/>
      <point x="32" y="148" type="curve" smooth="yes"/>
      <point x="32" y="76"/>
      <point x="57" y="-12"/>
      <point x="144" y="-12" type="curve" smooth="yes"/>
      <point x="189" y="-12"/>
      <point x="231" y="16"/>
      <point x="262" y="46" type="curve"/>
      <point x="196" y="-146" type="line" smooth="yes"/>
      <point x="174" y="-210"/>
      <point x="142" y="-198"/>
      <point x="86" y="-198" type="curve"/>
    </contour>
    <contour>
      <point x="293" y="430" type="curve" smooth="yes"/>
      <point x="333" y="430"/>
      <point x="338" y="377"/>
      <point x="338" y="347" type="curve" smooth="yes"/>
      <point x="338" y="261"/>
      <point x="266" y="26"/>
      <point x="159" y="26" type="curve" smooth="yes"/>
      <point x="136" y="26"/>
      <point x="134" y="67"/>
      <point x="134" y="84" type="curve" smooth="yes"/>
      <point x="134" y="160"/>
      <point x="193" y="430"/>
    </contour>
  </outline>
</glyph>
<glyph name="r" format="2">
  <advance width="478"/>
  <unicode hex="0072"/>
  <anchor x="295" y="488" name="t.asciicircum_1"/>
  <outline>
    <contour>
      <point x="72" y="0" type="line"/>
      <point x="182" y="0" type="line"/>
      <point x="258" y="233" type="line" smooth="yes"/>
      <point x="277" y="292"/>
      <point x="298" y="375"/>
      <point x="353" y="409" type="curve" smooth="yes"/>
      <point x="359" y="413"/>
      <point x="359" y="404"/>
      <point x="359" y="386" type="curve" smooth="yes"/>
      <point x="359" y="358"/>
      <point x="363" y="327"/>
      <point x="417" y="327" type="curve" smooth="yes"/>
      <point x="456" y="327"/>
      <point x="483" y="358"/>
      <point x="483" y="396" type="curve" smooth="yes"/>
      <point x="483" y="438"/>
      <point x="441" y="463"/>
      <point x="403" y="463" type="curve" smooth="yes"/>
      <point x="355" y="463"/>
      <point x="306" y="418"/>
      <point x="278" y="383" type="curve"/>
      <point x="271" y="432"/>
      <point x="250" y="462"/>
      <point x="197" y="462" type="curve" smooth="yes"/>
      <point x="93" y="462"/>
      <point x="53" y="340"/>
      <point x="28" y="258" type="curve"/>
      <point x="66" y="246" type="line"/>
      <point x="75" y="274"/>
      <point x="118" y="418"/>
      <point x="163" y="418" type="curve" smooth="yes"/>
      <point x="179" y="418"/>
      <point x="179" y="383"/>
      <point x="179" y="377" type="curve" smooth="yes"/>
      <point x="179" y="341"/>
      <point x="168" y="295"/>
      <point x="157" y="261" type="curve" smooth="yes"/>
    </contour>
  </outline>
</glyph>
<glyph name="s" format="2">
  <advance width="444"/>
  <unicode hex="0073"/>
  <outline>
    <contour>
      <point x="105" y="53" type="curve" smooth="yes"/>
      <point x="105" y="74"/>
      <point x="131" y="83"/>
      <point x="131" y="111" type="curve" smooth="yes"/>
      <point x="131" y="144"/>
      <point x="98" y="160"/>
      <point x="69" y="160" type="curve" smooth="yes"/>
      <point x="32" y="160"/>
      <point x="3" y="136"/>
      <point x="3" y="98" type="curve" smooth="yes"/>
      <point x="3" y="29"/>
      <point x="108" y="-12"/>
      <point x="165" y="-12" type="curve" smooth="yes"/>
      <point x="241" y="-12"/>
      <point x="371" y="33"/>
      <point x="371" y="126" type="curve" smooth="yes"/>
      <point x="371" y="232"/>
      <point x="183" y="284"/>
      <point x="183" y="364" type="curve" smooth="yes"/>
      <point x="183" y="412"/>
      <point x="231" y="440"/>
      <point x="265" y="440" type="curve" smooth="yes"/>
      <point x="286" y="440"/>
      <point x="312" y="430"/>
      <point x="312" y="412" type="curve" smooth="yes"/>
      <point x="312" y="385"/>
      <point x="287" y="384"/>
      <point x="287" y="361" type="curve" smooth="yes"/>
      <point x="287" y="329"/>
      <point x="320" y="314"/>
      <point x="348" y="314" type="curve" smooth="yes"/>
      <point x="381" y="314"/>
      <point x="411" y="337"/>
      <point x="411" y="372" type="curve" smooth="yes"/>
      <point x="411" y="438"/>
      <point x="327" y="462"/>
      <point x="274" y="462" type="curve" smooth="yes"/>
      <point x="203" y="462"/>
      <point x="77" y="427"/>
      <point x="77" y="338" type="curve" smooth="yes"/>
      <point x="77" y="228"/>
      <point x="261" y="204"/>
      <point x="261" y="98" type="curve" smooth="yes"/>
      <point x="261" y="45"/>
      <point x="217" y="12"/>
      <point x="168" y="12" type="curve" smooth="yes"/>
      <point x="140" y="12"/>
      <point x="105" y="28"/>
    </contour>
  </outline>
</glyph>
<glyph name="t" format="2">
  <advance width="379"/>
  <unicode hex="0074"/>
  <outline>
    <contour>
      <point x="60" y="142" type="line" smooth="yes"/>
      <point x="53" y="121"/>
      <point x="50" y="101"/>
      <point x="50" y="84" type="curve" smooth="yes"/>
      <point x="50" y="30"/>
      <point x="83" y="-8"/>
      <point x="147" y="-8" type="curve" smooth="yes"/>
      <point x="212" y="-8"/>
      <point x="289" y="46"/>
      <point x="326" y="166" type="curve"/>
      <point x="276" y="179" type="line"/>
      <point x="240" y="73"/>
      <point x="188" y="36"/>
      <point x="166" y="36" type="curve" smooth="yes"/>
      <point x="156" y="36"/>
      <point x="151" y="45"/>
      <point x="151" y="62" type="curve" smooth="yes"/>
      <point x="151" y="80"/>
      <point x="159" y="107"/>
      <point x="170" y="142" type="curve" smooth="yes"/>
      <point x="178" y="165"/>
      <point x="185" y="187"/>
      <point x="192" y="210" type="curve"/>
      <point x="237" y="347" type="line"/>
      <point x="244" y="370"/>
      <point x="252" y="392"/>
      <point x="259" y="415" type="curve"/>
      <point x="358" y="415" type="line"/>
      <point x="369" y="450" type="line"/>
      <point x="270" y="450" type="line"/>
      <point x="335" y="649" type="line"/>
      <point x="210" y="603" type="line"/>
      <point x="160" y="450" type="line"/>
      <point x="78" y="450" type="line"/>
      <point x="67" y="415" type="line"/>
      <point x="149" y="415" type="line"/>
    </contour>
  </outline>
</glyph>
<glyph name="u" format="2">
  <advance width="594"/>
  <unicode hex="0075"/>
  <anchor x="345" y="495" name="t.asciicircum_1"/>
  <outline>
    <contour>
      <point x="98" y="298" type="line"/>
      <point x="105" y="320"/>
      <point x="143" y="418"/>
      <point x="171" y="418" type="curve" smooth="yes"/>
      <point x="183" y="418"/>
      <point x="185" y="407"/>
      <point x="185" y="397" type="curve" smooth="yes"/>
      <point x="185" y="332"/>
      <point x="93" y="185"/>
      <point x="93" y="92" type="curve" smooth="yes"/>
      <point x="93" y="35"/>
      <point x="124" y="-12"/>
      <point x="185" y="-12" type="curve" smooth="yes"/>
      <point x="236" y="-12"/>
      <point x="298" y="46"/>
      <point x="327" y="84" type="curve"/>
      <point x="326" y="77"/>
      <point x="325" y="69"/>
      <point x="325" y="62" type="curve" smooth="yes"/>
      <point x="325" y="14"/>
      <point x="355" y="-12"/>
      <point x="402" y="-12" type="curve" smooth="yes"/>
      <point x="484" y="-12"/>
      <point x="532" y="69"/>
      <point x="553" y="138" type="curve"/>
      <point x="507" y="153" type="line"/>
      <point x="500" y="131"/>
      <point x="463" y="32"/>
      <point x="434" y="32" type="curve" smooth="yes"/>
      <point x="424" y="32"/>
      <point x="422" y="44"/>
      <point x="422" y="52" type="curve" smooth="yes"/>
      <point x="422" y="75"/>
      <point x="438" y="115"/>
      <point x="445" y="138" type="curve" smooth="yes"/>
      <point x="546" y="450" type="line"/>
      <point x="436" y="450" type="line"/>
      <point x="368" y="241" type="line" smooth="yes"/>
      <point x="360" y="215"/>
      <point x="349" y="191"/>
      <point x="336" y="167" type="curve" smooth="yes"/>
      <point x="319" y="136"/>
      <point x="248" y="26"/>
      <point x="207" y="26" type="curve" smooth="yes"/>
      <point x="193" y="26"/>
      <point x="193" y="57"/>
      <point x="193" y="65" type="curve" smooth="yes"/>
      <point x="193" y="164"/>
      <point x="286" y="299"/>
      <point x="286" y="384" type="curve" smooth="yes"/>
      <point x="286" y="435"/>
      <point x="252" y="462"/>
      <point x="203" y="462" type="curve" smooth="yes"/>
      <point x="121" y="462"/>
      <point x="72" y="381"/>
      <point x="51" y="311" type="curve"/>
    </contour>
  </outline>
</glyph>
<glyph name="v" format="2">
  <advance width="535"/>
  <unicode hex="0076"/>
  <outline>
    <contour>
      <point x="495" y="342" type="curve" smooth="yes"/>
      <point x="495" y="398"/>
      <point x="469" y="474"/>
      <point x="402" y="474" type="curve" smooth="yes"/>
      <point x="375" y="474"/>
      <point x="350" y="450"/>
      <point x="350" y="423" type="curve" smooth="yes"/>
      <point x="350" y="360"/>
      <point x="435" y="330"/>
      <point x="435" y="270" type="curve" smooth="yes"/>
      <point x="435" y="185"/>
      <point x="374" y="34"/>
      <point x="255" y="34" type="curve" smooth="yes"/>
      <point x="220" y="34"/>
      <point x="210" y="82"/>
      <point x="210" y="107" type="curve" smooth="yes"/>
      <point x="210" y="203"/>
      <point x="289" y="300"/>
      <point x="289" y="377" type="curve" smooth="yes"/>
      <point x="289" y="429"/>
      <point x="251" y="462"/>
      <point x="200" y="462" type="curve" smooth="yes"/>
      <point x="113" y="462"/>
      <point x="58" y="386"/>
      <point x="35" y="310" type="curve"/>
      <point x="72" y="300" type="line"/>
      <point x="83" y="332"/>
      <point x="130" y="418"/>
      <point x="172" y="418" type="curve" smooth="yes"/>
      <point x="186" y="418"/>
      <point x="186" y="401"/>
      <point x="186" y="392" type="curve" smooth="yes"/>
      <point x="186" y="318"/>
      <point x="108" y="211"/>
      <point x="108" y="111" type="curve" smooth="yes"/>
      <point x="108" y="28"/>
      <point x="161" y="-12"/>
      <point x="241" y="-12" type="curve" smooth="yes"/>
      <point x="403" y="-12"/>
      <point x="495" y="204"/>
    </contour>
  </outline>
</glyph>
<glyph name="w" format="2">
  <advance width="744"/>
  <unicode hex="0077"/>
  <anchor x="435" y="498" name="t.asciicircum_1"/>
  <outline>
    <contour>
      <point x="72" y="300" type="line"/>
      <point x="83" y="332"/>
      <point x="130" y="418"/>
      <point x="169" y="418" type="curve" smooth="yes"/>
      <point x="186" y="418"/>
      <point x="190" y="401"/>
      <point x="190" y="392" type="curve" smooth="yes"/>
      <point x="190" y="316"/>
      <point x="100" y="195"/>
      <point x="100" y="83" type="curve" smooth="yes"/>
      <point x="100" y="26"/>
      <point x="125" y="-12"/>
      <point x="186" y="-12" type="curve" smooth="yes"/>
      <point x="251" y="-12"/>
      <point x="313" y="64"/>
      <point x="342" y="115" type="curve"/>
      <point x="342" y="110"/>
      <point x="341" y="104"/>
      <point x="341" y="99" type="curve" smooth="yes"/>
      <point x="341" y="27"/>
      <point x="380" y="-12"/>
      <point x="452" y="-12" type="curve" smooth="yes"/>
      <point x="593" y="-12"/>
      <point x="704" y="244"/>
      <point x="704" y="363" type="curve" smooth="yes"/>
      <point x="704" y="413"/>
      <point x="683" y="475"/>
      <point x="624" y="475" type="curve" smooth="yes"/>
      <point x="594" y="475"/>
      <point x="568" y="447"/>
      <point x="568" y="418" type="curve" smooth="yes"/>
      <point x="568" y="363"/>
      <point x="629" y="325"/>
      <point x="629" y="273" type="curve" smooth="yes"/>
      <point x="629" y="208"/>
      <point x="540" y="28"/>
      <point x="474" y="28" type="curve" smooth="yes"/>
      <point x="439" y="28"/>
      <point x="439" y="77"/>
      <point x="439" y="95" type="curve" smooth="yes"/>
      <point x="439" y="133"/>
      <point x="447" y="175"/>
      <point x="457" y="212" type="curve" smooth="yes"/>
      <point x="521" y="450" type="line"/>
      <point x="412" y="450" type="line"/>
      <point x="367" y="281" type="line" smooth="yes"/>
      <point x="353" y="229"/>
      <point x="275" y="33"/>
      <point x="209" y="33" type="curve" smooth="yes"/>
      <point x="189" y="33"/>
      <point x="187" y="56"/>
      <point x="187" y="64" type="curve" smooth="yes"/>
      <point x="187" y="153"/>
      <point x="289" y="294"/>
      <point x="289" y="377" type="curve" smooth="yes"/>
      <point x="289" y="429"/>
      <point x="251" y="462"/>
      <point x="200" y="462" type="curve" smooth="yes"/>
      <point x="113" y="462"/>
      <point x="58" y="386"/>
      <point x="35" y="310" type="curve"/>
    </contour>
  </outline>
</glyph>
<glyph name="x" format="2">
  <advance width="607"/>
  <unicode hex="0078"/>
  <outline>
    <contour>
      <point x="352" y="258" type="curve"/>
      <point x="382" y="300"/>
      <point x="436" y="387"/>
      <point x="481" y="408" type="curve" smooth="yes"/>
      <point x="487" y="411"/>
      <point x="485" y="390"/>
      <point x="488" y="382" type="curve" smooth="yes"/>
      <point x="496" y="361"/>
      <point x="505" y="338"/>
      <point x="546" y="338" type="curve" smooth="yes"/>
      <point x="579" y="338"/>
      <point x="614" y="361"/>
      <point x="614" y="397" type="curve" smooth="yes"/>
      <point x="614" y="440"/>
      <point x="570" y="462"/>
      <point x="532" y="462" type="curve" smooth="yes"/>
      <point x="449" y="462"/>
      <point x="397" y="392"/>
      <point x="352" y="332" type="curve"/>
      <point x="347" y="400"/>
      <point x="333" y="462"/>
      <point x="253" y="462" type="curve" smooth="yes"/>
      <point x="166" y="462"/>
      <point x="97" y="370"/>
      <point x="74" y="294" type="curve"/>
      <point x="113" y="280" type="line"/>
      <point x="123" y="310"/>
      <point x="168" y="412"/>
      <point x="214" y="412" type="curve" smooth="yes"/>
      <point x="251" y="412"/>
      <point x="248" y="292"/>
      <point x="248" y="274" type="curve" smooth="yes"/>
      <point x="248" y="249"/>
      <point x="249" y="224"/>
      <point x="248" y="199" type="curve"/>
      <point x="223" y="167"/>
      <point x="148" y="59"/>
      <point x="112" y="48" type="curve" smooth="yes"/>
      <point x="101" y="45"/>
      <point x="102" y="55"/>
      <point x="102" y="59" type="curve" smooth="yes"/>
      <point x="102" y="75"/>
      <point x="96" y="109"/>
      <point x="41" y="109" type="curve" smooth="yes"/>
      <point x="8" y="109"/>
      <point x="-22" y="86"/>
      <point x="-22" y="51" type="curve" smooth="yes"/>
      <point x="-22" y="8"/>
      <point x="23" y="-12"/>
      <point x="60" y="-12" type="curve" smooth="yes"/>
      <point x="136" y="-12"/>
      <point x="203" y="78"/>
      <point x="248" y="132" type="curve"/>
      <point x="256" y="48"/>
      <point x="291" y="-12"/>
      <point x="380" y="-12" type="curve" smooth="yes"/>
      <point x="472" y="-12"/>
      <point x="520" y="85"/>
      <point x="544" y="161" type="curve"/>
      <point x="501" y="169" type="line"/>
      <point x="490" y="137"/>
      <point x="446" y="30"/>
      <point x="402" y="30" type="curve" smooth="yes"/>
      <point x="354" y="30"/>
      <point x="352" y="162"/>
      <point x="352" y="193" type="curve" smooth="yes"/>
      <point x="352" y="211"/>
      <point x="351" y="239"/>
    </contour>
  </outline>
</glyph>
<glyph name="y" format="2">
  <advance width="521"/>
  <unicode hex="0079"/>
  <anchor x="335" y="498" name="t.asciicircum_1"/>
  <outline>
    <contour>
      <point x="85" y="298" type="line"/>
      <point x="92" y="320"/>
      <point x="130" y="418"/>
      <point x="158" y="418" type="curve" smooth="yes"/>
      <point x="170" y="418"/>
      <point x="172" y="407"/>
      <point x="172" y="397" type="curve" smooth="yes"/>
      <point x="172" y="372"/>
      <point x="156" y="335"/>
      <point x="147" y="312" type="curve" smooth="yes"/>
      <point x="124" y="251"/>
      <point x="85" y="176"/>
      <point x="85" y="107" type="curve" smooth="yes"/>
      <point x="85" y="52"/>
      <point x="114" y="8"/>
      <point x="173" y="8" type="curve" smooth="yes"/>
      <point x="209" y="8"/>
      <point x="246" y="23"/>
      <point x="273" y="47" type="curve"/>
      <point x="255" y="-5"/>
      <point x="190" y="-198"/>
      <point x="121" y="-198" type="curve"/>
      <point x="117" y="-195"/>
      <point x="116" y="-188"/>
      <point x="116" y="-183" type="curve" smooth="yes"/>
      <point x="116" y="-168"/>
      <point x="122" y="-154"/>
      <point x="122" y="-139" type="curve" smooth="yes"/>
      <point x="122" y="-102"/>
      <point x="90" y="-81"/>
      <point x="55" y="-81" type="curve" smooth="yes"/>
      <point x="21" y="-81"/>
      <point x="-10" y="-104"/>
      <point x="-10" y="-140" type="curve" smooth="yes"/>
      <point x="-10" y="-200"/>
      <point x="67" y="-225"/>
      <point x="116" y="-225" type="curve" smooth="yes"/>
      <point x="292" y="-225"/>
      <point x="389" y="75"/>
      <point x="433" y="209" type="curve" smooth="yes"/>
      <point x="511" y="450" type="line"/>
      <point x="401" y="450" type="line"/>
      <point x="322" y="208" type="line" smooth="yes"/>
      <point x="305" y="156"/>
      <point x="262" y="46"/>
      <point x="195" y="46" type="curve" smooth="yes"/>
      <point x="183" y="46"/>
      <point x="184" y="72"/>
      <point x="184" y="78" type="curve" smooth="yes"/>
      <point x="184" y="173"/>
      <point x="273" y="298"/>
      <point x="273" y="384" type="curve" smooth="yes"/>
      <point x="273" y="435"/>
      <point x="239" y="462"/>
      <point x="190" y="462" type="curve" smooth="yes"/>
      <point x="108" y="462"/>
      <point x="59" y="381"/>
      <point x="38" y="311" type="curve"/>
    </contour>
  </outline>
</glyph>
<glyph name="z" format="2">
  <advance width="476"/>
  <unicode hex="007A"/>
  <anchor x="317" y="488" name="t.asciicircum_1"/>
  <outline>
    <contour>
      <point x="136" y="103" type="curve"/>
      <point x="491" y="436" type="line"/>
      <point x="477" y="459" type="line"/>
      <point x="424" y="450"/>
      <point x="369" y="446"/>
      <point x="315" y="446" type="curve" smooth="yes"/>
      <point x="259" y="446"/>
      <point x="202" y="450"/>
      <point x="146" y="459" type="curve"/>
      <point x="74" y="270" type="line"/>
      <point x="123" y="269" type="line"/>
      <point x="168" y="371" type="line"/>
      <point x="226" y="363"/>
      <point x="286" y="359"/>
      <point x="345" y="364" type="curve"/>
      <point x="-31" y="11" type="line"/>
      <point x="1" y="-13" type="line"/>
      <point x="21" y="7"/>
      <point x="64" y="41"/>
      <point x="94" y="41" type="curve" smooth="yes"/>
      <point x="151" y="41"/>
      <point x="189" y="-12"/>
      <point x="254" y="-12" type="curve" smooth="yes"/>
      <point x="337" y="-12"/>
      <point x="413" y="43"/>
      <point x="413" y="131" type="curve" smooth="yes"/>
      <point x="413" y="168"/>
      <point x="396" y="204"/>
      <point x="354" y="204" type="curve" smooth="yes"/>
      <point x="330" y="204"/>
      <point x="302.85" y="190.011"/>
      <point x="301" y="163" type="curve" smooth="yes"/>
      <point x="297.85" y="117.01"/>
      <point x="350" y="123"/>
      <point x="350" y="93" type="curve" smooth="yes"/>
      <point x="350" y="70"/>
      <point x="318" y="61"/>
      <point x="300" y="61" type="curve" smooth="yes"/>
      <point x="249" y="61"/>
      <point x="203" y="113"/>
    </contour>
  </outline>
</glyph>
<glyph name="braceleft" format="2">
  <advance width="436"/>
  <unicode hex="007B"/>
  <outline>
    <contour>
      <point x="226" y="-199" type="curve"/>
      <point x="236" y="-189" type="line"/>
      <point x="182" y="-169"/>
      <point x="162" y="-116"/>
      <point x="162" y="-83" type="curve" smooth="yes"/>
      <point x="162" y="-45"/>
      <point x="174" y="-39"/>
      <point x="211" y="16" type="curve" smooth="yes"/>
      <point x="255" y="81"/>
      <point x="270" y="129"/>
      <point x="270" y="180" type="curve" smooth="yes"/>
      <point x="270" y="233"/>
      <point x="223" y="260"/>
      <point x="191" y="275" type="curve"/>
      <point x="283" y="307"/>
      <point x="345" y="391"/>
      <point x="349" y="484" type="curve"/>
      <point x="349" y="546" type="line"/>
      <point x="350" y="619"/>
      <point x="350" y="638"/>
      <point x="395" y="679" type="curve"/>
      <point x="412" y="693"/>
      <point x="446" y="722"/>
      <point x="485" y="733" type="curve"/>
      <point x="481" y="748" type="line"/>
      <point x="340" y="705"/>
      <point x="264" y="631"/>
      <point x="264" y="482" type="curve" smooth="yes"/>
      <point x="264" y="434" type="line" smooth="yes"/>
      <point x="264" y="350"/>
      <point x="240" y="309"/>
      <point x="204" y="299" type="curve"/>
      <point x="186" y="292"/>
      <point x="157" y="282"/>
      <point x="125" y="282" type="curve"/>
      <point x="121" y="264" type="line"/>
      <point x="181" y="264"/>
      <point x="212" y="250"/>
      <point x="212" y="214" type="curve" smooth="yes"/>
      <point x="212" y="179"/>
      <point x="194" y="144"/>
      <point x="165" y="88" type="curve"/>
      <point x="125" y="17"/>
      <point x="109" y="-22"/>
      <point x="109" y="-67" type="curve" smooth="yes"/>
      <point x="109" y="-127"/>
      <point x="148" y="-170"/>
    </contour>
  </outline>
</glyph>
<glyph name="braceright" format="2">
  <advance width="436"/>
  <unicode hex="007D"/>
  <outline>
    <contour>
      <point x="-3" y="-185" type="line"/>
      <point x="36" y="-174"/>
      <point x="51" y="-162"/>
      <point x="84" y="-134" type="curve"/>
      <point x="117" y="-101"/>
      <point x="131" y="-70"/>
      <point x="132" y="3" type="curve"/>
      <point x="132" y="64" type="line"/>
      <point x="136" y="161"/>
      <point x="189" y="243"/>
      <point x="285" y="275" type="curve"/>
      <point x="252" y="292"/>
      <point x="211" y="319"/>
      <point x="211" y="369" type="curve" smooth="yes"/>
      <point x="211" y="420"/>
      <point x="233" y="465"/>
      <point x="270" y="533" type="curve"/>
      <point x="301" y="583"/>
      <point x="325" y="600"/>
      <point x="324" y="640" type="curve" smooth="yes"/>
      <point x="323" y="674"/>
      <point x="302" y="718"/>
      <point x="249" y="738" type="curve"/>
      <point x="255" y="748" type="line"/>
      <point x="334" y="719"/>
      <point x="373" y="676"/>
      <point x="373" y="616" type="curve" smooth="yes"/>
      <point x="373" y="571"/>
      <point x="356" y="532"/>
      <point x="316" y="461" type="curve"/>
      <point x="287" y="405"/>
      <point x="269" y="369"/>
      <point x="269" y="335" type="curve" smooth="yes"/>
      <point x="269" y="299"/>
      <point x="300" y="284"/>
      <point x="360" y="284" type="curve"/>
      <point x="355" y="265" type="line"/>
      <point x="253" y="265"/>
      <point x="217" y="226"/>
      <point x="217" y="115" type="curve" smooth="yes"/>
      <point x="217" y="66" type="line" smooth="yes"/>
      <point x="217" y="-82"/>
      <point x="141" y="-156"/>
      <point x="0" y="-199" type="curve"/>
    </contour>
  </outline>
</glyph>
<glyph name="asciitilde" format="2">
  <advance width="321"/>
  <unicode hex="007E"/>
  <outline>
    <contour>
      <point x="68" y="258" type="curve" smooth="yes"/>
      <point x="80" y="258"/>
      <point x="101" y="245"/>
      <point x="123" y="230" type="curve"/>
      <point x="149" y="214"/>
      <point x="178" y="196"/>
      <point x="210" y="196" type="curve" smooth="yes"/>
      <point x="268" y="196"/>
      <point x="304" y="251"/>
      <point x="320" y="292" type="curve"/>
      <point x="282" y="306" type="line"/>
      <point x="269" y="279"/>
      <point x="252" y="254"/>
      <point x="233" y="254" type="curve" smooth="yes"/>
      <point x="221" y="254"/>
      <point x="200" y="267"/>
      <point x="178" y="282" type="curve"/>
      <point x="152" y="298"/>
      <point x="123" y="316"/>
      <point x="91" y="316" type="curve" smooth="yes"/>
      <point x="33" y="316"/>
      <point x="-3" y="261"/>
      <point x="-19" y="220" type="curve"/>
      <point x="19" y="206" type="line"/>
      <point x="32" y="233"/>
      <point x="49" y="258"/>
    </contour>
  </outline>
</glyph>
<glyph name="sterling" format="2">
  <advance width="735"/>
  <unicode hex="00A3"/>
  <outline>
    <contour>
      <point x="52" y="-16" type="curve" smooth="yes"/>
      <point x="115" y="-16"/>
      <point x="174" y="9"/>
      <point x="228" y="56" type="curve"/>
      <point x="254" y="43" type="line"/>
      <point x="323" y="4"/>
      <point x="373" y="-16"/>
      <point x="425" y="-16" type="curve" smooth="yes"/>
      <point x="583" y="-16"/>
      <point x="663" y="81"/>
      <point x="692" y="230" type="curve"/>
      <point x="662" y="238" type="line"/>
      <point x="639" y="130"/>
      <point x="569" y="62"/>
      <point x="456" y="62" type="curve" smooth="yes"/>
      <point x="421" y="62"/>
      <point x="384" y="74"/>
      <point x="326" y="98" type="curve"/>
      <point x="319" y="100"/>
      <point x="312" y="103"/>
      <point x="305" y="106" type="curve" smooth="yes"/>
      <point x="297" y="108"/>
      <point x="290" y="111"/>
      <point x="281" y="114" type="curve"/>
      <point x="321" y="166"/>
      <point x="354" y="230"/>
      <point x="378" y="307" type="curve"/>
      <point x="420" y="301"/>
      <point x="457" y="297"/>
      <point x="489" y="297" type="curve" smooth="yes"/>
      <point x="530" y="297"/>
      <point x="574" y="310"/>
      <point x="595" y="328" type="curve"/>
      <point x="584" y="359" type="line"/>
      <point x="554" y="343"/>
      <point x="527" y="335"/>
      <point x="489" y="335" type="curve" smooth="yes"/>
      <point x="456" y="335"/>
      <point x="423" y="338"/>
      <point x="390" y="344" type="curve"/>
      <point x="396" y="364"/>
      <point x="400" y="385"/>
      <point x="404" y="408" type="curve"/>
      <point x="425" y="510"/>
      <point x="446" y="589"/>
      <point x="494" y="644" type="curve" smooth="yes"/>
      <point x="516" y="671"/>
      <point x="546" y="684"/>
      <point x="582" y="684" type="curve" smooth="yes"/>
      <point x="640" y="684"/>
      <point x="665" y="651"/>
      <point x="665" y="620" type="curve" smooth="yes"/>
      <point x="665" y="609"/>
      <point x="661" y="607"/>
      <point x="653" y="607" type="curve" smooth="yes"/>
      <point x="648" y="607"/>
      <point x="643" y="609"/>
      <point x="639" y="610" type="curve"/>
      <point x="632" y="613"/>
      <point x="625" y="615"/>
      <point x="616" y="615" type="curve" smooth="yes"/>
      <point x="594" y="615"/>
      <point x="574" y="602"/>
      <point x="574" y="571" type="curve" smooth="yes"/>
      <point x="574" y="531"/>
      <point x="606" y="514"/>
      <point x="640" y="514" type="curve" smooth="yes"/>
      <point x="678" y="514"/>
      <point x="711" y="548"/>
      <point x="711" y="598" type="curve" smooth="yes"/>
      <point x="711" y="644"/>
      <point x="680" y="716"/>
      <point x="583" y="716" type="curve" smooth="yes"/>
      <point x="456" y="716"/>
      <point x="361" y="596"/>
      <point x="300" y="361" type="curve"/>
      <point x="265" y="367"/>
      <point x="234" y="370"/>
      <point x="206" y="370" type="curve" smooth="yes"/>
      <point x="163" y="370"/>
      <point x="124" y="356"/>
      <point x="99" y="338" type="curve"/>
      <point x="110" y="307" type="line"/>
      <point x="148" y="324"/>
      <point x="167" y="331"/>
      <point x="206" y="331" type="curve" smooth="yes"/>
      <point x="227" y="331"/>
      <point x="254" y="328"/>
      <point x="291" y="324" type="curve"/>
      <point x="269" y="240"/>
      <point x="248" y="178"/>
      <point x="223" y="133" type="curve"/>
      <point x="186" y="142"/>
      <point x="151" y="147"/>
      <point x="117" y="147" type="curve" smooth="yes"/>
      <point x="56" y="147"/>
      <point x="-33" y="122"/>
      <point x="-33" y="46" type="curve" smooth="yes"/>
      <point x="-33" y="5"/>
      <point x="6" y="-16"/>
    </contour>
    <contour>
      <point x="56" y="18" type="curve" smooth="yes"/>
      <point x="28" y="18"/>
      <point x="5" y="24"/>
      <point x="5" y="48" type="curve" smooth="yes"/>
      <point x="5" y="81"/>
      <point x="39" y="103"/>
      <point x="73" y="103" type="curve" smooth="yes"/>
      <point x="106" y="103"/>
      <point x="144" y="94"/>
      <point x="183" y="77" type="curve"/>
      <point x="147" y="38"/>
      <point x="105" y="18"/>
    </contour>
  </outline>
</glyph>
<glyph name="currency" format="2">
  <advance width="601"/>
  <unicode hex="00A4"/>
  <outline>
    <contour>
      <point x="82" y="142" type="line"/>
      <point x="150" y="210" type="line"/>
      <point x="118" y="250"/>
      <point x="102" y="298"/>
      <point x="102" y="350" type="curve" smooth="yes"/>
      <point x="102" y="401"/>
      <point x="120" y="451"/>
      <point x="151" y="492" type="curve"/>
      <point x="82" y="560" type="line"/>
      <point x="120" y="598" type="line"/>
      <point x="187" y="530" type="line"/>
      <point x="228" y="561"/>
      <point x="278" y="579"/>
      <point x="329" y="579" type="curve" smooth="yes"/>
      <point x="380" y="579"/>
      <point x="431" y="561"/>
      <point x="470" y="530" type="curve"/>
      <point x="538" y="598" type="line"/>
      <point x="576" y="560" type="line"/>
      <point x="508" y="492" type="line"/>
      <point x="537" y="451"/>
      <point x="556" y="401"/>
      <point x="556" y="350" type="curve" smooth="yes"/>
      <point x="556" y="298"/>
      <point x="539" y="250"/>
      <point x="509" y="210" type="curve"/>
      <point x="576" y="142" type="line"/>
      <point x="538" y="105" type="line"/>
      <point x="470" y="172" type="line"/>
      <point x="431" y="142"/>
      <point x="380" y="123"/>
      <point x="329" y="123" type="curve" smooth="yes"/>
      <point x="278" y="123"/>
      <point x="228" y="142"/>
      <point x="187" y="172" type="curve"/>
      <point x="120" y="105" type="line"/>
    </contour>
    <contour>
      <point x="329" y="173" type="curve" smooth="yes"/>
      <point x="430" y="173"/>
      <point x="506" y="249"/>
      <point x="506" y="350" type="curve" smooth="yes"/>
      <point x="506" y="450"/>
      <point x="430" y="529"/>
      <point x="329" y="529" type="curve" smooth="yes"/>
      <point x="228" y="529"/>
      <point x="152" y="450"/>
      <point x="152" y="350" type="curve" smooth="yes"/>
      <point x="152" y="249"/>
      <point x="228" y="173"/>
    </contour>
  </outline>
</glyph>
<glyph name="yen" format="2">
  <advance width="599"/>
  <unicode hex="00A5"/>
  <outline>
    <contour>
      <point x="78" y="42" type="line"/>
      <point x="66" y="0" type="line"/>
      <point x="376" y="0" type="line"/>
      <point x="387" y="42" type="line"/>
      <point x="304" y="42" type="line" smooth="yes"/>
      <point x="291" y="42"/>
      <point x="285" y="46"/>
      <point x="285" y="54" type="curve"/>
      <point x="285" y="55"/>
      <point x="286" y="59"/>
      <point x="288" y="63" type="curve"/>
      <point x="326" y="208" type="line"/>
      <point x="468" y="208" type="line"/>
      <point x="480" y="250" type="line"/>
      <point x="339" y="250" type="line"/>
      <point x="352" y="301" type="line"/>
      <point x="493" y="301" type="line"/>
      <point x="506" y="343" type="line"/>
      <point x="368" y="343" type="line"/>
      <point x="584" y="605" type="line" smooth="yes"/>
      <point x="614" y="642"/>
      <point x="632" y="658"/>
      <point x="656" y="658" type="curve" smooth="yes"/>
      <point x="699" y="658" type="line"/>
      <point x="712" y="700" type="line"/>
      <point x="466" y="700" type="line"/>
      <point x="454" y="658" type="line"/>
      <point x="504" y="658" type="line" smooth="yes"/>
      <point x="523" y="658"/>
      <point x="532" y="640"/>
      <point x="532" y="623" type="curve" smooth="yes"/>
      <point x="532" y="608"/>
      <point x="520" y="587"/>
      <point x="511" y="575" type="curve"/>
      <point x="349" y="377" type="line"/>
      <point x="298" y="622" type="line" smooth="yes"/>
      <point x="297" y="627"/>
      <point x="296" y="633"/>
      <point x="296" y="637" type="curve" smooth="yes"/>
      <point x="296" y="641"/>
      <point x="296" y="642"/>
      <point x="297" y="642" type="curve"/>
      <point x="299" y="653"/>
      <point x="308" y="658"/>
      <point x="322" y="658" type="curve" smooth="yes"/>
      <point x="368" y="658" type="line"/>
      <point x="380" y="700" type="line"/>
      <point x="107" y="700" type="line"/>
      <point x="95" y="658" type="line"/>
      <point x="166" y="658" type="line" smooth="yes"/>
      <point x="182" y="658"/>
      <point x="188" y="645"/>
      <point x="195" y="623" type="curve"/>
      <point x="256" y="343" type="line"/>
      <point x="123" y="343" type="line"/>
      <point x="111" y="301" type="line"/>
      <point x="252" y="301" type="line"/>
      <point x="240" y="250" type="line"/>
      <point x="98" y="250" type="line"/>
      <point x="86" y="208" type="line"/>
      <point x="227" y="208" type="line"/>
      <point x="188" y="66" type="line" smooth="yes"/>
      <point x="183.632" y="50.0965"/>
      <point x="175" y="42"/>
      <point x="159" y="42" type="curve" smooth="yes"/>
    </contour>
  </outline>
</glyph>
<glyph name="brokenbar" format="2">
  <advance width="300"/>
  <unicode hex="00A6"/>
  <outline>
    <contour>
      <point x="147" y="374" type="line"/>
      <point x="147" y="747" type="line"/>
      <point x="202" y="747" type="line"/>
      <point x="202" y="374" type="line"/>
    </contour>
    <contour>
      <point x="147" y="-169" type="line"/>
      <point x="147" y="204" type="line"/>
      <point x="202" y="204" type="line"/>
      <point x="202" y="-169" type="line"/>
    </contour>
  </outline>
</glyph>
<glyph name="section" format="2">
  <advance width="638"/>
  <unicode hex="00A7"/>
  <outline>
    <contour>
      <point x="214" y="-187" type="curve" smooth="yes"/>
      <point x="319" y="-187"/>
      <point x="402" y="-104"/>
      <point x="402" y="0" type="curve" smooth="yes"/>
      <point x="402" y="34"/>
      <point x="396" y="61"/>
      <point x="384" y="83" type="curve"/>
      <point x="444" y="113"/>
      <point x="511" y="193"/>
      <point x="511" y="263" type="curve" smooth="yes"/>
      <point x="511" y="309"/>
      <point x="490" y="348"/>
      <point x="448" y="379" type="curve" smooth="yes"/>
      <point x="332" y="467" type="line"/>
      <point x="294" y="494"/>
      <point x="277" y="509"/>
      <point x="277" y="547" type="curve" smooth="yes"/>
      <point x="277" y="634"/>
      <point x="341" y="678"/>
      <point x="393" y="678" type="curve" smooth="yes"/>
      <point x="449" y="678"/>
      <point x="490" y="642"/>
      <point x="490" y="600" type="curve" smooth="yes"/>
      <point x="490" y="593"/>
      <point x="488" y="582"/>
      <point x="479" y="582" type="curve"/>
      <point x="470" y="584" type="line" smooth="yes"/>
      <point x="466" y="585"/>
      <point x="460" y="586"/>
      <point x="455" y="586" type="curve" smooth="yes"/>
      <point x="432" y="586"/>
      <point x="411" y="565"/>
      <point x="411" y="538" type="curve" smooth="yes"/>
      <point x="411" y="505"/>
      <point x="435" y="489"/>
      <point x="460" y="489" type="curve" smooth="yes"/>
      <point x="508" y="489"/>
      <point x="544" y="529"/>
      <point x="544" y="580" type="curve" smooth="yes"/>
      <point x="544" y="644"/>
      <point x="491" y="718"/>
      <point x="403" y="718" type="curve" smooth="yes"/>
      <point x="299" y="718"/>
      <point x="215" y="635"/>
      <point x="215" y="531" type="curve" smooth="yes"/>
      <point x="215" y="497"/>
      <point x="221" y="469"/>
      <point x="234" y="447" type="curve"/>
      <point x="173" y="417"/>
      <point x="106" y="338"/>
      <point x="106" y="267" type="curve" smooth="yes"/>
      <point x="106" y="222"/>
      <point x="127" y="183"/>
      <point x="169" y="152" type="curve" smooth="yes"/>
      <point x="280" y="68" type="line" smooth="yes"/>
      <point x="318" y="39"/>
      <point x="340" y="16"/>
      <point x="340" y="-22" type="curve" smooth="yes"/>
      <point x="340" y="-108"/>
      <point x="277" y="-148"/>
      <point x="224" y="-148" type="curve" smooth="yes"/>
      <point x="168" y="-148"/>
      <point x="128" y="-111"/>
      <point x="128" y="-70" type="curve" smooth="yes"/>
      <point x="128" y="-58"/>
      <point x="129" y="-52"/>
      <point x="131" y="-49" type="curve"/>
      <point x="132" y="-49"/>
      <point x="133" y="-48"/>
      <point x="134" y="-48" type="curve"/>
      <point x="136" y="-48"/>
      <point x="139" y="-49"/>
      <point x="143" y="-51" type="curve" smooth="yes"/>
      <point x="151" y="-54"/>
      <point x="157" y="-55"/>
      <point x="163" y="-55" type="curve" smooth="yes"/>
      <point x="185" y="-55"/>
      <point x="207" y="-34"/>
      <point x="207" y="-7" type="curve" smooth="yes"/>
      <point x="207" y="25"/>
      <point x="180" y="42"/>
      <point x="158" y="42" type="curve" smooth="yes"/>
      <point x="110" y="42"/>
      <point x="74" y="2"/>
      <point x="74" y="-49" type="curve" smooth="yes"/>
      <point x="74" y="-115"/>
      <point x="125" y="-187"/>
    </contour>
    <contour>
      <point x="365" y="103" type="curve"/>
      <point x="369" y="105" type="line"/>
      <point x="360" y="113"/>
      <point x="352" y="121"/>
      <point x="343" y="128" type="curve" smooth="yes"/>
      <point x="299" y="162"/>
      <point x="252" y="197"/>
      <point x="207" y="231" type="curve"/>
      <point x="182" y="250"/>
      <point x="169" y="273"/>
      <point x="169" y="298" type="curve" smooth="yes"/>
      <point x="169" y="347"/>
      <point x="201" y="397"/>
      <point x="249" y="426" type="curve"/>
      <point x="257" y="417"/>
      <point x="265" y="410"/>
      <point x="274" y="403" type="curve" smooth="yes"/>
      <point x="319" y="369"/>
      <point x="366" y="334"/>
      <point x="411" y="300" type="curve" smooth="yes"/>
      <point x="436" y="280"/>
      <point x="449" y="257"/>
      <point x="449" y="233" type="curve" smooth="yes"/>
      <point x="449" y="184"/>
      <point x="412" y="132"/>
    </contour>
  </outline>
</glyph>
<glyph name="dieresis" format="2">
  <advance width="506"/>
  <unicode hex="00A8"/>
  <anchor x="351" y="524" name="_t.asciicircum_1"/>
  <outline>
    <contour>
      <point x="261" y="553" type="curve" smooth="yes"/>
      <point x="234" y="553"/>
      <point x="208" y="578"/>
      <point x="208" y="606" type="curve" smooth="yes"/>
      <point x="208" y="637"/>
      <point x="234" y="659"/>
      <point x="261" y="659" type="curve" smooth="yes"/>
      <point x="292" y="659"/>
      <point x="314" y="637"/>
      <point x="314" y="606" type="curve" smooth="yes"/>
      <point x="314" y="578"/>
      <point x="292" y="553"/>
    </contour>
    <contour>
      <point x="451" y="553" type="curve" smooth="yes"/>
      <point x="422" y="553"/>
      <point x="397" y="578"/>
      <point x="397" y="606" type="curve" smooth="yes"/>
      <point x="397" y="637"/>
      <point x="422" y="659"/>
      <point x="451" y="659" type="curve" smooth="yes"/>
      <point x="481" y="659"/>
      <point x="505" y="637"/>
      <point x="505" y="606" type="curve" smooth="yes"/>
      <point x="505" y="578"/>
      <point x="481" y="553"/>
    </contour>
  </outline>
</glyph>
<glyph name="copyright" format="2">
  <advance width="839"/>
  <unicode hex="00A9"/>
  <outline>
    <contour>
      <point x="443" y="-18" type="curve" smooth="yes"/>
      <point x="654" y="-18"/>
      <point x="814" y="154"/>
      <point x="814" y="365" type="curve" smooth="yes"/>
      <point x="814" y="574"/>
      <point x="652" y="747"/>
      <point x="443" y="747" type="curve" smooth="yes"/>
      <point x="234" y="747"/>
      <point x="74" y="574"/>
      <point x="74" y="365" type="curve" smooth="yes"/>
      <point x="74" y="157"/>
      <point x="235" y="-18"/>
    </contour>
    <contour>
      <point x="443" y="20" type="curve" smooth="yes"/>
      <point x="254" y="20"/>
      <point x="111" y="181"/>
      <point x="111" y="365" type="curve" smooth="yes"/>
      <point x="111" y="548"/>
      <point x="255" y="709"/>
      <point x="443" y="709" type="curve" smooth="yes"/>
      <point x="633" y="709"/>
      <point x="776" y="549"/>
      <point x="776" y="365" type="curve" smooth="yes"/>
      <point x="776" y="179"/>
      <point x="635" y="20"/>
    </contour>
    <contour>
      <point x="456" y="111" type="curve" smooth="yes"/>
      <point x="560" y="111"/>
      <point x="608" y="197"/>
      <point x="614" y="291" type="curve"/>
      <point x="581" y="291" type="line"/>
      <point x="571" y="216"/>
      <point x="543" y="145"/>
      <point x="456" y="145" type="curve" smooth="yes"/>
      <point x="366" y="145"/>
      <point x="346" y="278"/>
      <point x="346" y="346" type="curve" smooth="yes"/>
      <point x="346" y="497"/>
      <point x="383" y="572"/>
      <point x="458" y="572" type="curve" smooth="yes"/>
      <point x="488" y="572"/>
      <point x="529" y="543"/>
      <point x="556" y="499" type="curve"/>
      <point x="568" y="477"/>
      <point x="576" y="451"/>
      <point x="578" y="424" type="curve"/>
      <point x="606" y="424" type="line"/>
      <point x="606" y="599" type="line"/>
      <point x="578" y="599" type="line"/>
      <point x="578" y="583"/>
      <point x="570" y="565"/>
      <point x="561" y="565" type="curve" smooth="yes"/>
      <point x="553" y="565"/>
      <point x="551" y="565"/>
      <point x="544" y="571" type="curve" smooth="yes"/>
      <point x="514" y="594"/>
      <point x="486" y="605"/>
      <point x="458" y="605" type="curve" smooth="yes"/>
      <point x="327" y="605"/>
      <point x="247" y="499"/>
      <point x="247" y="346" type="curve" smooth="yes"/>
      <point x="247" y="221"/>
      <point x="326" y="111"/>
    </contour>
  </outline>
</glyph>
<glyph name="ordfeminine" format="2">
  <advance width="396"/>
  <unicode hex="00AA"/>
  <outline>
    <contour>
      <point x="193" y="413" type="curve" smooth="yes"/>
      <point x="143" y="413"/>
      <point x="113" y="451"/>
      <point x="113" y="509" type="curve" smooth="yes"/>
      <point x="113" y="594"/>
      <point x="174" y="712"/>
      <point x="263" y="712" type="curve" smooth="yes"/>
      <point x="294" y="712"/>
      <point x="318" y="687"/>
      <point x="322" y="666" type="curve"/>
      <point x="317" y="669" type="line"/>
      <point x="320" y="669" type="line"/>
      <point x="315" y="666" type="line"/>
      <point x="326" y="706" type="line"/>
      <point x="387" y="706" type="line"/>
      <point x="330" y="502" type="line"/>
      <point x="323" y="482"/>
      <point x="320" y="468"/>
      <point x="320" y="459" type="curve" smooth="yes"/>
      <point x="320" y="455"/>
      <point x="322" y="450"/>
      <point x="327" y="450" type="curve" smooth="yes"/>
      <point x="350" y="450"/>
      <point x="378" y="498"/>
      <point x="396" y="547" type="curve"/>
      <point x="418" y="538" type="line"/>
      <point x="394" y="477"/>
      <point x="353" y="413"/>
      <point x="314" y="413" type="curve" smooth="yes"/>
      <point x="277" y="413"/>
      <point x="260" y="439"/>
      <point x="260" y="460" type="curve" smooth="yes"/>
      <point x="260" y="467"/>
      <point x="261" y="474"/>
      <point x="263" y="479" type="curve"/>
      <point x="266" y="472" type="line"/>
      <point x="264" y="473" type="line"/>
      <point x="271" y="476" type="line"/>
      <point x="256" y="446"/>
      <point x="222" y="413"/>
    </contour>
    <contour>
      <point x="200" y="440" type="curve" smooth="yes"/>
      <point x="231" y="440"/>
      <point x="272" y="505"/>
      <point x="290" y="571" type="curve" smooth="yes"/>
      <point x="298" y="601" type="line" smooth="yes"/>
      <point x="301" y="612"/>
      <point x="303" y="625"/>
      <point x="303" y="642" type="curve" smooth="yes"/>
      <point x="303" y="665"/>
      <point x="292" y="683"/>
      <point x="264" y="683" type="curve" smooth="yes"/>
      <point x="214" y="683"/>
      <point x="174" y="575"/>
      <point x="174" y="481" type="curve" smooth="yes"/>
      <point x="174" y="460"/>
      <point x="181" y="440"/>
    </contour>
    <contour>
      <point x="90" y="363" type="line"/>
      <point x="100" y="396" type="line"/>
      <point x="352" y="396" type="line"/>
      <point x="343" y="363" type="line"/>
    </contour>
  </outline>
</glyph>
<glyph name="guillemotleft" format="2">
  <advance width="460"/>
  <unicode hex="00AB"/>
  <outline>
    <contour>
      <point x="188" y="16" type="curve"/>
      <point x="214" y="32" type="line"/>
      <point x="159" y="234" type="line"/>
      <point x="323" y="437" type="line"/>
      <point x="306" y="454" type="line"/>
      <point x="225" y="378"/>
      <point x="143" y="304"/>
      <point x="55" y="236" type="curve"/>
      <point x="109" y="169"/>
      <point x="149" y="93"/>
    </contour>
    <contour>
      <point x="289" y="73" type="curve"/>
      <point x="314" y="87" type="line"/>
      <point x="284" y="234" type="line"/>
      <point x="394" y="381" type="line"/>
      <point x="377" y="397" type="line"/>
      <point x="312" y="329"/>
      <point x="255" y="276"/>
      <point x="205" y="236" type="curve"/>
      <point x="234" y="197"/>
      <point x="261" y="143"/>
    </contour>
  </outline>
</glyph>
<glyph name="logicalnot" format="2">
  <advance width="597"/>
  <unicode hex="00AC"/>
  <outline>
    <contour>
      <point x="517" y="242" type="line"/>
      <point x="517" y="410" type="line"/>
      <point x="74" y="410" type="line"/>
      <point x="74" y="460" type="line"/>
      <point x="572" y="460" type="line"/>
      <point x="572" y="242" type="line"/>
    </contour>
  </outline>
</glyph>
<glyph name="registered" format="2">
  <advance width="839"/>
  <unicode hex="00AE"/>
  <outline>
    <contour>
      <point x="443" y="-18" type="curve" smooth="yes"/>
      <point x="654" y="-18"/>
      <point x="814" y="154"/>
      <point x="814" y="365" type="curve" smooth="yes"/>
      <point x="814" y="574"/>
      <point x="652" y="747"/>
      <point x="443" y="747" type="curve" smooth="yes"/>
      <point x="234" y="747"/>
      <point x="74" y="574"/>
      <point x="74" y="365" type="curve" smooth="yes"/>
      <point x="74" y="157"/>
      <point x="235" y="-18"/>
    </contour>
    <contour>
      <point x="443" y="20" type="curve" smooth="yes"/>
      <point x="254" y="20"/>
      <point x="111" y="181"/>
      <point x="111" y="365" type="curve" smooth="yes"/>
      <point x="111" y="548"/>
      <point x="255" y="709"/>
      <point x="443" y="709" type="curve" smooth="yes"/>
      <point x="633" y="709"/>
      <point x="776" y="549"/>
      <point x="776" y="365" type="curve" smooth="yes"/>
      <point x="776" y="179"/>
      <point x="635" y="20"/>
    </contour>
    <contour>
      <point x="604" y="119" type="curve" smooth="yes"/>
      <point x="681" y="119"/>
      <point x="695" y="194"/>
      <point x="695" y="256" type="curve"/>
      <point x="667" y="256" type="line"/>
      <point x="667" y="233"/>
      <point x="664" y="166"/>
      <point x="630" y="166" type="curve" smooth="yes"/>
      <point x="607" y="166"/>
      <point x="603" y="188"/>
      <point x="599" y="235" type="curve" smooth="yes"/>
      <point x="597" y="258" type="line" smooth="yes"/>
      <point x="589" y="339"/>
      <point x="547" y="371"/>
      <point x="502" y="379" type="curve"/>
      <point x="506" y="374" type="line"/>
      <point x="506" y="378" type="line"/>
      <point x="502" y="374" type="line"/>
      <point x="561" y="385"/>
      <point x="614" y="418"/>
      <point x="614" y="485" type="curve" smooth="yes"/>
      <point x="614" y="560"/>
      <point x="549" y="601"/>
      <point x="462" y="601" type="curve" smooth="yes"/>
      <point x="227" y="601" type="line"/>
      <point x="227" y="567" type="line"/>
      <point x="274" y="567" type="line" smooth="yes"/>
      <point x="287" y="567"/>
      <point x="292" y="562"/>
      <point x="292" y="550" type="curve" smooth="yes"/>
      <point x="292" y="182" type="line" smooth="yes"/>
      <point x="292" y="171"/>
      <point x="287" y="166"/>
      <point x="274" y="166" type="curve" smooth="yes"/>
      <point x="227" y="166" type="line"/>
      <point x="227" y="131" type="line"/>
      <point x="441" y="131" type="line"/>
      <point x="441" y="166" type="line"/>
      <point x="391" y="166" type="line" smooth="yes"/>
      <point x="379" y="166"/>
      <point x="375" y="171"/>
      <point x="375" y="182" type="curve" smooth="yes"/>
      <point x="375" y="362" type="line"/>
      <point x="448" y="362" type="line" smooth="yes"/>
      <point x="480" y="362"/>
      <point x="510" y="340"/>
      <point x="510" y="281" type="curve" smooth="yes"/>
      <point x="510" y="226" type="line" smooth="yes"/>
      <point x="510" y="165"/>
      <point x="540" y="119"/>
    </contour>
    <contour>
      <point x="446" y="395" type="curve" smooth="yes"/>
      <point x="375" y="395" type="line"/>
      <point x="375" y="550" type="line" smooth="yes"/>
      <point x="375" y="562"/>
      <point x="379" y="567"/>
      <point x="391" y="567" type="curve" smooth="yes"/>
      <point x="445" y="567" type="line" smooth="yes"/>
      <point x="494" y="567"/>
      <point x="515" y="534"/>
      <point x="515" y="479" type="curve" smooth="yes"/>
      <point x="515" y="426"/>
      <point x="488" y="395"/>
    </contour>
  </outline>
</glyph>
<glyph name="macron" format="2">
  <advance width="534"/>
  <unicode hex="00AF"/>
  <outline>
    <contour>
      <point x="193" y="551" type="line"/>
      <point x="205" y="601" type="line"/>
      <point x="531" y="601" type="line"/>
      <point x="519" y="551" type="line"/>
    </contour>
  </outline>
</glyph>
<glyph name="degree" format="2">
  <advance width="223"/>
  <unicode hex="00B0"/>
  <outline>
    <contour>
      <point x="46" y="634" type="curve" smooth="yes"/>
      <point x="46" y="672"/>
      <point x="76" y="699"/>
      <point x="111" y="699" type="curve" smooth="yes"/>
      <point x="150" y="699"/>
      <point x="176" y="669"/>
      <point x="176" y="634" type="curve" smooth="yes"/>
      <point x="176" y="595"/>
      <point x="147" y="569"/>
      <point x="111" y="569" type="curve" smooth="yes"/>
      <point x="73" y="569"/>
      <point x="46" y="598"/>
    </contour>
    <contour>
      <point x="0" y="634" type="curve" smooth="yes"/>
      <point x="0" y="574"/>
      <point x="47" y="522"/>
      <point x="111" y="522" type="curve" smooth="yes"/>
      <point x="172" y="522"/>
      <point x="223" y="570"/>
      <point x="223" y="634" type="curve" smooth="yes"/>
      <point x="223" y="694"/>
      <point x="175" y="745"/>
      <point x="111" y="745" type="curve" smooth="yes"/>
      <point x="51" y="745"/>
      <point x="0" y="698"/>
    </contour>
  </outline>
</glyph>
<glyph name="plusminus" format="2">
  <advance width="580"/>
  <unicode hex="00B1"/>
  <outline>
    <contour>
      <point x="500" y="74" type="line"/>
      <point x="80" y="74" type="line"/>
      <point x="80" y="15" type="line"/>
      <point x="500" y="15" type="line"/>
    </contour>
    <contour>
      <point x="319" y="336" type="line"/>
      <point x="319" y="507" type="line"/>
      <point x="260" y="507" type="line"/>
      <point x="260" y="336" type="line"/>
      <point x="90" y="336" type="line"/>
      <point x="90" y="277" type="line"/>
      <point x="260" y="277" type="line"/>
      <point x="260" y="106" type="line"/>
      <point x="319" y="106" type="line"/>
      <point x="319" y="277" type="line"/>
      <point x="490" y="277" type="line"/>
      <point x="490" y="336" type="line"/>
    </contour>
  </outline>
</glyph>
<glyph name="twosuperior" format="2">
  <advance width="429"/>
  <unicode hex="00B2"/>
  <outline>
    <contour>
      <point x="236" y="624" type="curve" smooth="yes"/>
      <point x="230" y="626"/>
      <point x="227" y="629"/>
      <point x="227" y="632" type="curve" smooth="yes"/>
      <point x="227" y="635"/>
      <point x="229" y="639"/>
      <point x="234" y="642" type="curve" smooth="yes"/>
      <point x="249" y="652"/>
      <point x="270" y="658"/>
      <point x="292" y="658" type="curve" smooth="yes"/>
      <point x="327" y="658"/>
      <point x="357" y="636"/>
      <point x="357" y="586" type="curve" smooth="yes"/>
      <point x="357" y="529"/>
      <point x="313" y="499"/>
      <point x="251" y="453" type="curve"/>
      <point x="175" y="402"/>
      <point x="92" y="337"/>
      <point x="58" y="248" type="curve"/>
      <point x="90" y="239" type="line"/>
      <point x="105" y="271"/>
      <point x="124" y="287"/>
      <point x="145" y="287" type="curve" smooth="yes"/>
      <point x="160" y="287"/>
      <point x="173" y="278"/>
      <point x="186" y="267" type="curve"/>
      <point x="205" y="254"/>
      <point x="227" y="239"/>
      <point x="260" y="239" type="curve" smooth="yes"/>
      <point x="331" y="239"/>
      <point x="369" y="312"/>
      <point x="374" y="370" type="curve"/>
      <point x="345" y="375" type="line"/>
      <point x="328" y="326"/>
      <point x="310" y="307"/>
      <point x="277" y="307" type="curve" smooth="yes"/>
      <point x="255" y="307"/>
      <point x="237" y="317"/>
      <point x="220" y="327" type="curve" smooth="yes"/>
      <point x="199" y="339"/>
      <point x="188" y="344"/>
      <point x="165" y="344" type="curve"/>
      <point x="202" y="378"/>
      <point x="246" y="406"/>
      <point x="293" y="429" type="curve"/>
      <point x="363" y="466"/>
      <point x="431" y="502"/>
      <point x="431" y="584" type="curve" smooth="yes"/>
      <point x="431" y="647"/>
      <point x="378" y="692"/>
      <point x="304" y="692" type="curve" smooth="yes"/>
      <point x="229" y="692"/>
      <point x="166" y="641"/>
      <point x="166" y="586" type="curve" smooth="yes"/>
      <point x="166" y="549"/>
      <point x="189" y="524"/>
      <point x="219" y="524" type="curve" smooth="yes"/>
      <point x="247" y="524"/>
      <point x="268" y="547"/>
      <point x="268" y="575" type="curve" smooth="yes"/>
      <point x="268" y="595"/>
      <point x="255" y="617"/>
    </contour>
  </outline>
</glyph>
